100-italicGF.ufo
<glyph name="exclam" format="1">
  <advance width="254"/>
  <unicode hex="0021"/>
  <outline>
    <contour>
      <point x="213" y="699.5" type="line"/>
      <point x="227" y="699.5" type="line"/>
      <point x="137" y="200.5" type="line"/>
      <point x="131" y="200.5" type="line"/>
    </contour>
    <contour>
      <point x="88.5" y="1" type="curve" smooth="yes"/>
      <point x="88.5" y="8"/>
      <point x="93.5" y="12"/>
      <point x="99.5" y="12" type="curve" smooth="yes"/>
      <point x="105.5" y="12"/>
      <point x="110.5" y="8"/>
      <point x="110.5" y="1" type="curve" smooth="yes"/>
      <point x="110.5" y="-6"/>
      <point x="105.5" y="-10"/>
      <point x="99.5" y="-10" type="curve" smooth="yes"/>
      <point x="93.5" y="-10"/>
      <point x="88.5" y="-6"/>
    </contour>
  </outline>
</glyph>
<glyph name="quotedbl" format="1">
  <advance width="391"/>
  <unicode hex="0022"/>
  <outline>
    <contour>
      <point x="227" y="699.5" type="line"/>
      <point x="240" y="699.5" type="line"/>
      <point x="141" y="420.5" type="line"/>
      <point x="134" y="420.5" type="line"/>
    </contour>
    <contour>
      <point x="402" y="699.5" type="line"/>
      <point x="415" y="699.5" type="line"/>
      <point x="315.5" y="420.5" type="line"/>
      <point x="308.5" y="420.5" type="line"/>
    </contour>
  </outline>
</glyph>
<glyph name="dollar" format="1">
  <advance width="562"/>
  <unicode hex="0024"/>
  <outline>
    <contour>
      <point x="350" y="817.5" type="line"/>
      <point x="360" y="817.5" type="line"/>
      <point x="340.5" y="700.5" type="line"/>
      <point x="330.5" y="700.5" type="line"/>
    </contour>
    <contour>
      <point x="226" y="-2" type="line"/>
      <point x="235.5" y="-2" type="line"/>
      <point x="217.5" y="-112" type="line"/>
      <point x="207.5" y="-112" type="line"/>
    </contour>
    <contour>
      <point x="483.5" y="548" type="line"/>
      <point x="472.5" y="619.5"/>
      <point x="432.5" y="696"/>
      <point x="336" y="696.5" type="curve" smooth="yes"/>
      <point x="248.5" y="697"/>
      <point x="168.5" y="633.5"/>
      <point x="155.5" y="550" type="curve" smooth="yes"/>
      <point x="141" y="454"/>
      <point x="225.5" y="402"/>
      <point x="304" y="368" type="curve" smooth="yes"/>
      <point x="385" y="333"/>
      <point x="453" y="274.5"/>
      <point x="440" y="175" type="curve" smooth="yes"/>
      <point x="425.5" y="74.5"/>
      <point x="353.5" y="-8.5"/>
      <point x="229.5" y="-7.5" type="curve" smooth="yes"/>
      <point x="110.5" y="-6.5"/>
      <point x="67" y="97.5"/>
      <point x="51.5" y="193" type="curve"/>
      <point x="62" y="197" type="line"/>
      <point x="76.5" y="105.5"/>
      <point x="116" y="4.5"/>
      <point x="230.5" y="3.5" type="curve" smooth="yes"/>
      <point x="347" y="2.5"/>
      <point x="415.5" y="77.5"/>
      <point x="429.5" y="175" type="curve" smooth="yes"/>
      <point x="442" y="270"/>
      <point x="372" y="326"/>
      <point x="297.5" y="359" type="curve" smooth="yes"/>
      <point x="219.5" y="393"/>
      <point x="130" y="448.5"/>
      <point x="144.5" y="550" type="curve" smooth="yes"/>
      <point x="157.5" y="641.5"/>
      <point x="244" y="708"/>
      <point x="337" y="707.5" type="curve" smooth="yes"/>
      <point x="440" y="707"/>
      <point x="483.5" y="626"/>
      <point x="493.5" y="550" type="curve"/>
    </contour>
  </outline>
</glyph>
<glyph name="quotesingle" format="1">
  <advance width="216"/>
  <unicode hex="0027"/>
  <outline>
    <contour>
      <point x="227" y="699.5" type="line"/>
      <point x="240" y="699.5" type="line"/>
      <point x="141" y="420.5" type="line"/>
      <point x="134" y="420.5" type="line"/>
    </contour>
  </outline>
</glyph>
<glyph name="asterisk" format="1">
  <advance width="574"/>
  <unicode hex="002A"/>
  <outline>
    <contour>
      <point x="520" y="584.5" type="line"/>
      <point x="521" y="572.5" type="line"/>
      <point x="350" y="522.5" type="line"/>
      <point x="348" y="528.5" type="line"/>
    </contour>
    <contour>
      <point x="431" y="387" type="line"/>
      <point x="420.5" y="380" type="line"/>
      <point x="347" y="522" type="line"/>
      <point x="351.5" y="527" type="line"/>
    </contour>
    <contour>
      <point x="229.5" y="381" type="line"/>
      <point x="220.5" y="388" type="line"/>
      <point x="347.5" y="527" type="line"/>
      <point x="351" y="522" type="line"/>
    </contour>
    <contour>
      <point x="194.5" y="573" type="line"/>
      <point x="199.5" y="584.5" type="line"/>
      <point x="352.5" y="528" type="line"/>
      <point x="349" y="522.5" type="line"/>
    </contour>
    <contour>
      <point x="374.5" y="699.5" type="line"/>
      <point x="386.5" y="699.5" type="line"/>
      <point x="352" y="525.5" type="line"/>
      <point x="346" y="525.5" type="line"/>
    </contour>
  </outline>
</glyph>
<glyph name="comma" format="1">
  <advance width="267"/>
  <unicode hex="002C"/>
  <outline>
    <contour>
      <point x="159.5" y="93" type="line"/>
      <point x="169.5" y="88" type="line"/>
      <point x="18.5" y="-160" type="line"/>
      <point x="12.5" y="-158" type="line"/>
    </contour>
  </outline>
</glyph>
<glyph name="hyphen" format="1">
  <advance width="203"/>
  <unicode hex="002D"/>
  <outline>
    <contour>
      <point x="23" y="265" type="line"/>
      <point x="24.5" y="275" type="line"/>
      <point x="219" y="275" type="line"/>
      <point x="217" y="265" type="line"/>
    </contour>
  </outline>
</glyph>
<glyph name="slash" format="1">
  <advance width="460"/>
  <unicode hex="002F"/>
  <outline>
    <contour>
      <point x="527.5" y="699.5" type="line"/>
      <point x="539.5" y="699" type="line"/>
      <point x="-27" y="-149.5" type="line"/>
      <point x="-39" y="-149" type="line"/>
    </contour>
  </outline>
</glyph>
<glyph name="one" format="1">
  <advance width="397"/>
  <unicode hex="0031"/>
  <outline>
    <contour>
      <point x="176.5" y="654.5" type="line"/>
      <point x="178.5" y="665.5" type="line"/>
      <point x="360.5" y="705" type="line"/>
      <point x="239" y="0" type="line"/>
      <point x="229.5" y="0" type="line"/>
      <point x="348" y="690.5" type="line"/>
    </contour>
  </outline>
</glyph>
<glyph name="six" format="1">
  <advance width="520"/>
  <unicode hex="0036"/>
  <outline>
    <contour>
      <point x="75" y="220" type="curve" smooth="yes"/>
      <point x="59" y="106.5"/>
      <point x="119.5" y="1"/>
      <point x="242.5" y="0.5" type="curve" smooth="yes"/>
      <point x="366.5" y="0"/>
      <point x="462" y="100.5"/>
      <point x="479" y="220" type="curve" smooth="yes"/>
      <point x="493" y="324.5"/>
      <point x="427.5" y="425"/>
      <point x="320" y="426.5" type="curve" smooth="yes"/>
      <point x="189.5" y="428"/>
      <point x="93" y="328.5"/>
    </contour>
    <contour>
      <point x="411" y="699" type="line"/>
      <point x="423.5" y="699" type="line"/>
      <point x="134.5" y="354.5" type="line"/>
      <point x="133.5" y="355.5" type="line"/>
      <point x="182.5" y="403.5"/>
      <point x="245.5" y="438"/>
      <point x="320" y="437" type="curve" smooth="yes"/>
      <point x="435" y="435.5"/>
      <point x="503" y="329.5"/>
      <point x="488.5" y="220" type="curve" smooth="yes"/>
      <point x="471.5" y="93.5"/>
      <point x="374.5" y="-10"/>
      <point x="242" y="-9.5" type="curve" smooth="yes"/>
      <point x="110" y="-9"/>
      <point x="48" y="98.5"/>
      <point x="65" y="220" type="curve" smooth="yes"/>
      <point x="74.5" y="278.5"/>
      <point x="108.5" y="337.5"/>
      <point x="143.5" y="379" type="curve" smooth="yes"/>
    </contour>
  </outline>
</glyph>
<glyph name="eight" format="1">
  <advance width="500"/>
  <unicode hex="0038"/>
  <outline>
    <contour>
      <point x="147.5" y="541" type="curve" smooth="yes"/>
      <point x="162" y="629.5"/>
      <point x="246.5" y="710"/>
      <point x="344" y="709.5" type="curve" smooth="yes"/>
      <point x="440" y="709"/>
      <point x="497.5" y="625.5"/>
      <point x="484" y="540.5" type="curve" smooth="yes"/>
      <point x="469.5" y="447.5"/>
      <point x="376.5" y="368"/>
      <point x="286.5" y="368.5" type="curve" smooth="yes"/>
      <point x="198" y="369"/>
      <point x="134.5" y="451.5"/>
    </contour>
    <contour>
      <point x="157" y="541" type="curve" smooth="yes"/>
      <point x="145" y="457"/>
      <point x="209" y="376.5"/>
      <point x="286.5" y="375.5" type="curve" smooth="yes"/>
      <point x="366" y="374.5"/>
      <point x="460" y="453"/>
      <point x="474" y="541" type="curve" smooth="yes"/>
      <point x="487.5" y="622"/>
      <point x="434.5" y="699"/>
      <point x="343.5" y="699.5" type="curve" smooth="yes"/>
      <point x="251" y="700"/>
      <point x="171" y="625.5"/>
    </contour>
    <contour>
      <point x="67" y="185" type="curve" smooth="yes"/>
      <point x="84" y="288"/>
      <point x="183" y="372"/>
      <point x="286" y="371.5" type="curve" smooth="yes"/>
      <point x="387" y="371"/>
      <point x="457" y="285"/>
      <point x="442.5" y="185" type="curve" smooth="yes"/>
      <point x="426" y="78.5"/>
      <point x="340.5" y="-10"/>
      <point x="222" y="-9.5" type="curve" smooth="yes"/>
      <point x="104" y="-9"/>
      <point x="50.5" y="83"/>
    </contour>
    <contour>
      <point x="77" y="185" type="curve" smooth="yes"/>
      <point x="61" y="87.5"/>
      <point x="112.5" y="1"/>
      <point x="222.5" y="0.5" type="curve" smooth="yes"/>
      <point x="333" y="0"/>
      <point x="416.5" y="83"/>
      <point x="432.5" y="185" type="curve" smooth="yes"/>
      <point x="446.5" y="280"/>
      <point x="379.5" y="364"/>
      <point x="286" y="364.5" type="curve" smooth="yes"/>
      <point x="190.5" y="365"/>
      <point x="93.5" y="284"/>
    </contour>
  </outline>
</glyph>
<glyph name="nine" format="1">
  <advance width="520"/>
  <unicode hex="0039"/>
  <outline>
    <contour>
      <point x="519" y="480" type="curve" smooth="yes"/>
      <point x="535" y="593.5"/>
      <point x="474" y="699"/>
      <point x="351" y="699.5" type="curve" smooth="yes"/>
      <point x="227" y="700"/>
      <point x="132" y="599.5"/>
      <point x="115" y="480" type="curve" smooth="yes"/>
      <point x="101" y="375.5"/>
      <point x="166.5" y="275"/>
      <point x="274" y="273.5" type="curve" smooth="yes"/>
      <point x="404.5" y="272"/>
      <point x="501" y="371.5"/>
    </contour>
    <contour>
      <point x="182.5" y="0" type="line"/>
      <point x="170.5" y="0" type="line"/>
      <point x="458.5" y="345" type="line"/>
      <point x="460" y="344.5" type="line"/>
      <point x="411" y="296.5"/>
      <point x="348" y="262"/>
      <point x="273.5" y="263" type="curve" smooth="yes"/>
      <point x="158.5" y="264.5"/>
      <point x="90.5" y="370.5"/>
      <point x="105" y="480" type="curve" smooth="yes"/>
      <point x="122" y="606.5"/>
      <point x="219" y="710"/>
      <point x="351.5" y="709.5" type="curve" smooth="yes"/>
      <point x="483.5" y="709"/>
      <point x="545.5" y="601.5"/>
      <point x="528.5" y="480" type="curve" smooth="yes"/>
      <point x="519" y="421.5"/>
      <point x="485" y="362.5"/>
      <point x="450" y="321" type="curve" smooth="yes"/>
    </contour>
  </outline>
</glyph>
<glyph name="equal" format="1">
  <advance width="596"/>
  <unicode hex="003D"/>
  <outline>
    <contour>
      <point x="67.5" y="185" type="line"/>
      <point x="69" y="195" type="line"/>
      <point x="540" y="195" type="line"/>
      <point x="538.5" y="185" type="line"/>
    </contour>
    <contour>
      <point x="89" y="310" type="line"/>
      <point x="90.5" y="320" type="line"/>
      <point x="561.5" y="320" type="line"/>
      <point x="559.5" y="310" type="line"/>
    </contour>
  </outline>
</glyph>
<glyph name="at" format="1">
  <advance width="747"/>
  <unicode hex="0040"/>
  <outline>
    <contour>
      <point x="237" y="320" type="curve" smooth="yes"/>
      <point x="227.5" y="247.5"/>
      <point x="256" y="176"/>
      <point x="330" y="174.5" type="curve" smooth="yes"/>
      <point x="422" y="172.5"/>
      <point x="498" y="275.5"/>
      <point x="512" y="370" type="curve" smooth="yes"/>
      <point x="521" y="435"/>
      <point x="501" y="513.5"/>
      <point x="428.5" y="516.5" type="curve" smooth="yes"/>
      <point x="337" y="520.5"/>
      <point x="251" y="429"/>
    </contour>
    <contour>
      <point x="226" y="320" type="curve" smooth="yes"/>
      <point x="241" y="436.5"/>
      <point x="332" y="530.5"/>
      <point x="429.5" y="527.5" type="curve" smooth="yes"/>
      <point x="509" y="525"/>
      <point x="531" y="441.5"/>
      <point x="521" y="367" type="curve" smooth="yes"/>
      <point x="506.5" y="269"/>
      <point x="425" y="163"/>
      <point x="331" y="163.5" type="curve" smooth="yes"/>
      <point x="250" y="164"/>
      <point x="215.5" y="237.5"/>
    </contour>
    <contour>
      <point x="61" y="320" type="curve" smooth="yes"/>
      <point x="95" y="530"/>
      <point x="273" y="709.5"/>
      <point x="496" y="708" type="curve" smooth="yes"/>
      <point x="685.5" y="707"/>
      <point x="779.5" y="546"/>
      <point x="753" y="390" type="curve" smooth="yes"/>
      <point x="737" y="262.5"/>
      <point x="635" y="146"/>
      <point x="538.5" y="152.5" type="curve" smooth="yes"/>
      <point x="469.5" y="156.5"/>
      <point x="473.5" y="224"/>
      <point x="490" y="290" type="curve"/>
      <point x="488" y="290.5" type="line"/>
      <point x="567" y="519.5" type="line"/>
      <point x="579" y="519.5" type="line"/>
      <point x="498.5" y="289" type="line" smooth="yes"/>
      <point x="495.5" y="280"/>
      <point x="492.5" y="264"/>
      <point x="490.5" y="254" type="curve" smooth="yes"/>
      <point x="485" y="219"/>
      <point x="486" y="167.5"/>
      <point x="539.5" y="163.5" type="curve" smooth="yes"/>
      <point x="631" y="154.5"/>
      <point x="727" y="274.5"/>
      <point x="742" y="390" type="curve" smooth="yes"/>
      <point x="768" y="540"/>
      <point x="679" y="695.5"/>
      <point x="495" y="697" type="curve" smooth="yes"/>
      <point x="277" y="699"/>
      <point x="105.5" y="526"/>
      <point x="72" y="320" type="curve" smooth="yes"/>
      <point x="45.5" y="145.5"/>
      <point x="127.5" y="5"/>
      <point x="317.5" y="3.5" type="curve" smooth="yes"/>
      <point x="415" y="2.5"/>
      <point x="495.5" y="30"/>
      <point x="562.5" y="60.5" type="curve"/>
      <point x="567" y="50.5" type="line"/>
      <point x="497" y="20"/>
      <point x="417" y="-8"/>
      <point x="316.5" y="-7.5" type="curve" smooth="yes"/>
      <point x="119.5" y="-6"/>
      <point x="33.5" y="139.5"/>
    </contour>
  </outline>
</glyph>
<glyph name="D" format="1">
  <advance width="616"/>
  <unicode hex="0044"/>
  <outline>
    <contour>
      <point x="180" y="699.5" type="line"/>
      <point x="191" y="699.5" type="line"/>
      <point x="70.5" y="0" type="line"/>
      <point x="59.5" y="0" type="line"/>
    </contour>
    <contour>
      <point x="216" y="0" type="curve" smooth="yes"/>
      <point x="65" y="0" type="line"/>
      <point x="67" y="11" type="line"/>
      <point x="217" y="11" type="line" smooth="yes"/>
      <point x="416" y="11"/>
      <point x="558.5" y="157"/>
      <point x="589.5" y="350" type="curve" smooth="yes"/>
      <point x="617.5" y="533"/>
      <point x="529.5" y="689"/>
      <point x="333.5" y="689" type="curve" smooth="yes"/>
      <point x="182.5" y="689" type="line"/>
      <point x="184.5" y="700" type="line"/>
      <point x="334.5" y="700" type="line" smooth="yes"/>
      <point x="535.5" y="700"/>
      <point x="629" y="538.5"/>
      <point x="600.5" y="350" type="curve" smooth="yes"/>
      <point x="569" y="152"/>
      <point x="420" y="0"/>
    </contour>
  </outline>
</glyph>
<glyph name="G" format="1">
  <advance width="742"/>
  <unicode hex="0047"/>
  <outline>
    <contour>
      <point x="437" y="330" type="line"/>
      <point x="438.5" y="340" type="line"/>
      <point x="720" y="339.5" type="line"/>
      <point x="685" y="162.5"/>
      <point x="547.5" y="-7.5"/>
      <point x="350.5" y="-7.5" type="curve" smooth="yes"/>
      <point x="154.5" y="-7.5"/>
      <point x="54" y="164.5"/>
      <point x="81" y="350" type="curve" smooth="yes"/>
      <point x="111.5" y="546"/>
      <point x="273" y="708.5"/>
      <point x="471.5" y="708" type="curve" smooth="yes"/>
      <point x="587.5" y="708"/>
      <point x="667.5" y="646"/>
      <point x="716.5" y="556" type="curve"/>
      <point x="706" y="550" type="line"/>
      <point x="665.5" y="637.5"/>
      <point x="581" y="697"/>
      <point x="471" y="697" type="curve" smooth="yes"/>
      <point x="276.5" y="697.5"/>
      <point x="122.5" y="540.5"/>
      <point x="92" y="350" type="curve" smooth="yes"/>
      <point x="65.5" y="172"/>
      <point x="159" y="3.5"/>
      <point x="351.5" y="3.5" type="curve" smooth="yes"/>
      <point x="539" y="3.5"/>
      <point x="670.5" y="162"/>
      <point x="708" y="329.5" type="curve"/>
    </contour>
  </outline>
</glyph>
<glyph name="H" format="1">
  <advance width="627"/>
  <unicode hex="0048"/>
  <outline>
    <contour>
      <point x="127.5" y="377" type="line"/>
      <point x="129" y="387" type="line"/>
      <point x="575.5" y="387" type="line"/>
      <point x="574" y="377" type="line"/>
    </contour>
    <contour>
      <point x="622.5" y="699.5" type="line"/>
      <point x="633.5" y="699.5" type="line"/>
      <point x="513" y="0" type="line"/>
      <point x="502" y="0" type="line"/>
    </contour>
    <contour>
      <point x="180" y="699.5" type="line"/>
      <point x="191" y="699.5" type="line"/>
      <point x="70.5" y="0" type="line"/>
      <point x="59.5" y="0" type="line"/>
    </contour>
  </outline>
</glyph>
<glyph name="K" format="1">
  <advance width="440"/>
  <unicode hex="004B"/>
  <outline>
    <contour>
      <point x="175.5" y="699.5" type="line"/>
      <point x="186" y="699.5" type="line"/>
      <point x="65.5" y="0" type="line"/>
      <point x="54.5" y="0" type="line"/>
    </contour>
    <contour>
      <point x="488.5" y="699" type="line"/>
      <point x="504.5" y="699" type="line"/>
      <point x="141" y="371.5" type="line"/>
      <point x="398" y="0" type="line"/>
      <point x="383" y="0" type="line"/>
      <point x="127.5" y="372.5" type="line"/>
    </contour>
  </outline>
</glyph>
<glyph name="M" format="1">
  <advance width="805"/>
  <unicode hex="004D"/>
  <outline>
    <contour>
      <point x="226.5" y="674.5" type="line"/>
      <point x="41" y="0" type="line"/>
      <point x="30.5" y="0" type="line"/>
      <point x="226.5" y="715" type="line"/>
      <point x="397.5" y="131.5" type="line"/>
      <point x="770.5" y="715.5" type="line"/>
      <point x="719.5" y="0" type="line"/>
      <point x="709" y="0" type="line"/>
      <point x="756.5" y="673.5" type="line"/>
      <point x="393.5" y="104.5" type="line"/>
    </contour>
  </outline>
</glyph>
<glyph name="N" format="1">
  <advance width="675"/>
  <unicode hex="004E"/>
  <outline>
    <contour>
      <point x="679.5" y="699.5" type="line"/>
      <point x="690.5" y="699.5" type="line"/>
      <point x="567.5" y="-15" type="line"/>
      <point x="168.5" y="678" type="line"/>
      <point x="51.5" y="0" type="line"/>
      <point x="40.5" y="0" type="line"/>
      <point x="163.5" y="715" type="line"/>
      <point x="562" y="17" type="line"/>
    </contour>
  </outline>
</glyph>
<glyph name="S" format="1">
  <advance width="473"/>
  <unicode hex="0053"/>
  <outline>
    <contour>
      <point x="62" y="192.5" type="line"/>
      <point x="67" y="102"/>
      <point x="103" y="4.5"/>
      <point x="221" y="3.5" type="curve" smooth="yes"/>
      <point x="329" y="2.5"/>
      <point x="406.5" y="76"/>
      <point x="422" y="172.5" type="curve" smooth="yes"/>
      <point x="435.5" y="271"/>
      <point x="370" y="324"/>
      <point x="293.5" y="359" type="curve" smooth="yes"/>
      <point x="207" y="398"/>
      <point x="128.5" y="450.5"/>
      <point x="144" y="552" type="curve" smooth="yes"/>
      <point x="158.5" y="643.5"/>
      <point x="241" y="708"/>
      <point x="335" y="707.5" type="curve" smooth="yes"/>
      <point x="435" y="707"/>
      <point x="479" y="633.5"/>
      <point x="488" y="564" type="curve"/>
      <point x="477.5" y="561" type="line"/>
      <point x="468" y="626"/>
      <point x="430" y="695.5"/>
      <point x="334.5" y="696" type="curve" smooth="yes"/>
      <point x="246" y="696.5"/>
      <point x="169" y="637.5"/>
      <point x="155" y="552" type="curve" smooth="yes"/>
      <point x="139" y="455"/>
      <point x="215" y="406"/>
      <point x="300" y="368" type="curve" smooth="yes"/>
      <point x="380" y="332"/>
      <point x="447" y="275.5"/>
      <point x="433" y="172.5" type="curve" smooth="yes"/>
      <point x="417" y="71"/>
      <point x="335" y="-8.5"/>
      <point x="220.5" y="-7.5" type="curve" smooth="yes"/>
      <point x="98.5" y="-6.5"/>
      <point x="58.5" y="90.5"/>
      <point x="51.5" y="189" type="curve"/>
    </contour>
  </outline>
</glyph>
<glyph name="W" format="1">
  <advance width="921"/>
  <unicode hex="0057"/>
  <outline>
    <contour>
      <point x="660.5" y="26.5" type="line"/>
      <point x="983" y="699.5" type="line"/>
      <point x="994" y="699.5" type="line"/>
      <point x="654.5" y="-15.5" type="line"/>
      <point x="548.5" y="676.5" type="line"/>
      <point x="227.5" y="-15.5" type="line"/>
      <point x="110" y="700" type="line"/>
      <point x="121" y="700" type="line"/>
      <point x="233.5" y="26.5" type="line"/>
      <point x="554.5" y="715.5" type="line"/>
    </contour>
  </outline>
</glyph>
<glyph name="Y" format="1">
  <advance width="492"/>
  <unicode hex="0059"/>
  <outline>
    <contour>
      <point x="557.5" y="699" type="line"/>
      <point x="570.5" y="699" type="line"/>
      <point x="265" y="266.5" type="line"/>
      <point x="219" y="0" type="line"/>
      <point x="208" y="0" type="line"/>
      <point x="254.5" y="266.5" type="line"/>
      <point x="107" y="700" type="line"/>
      <point x="119.5" y="700" type="line"/>
      <point x="261" y="281.5" type="line"/>
    </contour>
  </outline>
</glyph>
<glyph name="Z" format="1">
  <advance width="519"/>
  <unicode hex="005A"/>
  <outline>
    <contour>
      <point x="129" y="689" type="line"/>
      <point x="131" y="700" type="line"/>
      <point x="597.5" y="700" type="line"/>
      <point x="16" y="11.5" type="line"/>
      <point x="470" y="11.5" type="line"/>
      <point x="468" y="0" type="line"/>
      <point x="-8.5" y="0" type="line"/>
      <point x="573.5" y="689" type="line"/>
    </contour>
  </outline>
</glyph>
<glyph name="backslash" format="1">
  <advance width="422"/>
  <unicode hex="005C"/>
  <outline>
    <contour>
      <point x="107" y="700" type="line"/>
      <point x="119.5" y="700" type="line"/>
      <point x="380.5" y="0" type="line"/>
      <point x="368" y="0" type="line"/>
    </contour>
  </outline>
</glyph>
<glyph name="a" format="1">
  <advance width="422"/>
  <unicode hex="0061"/>
  <outline>
    <contour>
      <point x="44.5" y="134" type="curve" smooth="yes"/>
      <point x="32" y="51"/>
      <point x="85.5" y="0.5"/>
      <point x="159" y="0.5" type="curve" smooth="yes"/>
      <point x="249.5" y="0.5"/>
      <point x="324.5" y="71"/>
      <point x="345.5" y="184" type="curve"/>
      <point x="351" y="174" type="line"/>
      <point x="330" y="64"/>
      <point x="252" y="-9.5"/>
      <point x="157" y="-9.5" type="curve" smooth="yes"/>
      <point x="80" y="-9.5"/>
      <point x="21.5" y="45.5"/>
      <point x="34.5" y="134" type="curve" smooth="yes"/>
      <point x="50" y="224"/>
      <point x="131" y="276.5"/>
      <point x="225.5" y="276.5" type="curve" smooth="yes"/>
      <point x="287" y="276.5"/>
      <point x="334" y="253.5"/>
      <point x="361" y="230" type="curve"/>
      <point x="359" y="219" type="line"/>
      <point x="321.5" y="251"/>
      <point x="276" y="266.5"/>
      <point x="224.5" y="266.5" type="curve" smooth="yes"/>
      <point x="144" y="266.5"/>
      <point x="59.5" y="223.5"/>
    </contour>
    <contour>
      <point x="116.5" y="402.5" type="curve"/>
      <point x="111.5" y="411" type="line"/>
      <point x="153" y="439"/>
      <point x="204.5" y="470.5"/>
      <point x="272" y="469.5" type="curve" smooth="yes"/>
      <point x="365.5" y="468"/>
      <point x="392" y="402.5"/>
      <point x="382" y="320" type="curve" smooth="yes"/>
      <point x="326.5" y="0" type="line"/>
      <point x="316.5" y="0" type="line"/>
      <point x="372.5" y="320" type="line" smooth="yes"/>
      <point x="382" y="370.5"/>
      <point x="379.5" y="458"/>
      <point x="270.5" y="459.5" type="curve" smooth="yes"/>
      <point x="206" y="461"/>
      <point x="156.5" y="430"/>
    </contour>
  </outline>
</glyph>
<glyph name="e" format="1">
  <advance width="502"/>
  <unicode hex="0065"/>
  <outline>
    <contour>
      <point x="225" y="-10" type="curve" smooth="yes"/>
      <point x="124" y="-10"/>
      <point x="55" y="74"/>
      <point x="55" y="197" type="curve" smooth="yes"/>
      <point x="55" y="333"/>
      <point x="173.5" y="470"/>
      <point x="303.5" y="470" type="curve" smooth="yes"/>
      <point x="399.5" y="470"/>
      <point x="470" y="382"/>
      <point x="470" y="279" type="curve" smooth="yes"/>
      <point x="470" y="262.5"/>
      <point x="465.5" y="243.5"/>
      <point x="459.5" y="228" type="curve"/>
      <point x="68" y="228" type="line"/>
      <point x="68" y="238" type="line"/>
      <point x="454.5" y="238" type="line"/>
      <point x="447.5" y="229" type="line"/>
      <point x="452.5" y="240"/>
      <point x="460" y="257.5"/>
      <point x="460" y="280" type="curve" smooth="yes"/>
      <point x="460" y="378"/>
      <point x="394.5" y="460"/>
      <point x="303.5" y="460" type="curve" smooth="yes"/>
      <point x="179" y="460"/>
      <point x="65" y="327"/>
      <point x="65" y="197" type="curve" smooth="yes"/>
      <point x="65" y="81"/>
      <point x="130" y="0"/>
      <point x="225" y="0" type="curve" smooth="yes"/>
      <point x="307" y="0"/>
      <point x="372.5" y="38"/>
      <point x="426.5" y="113" type="curve"/>
      <point x="434.5" y="107" type="line"/>
      <point x="377.5" y="29"/>
      <point x="309" y="-10"/>
    </contour>
  </outline>
</glyph>
<glyph name="f" format="1">
  <advance width="269"/>
  <unicode hex="0066"/>
  <outline>
    <contour>
      <point x="100" y="460" type="line"/>
      <point x="289" y="460" type="line"/>
      <point x="287.5" y="450" type="line"/>
      <point x="98" y="450" type="line"/>
    </contour>
    <contour>
      <point x="371.5" y="733" type="line"/>
      <point x="356.5" y="754"/>
      <point x="336.5" y="776.5"/>
      <point x="303.5" y="777.5" type="curve" smooth="yes"/>
      <point x="228.5" y="779.5"/>
      <point x="197" y="706"/>
      <point x="186" y="650" type="curve" smooth="yes"/>
      <point x="74.5" y="0" type="line"/>
      <point x="64.5" y="0" type="line"/>
      <point x="175.5" y="650" type="line" smooth="yes"/>
      <point x="187" y="715"/>
      <point x="224" y="790"/>
      <point x="304" y="787.5" type="curve" smooth="yes"/>
      <point x="341.5" y="786.5"/>
      <point x="363.5" y="762.5"/>
      <point x="379" y="740" type="curve"/>
    </contour>
  </outline>
</glyph>
<glyph name="j" format="1">
  <advance width="174"/>
  <unicode hex="006A"/>
  <outline>
    <contour>
      <point x="164" y="695" type="curve" smooth="yes"/>
      <point x="164" y="701"/>
      <point x="167.5" y="705"/>
      <point x="174" y="705" type="curve" smooth="yes"/>
      <point x="180.5" y="705"/>
      <point x="184" y="701"/>
      <point x="184" y="695" type="curve" smooth="yes"/>
      <point x="184" y="689"/>
      <point x="180.5" y="685"/>
      <point x="174" y="685" type="curve" smooth="yes"/>
      <point x="167.5" y="685"/>
      <point x="164" y="689"/>
    </contour>
    <contour>
      <point x="-149" y="-165" type="line"/>
      <point x="-135.5" y="-184.5"/>
      <point x="-114.5" y="-209.5"/>
      <point x="-82" y="-209.5" type="curve" smooth="yes"/>
      <point x="-6.1343" y="-209.5"/>
      <point x="26.5" y="-136"/>
      <point x="36.5" y="-82" type="curve" smooth="yes"/>
      <point x="129.5" y="459.5" type="line"/>
      <point x="139.5" y="459.5" type="line"/>
      <point x="46.5" y="-82" type="line" smooth="yes"/>
      <point x="35" y="-147"/>
      <point x="-2" y="-219.5"/>
      <point x="-82" y="-219.5" type="curve" smooth="yes"/>
      <point x="-119.531" y="-219.5"/>
      <point x="-141.5" y="-194.5"/>
      <point x="-157" y="-172" type="curve"/>
    </contour>
  </outline>
</glyph>
<glyph name="k" format="1">
  <advance width="361"/>
  <unicode hex="006B"/>
  <outline>
    <contour>
      <point x="184" y="779.5" type="line"/>
      <point x="194" y="779.5" type="line"/>
      <point x="59.5" y="0" type="line"/>
      <point x="50" y="0" type="line"/>
    </contour>
    <contour>
      <point x="369.5" y="459" type="line"/>
      <point x="385.5" y="459" type="line"/>
      <point x="117" y="269.5" type="line"/>
      <point x="324" y="0" type="line"/>
      <point x="311.5" y="0" type="line"/>
      <point x="104.5" y="270.5" type="line"/>
    </contour>
  </outline>
</glyph>
<glyph name="m" format="1">
  <advance width="669"/>
  <unicode hex="006D"/>
  <outline>
    <contour>
      <point x="615" y="320" type="curve" smooth="yes"/>
      <point x="559.5" y="0" type="line"/>
      <point x="549.5" y="0" type="line"/>
      <point x="605" y="320" type="line" smooth="yes"/>
      <point x="613" y="386.5"/>
      <point x="602.5" y="458"/>
      <point x="529.5" y="459.5" type="curve" smooth="yes"/>
      <point x="450.5" y="461.5"/>
      <point x="377" y="375"/>
      <point x="364" y="289.5" type="curve" smooth="yes"/>
      <point x="312" y="0" type="line"/>
      <point x="302" y="0" type="line"/>
      <point x="357.5" y="320" type="line" smooth="yes"/>
      <point x="365.5" y="386.5"/>
      <point x="355" y="458"/>
      <point x="282" y="459.5" type="curve" smooth="yes"/>
      <point x="204" y="461.5"/>
      <point x="130.5" y="376.5"/>
      <point x="117" y="290.5" type="curve" smooth="yes"/>
      <point x="64.5" y="0" type="line"/>
      <point x="54.5" y="0" type="line"/>
      <point x="134.5" y="459.5" type="line"/>
      <point x="144.5" y="459.5" type="line"/>
      <point x="123.5" y="335.5" type="line"/>
      <point x="147" y="408"/>
      <point x="211.503" y="471.579"/>
      <point x="283" y="470" type="curve" smooth="yes"/>
      <point x="356.5" y="468.5"/>
      <point x="375.5" y="403"/>
      <point x="370" y="339" type="curve"/>
      <point x="401.5" y="417"/>
      <point x="459" y="471"/>
      <point x="530" y="469.5" type="curve" smooth="yes"/>
      <point x="609" y="468"/>
      <point x="624" y="393.5"/>
    </contour>
  </outline>
</glyph>
<glyph name="n" format="1">
  <advance width="460"/>
  <unicode hex="006E"/>
  <outline>
    <contour>
      <point x="396.5" y="320" type="line" smooth="yes"/>
      <point x="406" y="392.5"/>
      <point x="388" y="458.5"/>
      <point x="301.5" y="459.5" type="curve" smooth="yes"/>
      <point x="209" y="460.5"/>
      <point x="131.5" y="379"/>
      <point x="117" y="290" type="curve" smooth="yes"/>
      <point x="64.5" y="0" type="line"/>
      <point x="54.5" y="0" type="line"/>
      <point x="134.5" y="459.5" type="line"/>
      <point x="144.5" y="459.5" type="line"/>
      <point x="124.5" y="335.5" type="line"/>
      <point x="150.5" y="411.5"/>
      <point x="217.5" y="470"/>
      <point x="302" y="469.5" type="curve" smooth="yes"/>
      <point x="394" y="469"/>
      <point x="417" y="399"/>
      <point x="406.5" y="320" type="curve" smooth="yes"/>
      <point x="350.5" y="0" type="line"/>
      <point x="341" y="0" type="line"/>
    </contour>
  </outline>
</glyph>
<glyph name="s" format="1">
  <advance width="391"/>
  <unicode hex="0073"/>
  <outline>
    <contour>
      <point x="56" y="131.5" type="line"/>
      <point x="57.5" y="67"/>
      <point x="85" y="0.5"/>
      <point x="174.5" y="0" type="curve" smooth="yes"/>
      <point x="244" y="-0.5"/>
      <point x="304.5" y="47.5"/>
      <point x="313.5" y="117" type="curve" smooth="yes"/>
      <point x="322.5" y="181.5"/>
      <point x="269.5" y="210.5"/>
      <point x="210" y="231" type="curve" smooth="yes"/>
      <point x="144" y="253.5"/>
      <point x="91.5" y="279.5"/>
      <point x="103" y="359" type="curve" smooth="yes"/>
      <point x="113.5" y="426.5"/>
      <point x="174.5" y="468"/>
      <point x="240.5" y="467.5" type="curve" smooth="yes"/>
      <point x="315" y="467"/>
      <point x="347" y="421.5"/>
      <point x="361" y="368" type="curve"/>
      <point x="351" y="365" type="line"/>
      <point x="338" y="415.5"/>
      <point x="310.5" y="457"/>
      <point x="240" y="457.5" type="curve" smooth="yes"/>
      <point x="179" y="458.009"/>
      <point x="122.5" y="420.5"/>
      <point x="113" y="359" type="curve" smooth="yes"/>
      <point x="101.5" y="283.5"/>
      <point x="154" y="261"/>
      <point x="216.5" y="240" type="curve" smooth="yes"/>
      <point x="277" y="219.5"/>
      <point x="332.5" y="186"/>
      <point x="323.5" y="117" type="curve" smooth="yes"/>
      <point x="314" y="42.5"/>
      <point x="250" y="-9.5"/>
      <point x="174" y="-9.5" type="curve" smooth="yes"/>
      <point x="78" y="-9.5"/>
      <point x="47.5" y="60.5"/>
      <point x="46" y="129.5" type="curve"/>
    </contour>
  </outline>
</glyph>
<glyph name="u" format="1">
  <advance width="460"/>
  <unicode hex="0075"/>
  <outline>
    <contour>
      <point x="90.5" y="150" type="line" smooth="yes"/>
      <point x="80.5" y="72.5"/>
      <point x="95" y="1.5"/>
      <point x="184" y="1" type="curve" smooth="yes"/>
      <point x="277.5" y="0"/>
      <point x="356.37" y="86.5263"/>
      <point x="369.5" y="172" type="curve" smooth="yes"/>
      <point x="420.5" y="459.5" type="line"/>
      <point x="430.5" y="459.5" type="line"/>
      <point x="351" y="0" type="line"/>
      <point x="341" y="0" type="line"/>
      <point x="360.5" y="120.5" type="line"/>
      <point x="329.5" y="47"/>
      <point x="267.5" y="-10.5"/>
      <point x="183" y="-9.5" type="curve" smooth="yes"/>
      <point x="88" y="-9"/>
      <point x="69.5" y="65.5"/>
      <point x="80.5" y="150" type="curve" smooth="yes"/>
      <point x="134.5" y="459.5" type="line"/>
      <point x="144.5" y="459.5" type="line"/>
    </contour>
  </outline>
</glyph>
<glyph name="v" format="1">
  <advance width="407"/>
  <unicode hex="0076"/>
  <outline>
    <contour>
      <point x="63.5" y="460" type="line"/>
      <point x="75" y="460" type="line"/>
      <point x="187.5" y="10.5" type="line"/>
      <point x="440.5" y="459.5" type="line"/>
      <point x="452.5" y="459.5" type="line"/>
      <point x="184" y="-15" type="line"/>
    </contour>
  </outline>
</glyph>
<glyph name="braceright" format="1">
  <advance width="272"/>
  <unicode hex="007D"/>
  <outline>
    <contour>
      <point x="102.5" y="-60" type="curve" smooth="yes"/>
      <point x="134.5" y="150" type="line" smooth="yes"/>
      <point x="145" y="224.5"/>
      <point x="178.5" y="278"/>
      <point x="223" y="291.5" type="curve"/>
      <point x="222.5" y="288" type="line"/>
      <point x="184" y="305.5"/>
      <point x="170.5" y="359.5"/>
      <point x="178" y="430" type="curve" smooth="yes"/>
      <point x="210.5" y="640" type="line" smooth="yes"/>
      <point x="218" y="714"/>
      <point x="219" y="770"/>
      <point x="150" y="770" type="curve" smooth="yes"/>
      <point x="130.5" y="770" type="line"/>
      <point x="132" y="780" type="line"/>
      <point x="151" y="780" type="line" smooth="yes"/>
      <point x="228" y="780"/>
      <point x="228.5" y="718"/>
      <point x="220" y="640" type="curve" smooth="yes"/>
      <point x="187.5" y="430" type="line" smooth="yes"/>
      <point x="180.5" y="367.5"/>
      <point x="191.5" y="320.5"/>
      <point x="224" y="295" type="curve"/>
      <point x="222.5" y="285" type="line"/>
      <point x="182.5" y="263.5"/>
      <point x="154.5" y="216"/>
      <point x="145" y="150" type="curve" smooth="yes"/>
      <point x="113" y="-60" type="line" smooth="yes"/>
      <point x="102" y="-143"/>
      <point x="76.5" y="-200"/>
      <point x="0.5" y="-200" type="curve" smooth="yes"/>
      <point x="-19" y="-200" type="line"/>
      <point x="-17.5" y="-190.5" type="line"/>
      <point x="1.5" y="-190.5" type="line" smooth="yes"/>
      <point x="70" y="-190.5"/>
      <point x="92.5" y="-138.5"/>
    </contour>
  </outline>
</glyph>
<glyph name="exclamdown" format="1">
  <advance width="291"/>
  <unicode hex="00A1"/>
  <outline>
    <contour>
      <point x="101.5" y="-244.5" type="line"/>
      <point x="87.5" y="-244.5" type="line"/>
      <point x="178" y="254.5" type="line"/>
      <point x="184" y="254.5" type="line"/>
    </contour>
    <contour>
      <point x="225" y="454" type="curve" smooth="yes"/>
      <point x="224.5" y="448.5"/>
      <point x="218" y="443"/>
      <point x="212.5" y="443" type="curve" smooth="yes"/>
      <point x="207" y="443"/>
      <point x="203" y="448"/>
      <point x="203.5" y="454" type="curve" smooth="yes"/>
      <point x="204" y="459.5"/>
      <point x="210.5" y="465"/>
      <point x="216" y="465" type="curve" smooth="yes"/>
      <point x="221.5" y="465"/>
      <point x="225.5" y="460"/>
    </contour>
  </outline>
</glyph>
<glyph name="cent" format="1">
  <advance width="562"/>
  <unicode hex="00A2"/>
  <outline>
    <contour>
      <point x="279.5" y="-4.5" type="line"/>
      <point x="283.5" y="-4.5" type="line"/>
      <point x="268.5" y="-111.5" type="line"/>
      <point x="255" y="-111.5" type="line"/>
    </contour>
    <contour>
      <point x="105" y="230" type="curve" smooth="yes"/>
      <point x="87" y="112"/>
      <point x="155.5" y="1"/>
      <point x="282" y="0.5" type="curve" smooth="yes"/>
      <point x="350" y="0.5"/>
      <point x="407.5" y="31.5"/>
      <point x="443.5" y="60" type="curve"/>
      <point x="441.5" y="47.5" type="line"/>
      <point x="405.5" y="19"/>
      <point x="348" y="-9.5"/>
      <point x="281.5" y="-9.5" type="curve" smooth="yes"/>
      <point x="149" y="-9.5"/>
      <point x="77" y="105"/>
      <point x="95.5" y="230" type="curve" smooth="yes"/>
      <point x="116.5" y="361.5"/>
      <point x="228" y="469.5"/>
      <point x="362" y="469.5" type="curve" smooth="yes"/>
      <point x="424" y="469.5"/>
      <point x="476" y="443"/>
      <point x="503.5" y="412" type="curve"/>
      <point x="501.5" y="399.5" type="line"/>
      <point x="475.5" y="432"/>
      <point x="424" y="459.5"/>
      <point x="361.5" y="459.5" type="curve" smooth="yes"/>
      <point x="233" y="459.5"/>
      <point x="125.5" y="354.5"/>
    </contour>
    <contour>
      <point x="374" y="577.5" type="line"/>
      <point x="388" y="577.5" type="line"/>
      <point x="362" y="463.5" type="line"/>
      <point x="358" y="463.5" type="line"/>
    </contour>
  </outline>
</glyph>
<glyph name="sterling" format="1">
  <advance width="562"/>
  <unicode hex="00A3"/>
  <outline>
    <contour>
      <point x="109" y="305" type="line"/>
      <point x="410.5" y="305" type="line"/>
      <point x="408.5" y="295" type="line"/>
      <point x="107.5" y="295" type="line"/>
    </contour>
    <contour>
      <point x="524" y="498" type="line"/>
      <point x="532" y="577.5"/>
      <point x="511" y="698.5"/>
      <point x="395" y="699.5" type="curve" smooth="yes"/>
      <point x="297.5" y="700.5"/>
      <point x="220.5" y="620.5"/>
      <point x="206" y="538" type="curve" smooth="yes"/>
      <point x="190" y="429"/>
      <point x="293.5" y="365"/>
      <point x="278.5" y="264" type="curve" smooth="yes"/>
      <point x="260" y="154"/>
      <point x="130.5" y="64"/>
      <point x="77.5" y="0.5" type="curve"/>
      <point x="75.5" y="10.5" type="line"/>
      <point x="457" y="10" type="line"/>
      <point x="455.5" y="0" type="line"/>
      <point x="64" y="0" type="line"/>
      <point x="145" y="90"/>
      <point x="250" y="162.5"/>
      <point x="268.5" y="264" type="curve" smooth="yes"/>
      <point x="283.5" y="362.5"/>
      <point x="180.5" y="427.5"/>
      <point x="196" y="538" type="curve" smooth="yes"/>
      <point x="211" y="627.5"/>
      <point x="292" y="710"/>
      <point x="395.5" y="709.5" type="curve" smooth="yes"/>
      <point x="521" y="709"/>
      <point x="541.5" y="581"/>
      <point x="534" y="498" type="curve"/>
    </contour>
  </outline>
</glyph>
<glyph name="currency" format="1">
  <advance width="543"/>
  <unicode hex="00A4"/>
  <outline>
    <contour>
      <point x="117" y="523" type="line"/>
      <point x="128.5" y="533" type="line"/>
      <point x="179.5" y="469" type="line"/>
      <point x="169" y="460" type="line"/>
    </contour>
    <contour>
      <point x="49" y="67.5" type="line"/>
      <point x="41" y="78" type="line"/>
      <point x="114.5" y="139.5" type="line"/>
      <point x="122" y="130" type="line"/>
    </contour>
    <contour>
      <point x="487" y="460.5" type="line"/>
      <point x="478.5" y="470" type="line"/>
      <point x="552" y="532.5" type="line"/>
      <point x="559.5" y="522" type="line"/>
    </contour>
    <contour>
      <point x="421" y="131" type="line"/>
      <point x="432" y="140" type="line"/>
      <point x="483" y="77" type="line"/>
      <point x="473" y="67" type="line"/>
    </contour>
    <contour>
      <point x="74" y="300" type="curve" smooth="yes"/>
      <point x="94" y="430"/>
      <point x="206.5" y="540"/>
      <point x="336" y="539.5" type="curve" smooth="yes"/>
      <point x="464" y="539"/>
      <point x="535.5" y="423.5"/>
      <point x="517.5" y="300" type="curve" smooth="yes"/>
      <point x="497.5" y="170"/>
      <point x="385" y="60"/>
      <point x="255.5" y="60.5" type="curve" smooth="yes"/>
      <point x="127.5" y="61"/>
      <point x="56" y="176.5"/>
    </contour>
    <contour>
      <point x="84" y="300" type="curve" smooth="yes"/>
      <point x="66.5" y="183.5"/>
      <point x="133.5" y="71"/>
      <point x="256" y="70.5" type="curve" smooth="yes"/>
      <point x="380" y="70"/>
      <point x="488" y="177"/>
      <point x="507.5" y="300" type="curve" smooth="yes"/>
      <point x="525" y="416.5"/>
      <point x="458" y="529"/>
      <point x="335.5" y="529.5" type="curve" smooth="yes"/>
      <point x="211.5" y="530"/>
      <point x="103.5" y="423"/>
    </contour>
  </outline>
</glyph>
<glyph name="brokenbar" format="1">
  <advance width="203"/>
  <unicode hex="00A6"/>
  <outline>
    <contour>
      <point x="189.5" y="694.5" type="line"/>
      <point x="199.5" y="694.5" type="line"/>
      <point x="156.5" y="455.5" type="line"/>
      <point x="146.5" y="455.5" type="line"/>
    </contour>
    <contour>
      <point x="122.5" y="244.5" type="line"/>
      <point x="79.5" y="5.5" type="line"/>
      <point x="69.5" y="5.5" type="line"/>
      <point x="112.5" y="244.5" type="line"/>
    </contour>
  </outline>
</glyph>
<glyph name="section" format="1">
  <advance width="386"/>
  <unicode hex="00A7"/>
  <outline>
    <contour>
      <point x="425" y="616" type="line"/>
      <point x="406" y="667.5"/>
      <point x="351" y="699.5"/>
      <point x="290" y="699.5" type="curve" smooth="yes"/>
      <point x="229.5" y="699.5"/>
      <point x="151.5" y="666.5"/>
      <point x="142" y="599" type="curve" smooth="yes"/>
      <point x="132" y="530.5"/>
      <point x="222.5" y="505"/>
      <point x="271.5" y="483" type="curve" smooth="yes"/>
      <point x="329" y="457.5"/>
      <point x="401.5" y="426.5"/>
      <point x="392" y="359.5" type="curve" smooth="yes"/>
      <point x="379.5" y="275"/>
      <point x="300.5" y="244"/>
      <point x="213" y="240.5" type="curve"/>
      <point x="212.5" y="240.5" type="line"/>
      <point x="292" y="260.5"/>
      <point x="371.5" y="286"/>
      <point x="382" y="360.5" type="curve" smooth="yes"/>
      <point x="390" y="421"/>
      <point x="313" y="454"/>
      <point x="264" y="475" type="curve" smooth="yes"/>
      <point x="206.5" y="499.5"/>
      <point x="120.5" y="524"/>
      <point x="132" y="599" type="curve" smooth="yes"/>
      <point x="143" y="672"/>
      <point x="219" y="709.5"/>
      <point x="290.5" y="709.5" type="curve" smooth="yes"/>
      <point x="358" y="709.5"/>
      <point x="414.5" y="675"/>
      <point x="432" y="620" type="curve"/>
    </contour>
    <contour>
      <point x="31.5" y="127" type="line"/>
      <point x="39.5" y="57"/>
      <point x="99" y="1"/>
      <point x="181" y="0" type="curve" smooth="yes"/>
      <point x="244" y="-1"/>
      <point x="325.5" y="26.5"/>
      <point x="337.5" y="100" type="curve" smooth="yes"/>
      <point x="350" y="175.5"/>
      <point x="274" y="206"/>
      <point x="216" y="233" type="curve" smooth="yes"/>
      <point x="160.5" y="259.5"/>
      <point x="81" y="292"/>
      <point x="91" y="359.5" type="curve" smooth="yes"/>
      <point x="104" y="432"/>
      <point x="176.5" y="475"/>
      <point x="271" y="479.5" type="curve"/>
      <point x="271.5" y="479.5" type="line"/>
      <point x="187.5" y="462.5"/>
      <point x="111.5" y="423"/>
      <point x="101" y="358.5" type="curve" smooth="yes"/>
      <point x="92.5" y="295"/>
      <point x="175" y="263"/>
      <point x="223.5" y="241" type="curve" smooth="yes"/>
      <point x="284.5" y="213"/>
      <point x="360" y="181"/>
      <point x="347.5" y="100" type="curve" smooth="yes"/>
      <point x="335.5" y="24"/>
      <point x="256" y="-10"/>
      <point x="180.5" y="-9.5" type="curve" smooth="yes"/>
      <point x="97.5" y="-9"/>
      <point x="31" y="46.5"/>
      <point x="23" y="123" type="curve"/>
    </contour>
  </outline>
</glyph>
<glyph name="dieresis" format="1">
  <advance width="409"/>
  <unicode hex="00A8"/>
  <outline>
    <contour>
      <point x="380" y="689" type="curve" smooth="yes"/>
      <point x="380.5" y="694.5"/>
      <point x="386.5" y="700"/>
      <point x="392" y="700" type="curve" smooth="yes"/>
      <point x="397.5" y="700"/>
      <point x="402" y="695"/>
      <point x="401.5" y="689" type="curve" smooth="yes"/>
      <point x="401" y="683.5"/>
      <point x="394.5" y="678"/>
      <point x="389" y="678" type="curve" smooth="yes"/>
      <point x="383.5" y="678"/>
      <point x="379.5" y="683"/>
    </contour>
    <contour>
      <point x="186" y="689" type="curve" smooth="yes"/>
      <point x="186.5" y="694.5"/>
      <point x="192.5" y="700"/>
      <point x="198" y="700" type="curve" smooth="yes"/>
      <point x="203.5" y="700"/>
      <point x="208" y="695"/>
      <point x="207.5" y="689" type="curve" smooth="yes"/>
      <point x="207" y="683.5"/>
      <point x="200.5" y="678"/>
      <point x="195" y="678" type="curve" smooth="yes"/>
      <point x="189.5" y="678"/>
      <point x="185.5" y="683"/>
    </contour>
  </outline>
</glyph>
<glyph name="logicalnot" format="1">
  <advance width="601"/>
  <unicode hex="00AC"/>
  <outline>
    <contour>
      <point x="98" y="365" type="line"/>
      <point x="100" y="375" type="line"/>
      <point x="576" y="375" type="line"/>
      <point x="540.5" y="175.5" type="line"/>
      <point x="530.5" y="175.5" type="line"/>
      <point x="564.5" y="365" type="line"/>
    </contour>
  </outline>
</glyph>
<glyph name="macron" format="1">
  <advance width="494"/>
  <unicode hex="00AF"/>
  <outline>
    <contour>
      <point x="163" y="665" type="line"/>
      <point x="164.5" y="675" type="line"/>
      <point x="504" y="675" type="line"/>
      <point x="502.5" y="665" type="line"/>
    </contour>
  </outline>
</glyph>
<glyph name="plusminus" format="1">
  <advance width="591"/>
  <unicode hex="00B1"/>
  <outline>
    <contour>
      <point x="46" y="0" type="line"/>
      <point x="47.5" y="10" type="line"/>
      <point x="513.5" y="10" type="line"/>
      <point x="512" y="0" type="line"/>
    </contour>
    <contour>
      <point x="104.5" y="380" type="line"/>
      <point x="106" y="390" type="line"/>
      <point x="572" y="390" type="line"/>
      <point x="570.5" y="380" type="line"/>
    </contour>
    <contour>
      <point x="370" y="620" type="line"/>
      <point x="380" y="620" type="line"/>
      <point x="306.5" y="150" type="line"/>
      <point x="296.5" y="150" type="line"/>
    </contour>
  </outline>
</glyph>
<glyph name="mu" format="1">
  <advance width="460"/>
  <unicode hex="00B5"/>
  <outline>
    <contour>
      <point x="144.5" y="459.5" type="line"/>
      <point x="88.0225" y="141.156" type="line"/>
      <point x="80.5125" y="65.2774"/>
      <point x="98.9593" y="0.955008"/>
      <point x="184" y="0.5" type="curve" smooth="yes"/>
      <point x="277.682" y="-0.444736"/>
      <point x="355" y="82.5"/>
      <point x="369.455" y="172.143" type="curve" smooth="yes"/>
      <point x="420.5" y="459.5" type="line"/>
      <point x="430.5" y="459.5" type="line"/>
      <point x="351" y="0" type="line"/>
      <point x="341" y="0" type="line"/>
      <point x="361.447" y="122.245" type="line"/>
      <point x="332.144" y="48.5283"/>
      <point x="267.734" y="-10.3284"/>
      <point x="183" y="-9.5" type="curve" smooth="yes"/>
      <point x="116.301" y="-9.15581"/>
      <point x="87.3492" y="27.3022"/>
      <point x="79.4102" y="78.2477" type="curve"/>
      <point x="10" y="-319.5" type="line"/>
      <point x="0" y="-319.5" type="line"/>
      <point x="134.5" y="459.5" type="line"/>
    </contour>
  </outline>
</glyph>
<glyph name="paragraph" format="1">
  <advance width="434"/>
  <unicode hex="00B6"/>
  <outline>
    <contour>
      <point x="297.833" y="270.079" type="line"/>
      <point x="175.771" y="277.305"/>
      <point x="93.5847" y="356.217"/>
      <point x="113.5" y="485" type="curve" smooth="yes"/>
      <point x="135" y="618.5"/>
      <point x="244" y="700"/>
      <point x="371.5" y="700" type="curve" smooth="yes"/>
      <point x="469.5" y="700" type="line"/>
      <point x="311.5" y="-219.5" type="line"/>
      <point x="301.5" y="-219.5" type="line"/>
      <point x="457.951" y="690" type="line"/>
      <point x="380.946" y="690" type="line"/>
      <point x="224" y="-219.5" type="line"/>
      <point x="214" y="-219.5" type="line"/>
    </contour>
  </outline>
</glyph>
<glyph name="periodcentered" format="1">
  <advance width="234"/>
  <unicode hex="00B7"/>
  <outline>
    <contour>
      <point x="117" y="221" type="curve" smooth="yes"/>
      <point x="117.5" y="226.5"/>
      <point x="124" y="232"/>
      <point x="129.5" y="232" type="curve" smooth="yes"/>
      <point x="135" y="232"/>
      <point x="139.5" y="227"/>
      <point x="139" y="221" type="curve" smooth="yes"/>
      <point x="138.5" y="215.5"/>
      <point x="132" y="210"/>
      <point x="126.5" y="210" type="curve" smooth="yes"/>
      <point x="121" y="210"/>
      <point x="116.5" y="215"/>
    </contour>
  </outline>
</glyph>
<glyph name="uni00B9" format="1">
  <advance width="456"/>
  <unicode hex="00B9"/>
  <outline>
    <contour>
      <point x="225.5" y="666.5" type="line"/>
      <point x="226.5" y="673.5" type="line"/>
      <point x="336.5" y="697" type="line"/>
      <point x="262.5" y="274.5" type="line"/>
      <point x="256.5" y="274.5" type="line"/>
      <point x="328" y="688.5" type="line"/>
    </contour>
  </outline>
</glyph>
<glyph name="ordmasculine" format="1">
  <advance width="269"/>
  <unicode hex="00BA"/>
  <outline>
    <contour>
      <point x="91" y="580.5" type="curve" smooth="yes"/>
      <point x="101" y="646"/>
      <point x="159.5" y="700"/>
      <point x="227" y="699.5" type="curve" smooth="yes"/>
      <point x="294" y="699"/>
      <point x="332" y="643"/>
      <point x="322.5" y="579.5" type="curve" smooth="yes"/>
      <point x="312.5" y="514"/>
      <point x="254" y="460"/>
      <point x="186.5" y="460.5" type="curve" smooth="yes"/>
      <point x="119.5" y="461"/>
      <point x="81.5" y="517"/>
    </contour>
    <contour>
      <point x="100.5" y="580" type="curve" smooth="yes"/>
      <point x="91.5" y="522"/>
      <point x="127" y="471.5"/>
      <point x="187" y="470.5" type="curve" smooth="yes"/>
      <point x="247.5" y="469.5"/>
      <point x="303.5" y="520"/>
      <point x="313" y="580" type="curve" smooth="yes"/>
      <point x="322" y="638"/>
      <point x="286.5" y="688.5"/>
      <point x="226.5" y="689.5" type="curve" smooth="yes"/>
      <point x="166" y="690.5"/>
      <point x="110" y="640"/>
    </contour>
  </outline>
</glyph>
<glyph name="guillemotright" format="1">
  <advance width="470"/>
  <unicode hex="00BB"/>
  <outline>
    <contour>
      <point x="283.5" y="255" type="line"/>
      <point x="123" y="483" type="line"/>
      <point x="130.5" y="490" type="line"/>
      <point x="293.5" y="254" type="line"/>
      <point x="50.5" y="21" type="line"/>
      <point x="45" y="28" type="line"/>
    </contour>
    <contour>
      <point x="439" y="255" type="line"/>
      <point x="278.5" y="483" type="line"/>
      <point x="286" y="490" type="line"/>
      <point x="448.5" y="254" type="line"/>
      <point x="206" y="21" type="line"/>
      <point x="200" y="28" type="line"/>
    </contour>
  </outline>
</glyph>
<glyph name="onequarter" format="1">
  <advance width="731"/>
  <unicode hex="00BC"/>
  <outline>
    <contour>
      <point x="743.5" y="699" type="line"/>
      <point x="755.5" y="699" type="line"/>
      <point x="79.5" y="0" type="line"/>
      <point x="67.5" y="0" type="line"/>
    </contour>
    <contour>
      <point x="107" y="666.5" type="line"/>
      <point x="108" y="673.5" type="line"/>
      <point x="218" y="697" type="line"/>
      <point x="144" y="274.5" type="line"/>
      <point x="138" y="274.5" type="line"/>
      <point x="209.5" y="688.5" type="line"/>
    </contour>
    <contour>
      <point x="376.5" y="84" type="line"/>
      <point x="383" y="90" type="line"/>
      <point x="596.5" y="90" type="line"/>
      <point x="598.5" y="90" type="line"/>
      <point x="664.5" y="90" type="line"/>
      <point x="664" y="84" type="line"/>
    </contour>
    <contour>
      <point x="382.5" y="85" type="line"/>
      <point x="375.5" y="85" type="line"/>
      <point x="657" y="418.5" type="line"/>
      <point x="656.5" y="419.5" type="line"/>
      <point x="585" y="0" type="line"/>
      <point x="579" y="0" type="line"/>
      <point x="594" y="85" type="line"/>
      <point x="594" y="88" type="line"/>
      <point x="648" y="398.5" type="line"/>
    </contour>
  </outline>
</glyph>
<glyph name="threequarters" format="1">
  <advance width="795"/>
  <unicode hex="00BE"/>
  <outline>
    <contour>
      <point x="808.5" y="699" type="line"/>
      <point x="821" y="699" type="line"/>
      <point x="144.5" y="0" type="line"/>
      <point x="132.5" y="0" type="line"/>
    </contour>
    <contour>
      <point x="198" y="497.5" type="curve"/>
      <point x="199" y="502.5" type="line"/>
      <point x="256" y="507.5"/>
      <point x="326" y="537.5"/>
      <point x="337.5" y="600" type="curve" smooth="yes"/>
      <point x="346.5" y="649.5"/>
      <point x="314" y="698.5"/>
      <point x="254" y="699.5" type="curve" smooth="yes"/>
      <point x="189" y="700.5"/>
      <point x="146" y="653"/>
      <point x="131" y="597" type="curve"/>
      <point x="125" y="597" type="line"/>
      <point x="140.5" y="657"/>
      <point x="185.5" y="706.5"/>
      <point x="254.5" y="705.5" type="curve" smooth="yes"/>
      <point x="319.5" y="704.5"/>
      <point x="353" y="652.5"/>
      <point x="343.5" y="599.5" type="curve" smooth="yes"/>
      <point x="331.5" y="533.5"/>
      <point x="261.5" y="502"/>
    </contour>
    <contour>
      <point x="178" y="274.5" type="curve" smooth="yes"/>
      <point x="101" y="275"/>
      <point x="68.5" y="327"/>
      <point x="73.5" y="391" type="curve"/>
      <point x="79.5" y="391" type="line"/>
      <point x="75" y="329"/>
      <point x="103.5" y="281"/>
      <point x="178" y="280.5" type="curve" smooth="yes"/>
      <point x="245" y="280"/>
      <point x="303" y="324.5"/>
      <point x="312.5" y="385" type="curve" smooth="yes"/>
      <point x="323.5" y="457"/>
      <point x="254" y="490"/>
      <point x="198" y="495.5" type="curve"/>
      <point x="199" y="500.5" type="line"/>
      <point x="261.5" y="495"/>
      <point x="330" y="459.5"/>
      <point x="318.5" y="384.5" type="curve" smooth="yes"/>
      <point x="308.5" y="320.5"/>
      <point x="248" y="274"/>
    </contour>
    <contour>
      <point x="441.5" y="84" type="line"/>
      <point x="448" y="90" type="line"/>
      <point x="661.5" y="90" type="line"/>
      <point x="663.5" y="90" type="line"/>
      <point x="729.5" y="90" type="line"/>
      <point x="729" y="84" type="line"/>
    </contour>
    <contour>
      <point x="448" y="85" type="line"/>
      <point x="440.5" y="85" type="line"/>
      <point x="722" y="418.5" type="line"/>
      <point x="721.5" y="419.5" type="line"/>
      <point x="650" y="0" type="line"/>
      <point x="644" y="0" type="line"/>
      <point x="659" y="85" type="line"/>
      <point x="659.5" y="88" type="line"/>
      <point x="713" y="398.5" type="line"/>
    </contour>
  </outline>
</glyph>
<glyph name="Agrave" format="1">
  <advance width="582"/>
  <unicode hex="00C0"/>
  <outline>
    <contour>
      <point x="142.5" y="272" type="line"/>
      <point x="144" y="282" type="line"/>
      <point x="479" y="282" type="line"/>
      <point x="477.5" y="272" type="line"/>
    </contour>
    <contour>
      <point x="382.5" y="688" type="line"/>
      <point x="152.5" y="277" type="line"/>
      <point x="151" y="273" type="line"/>
      <point x="-1.5" y="0" type="line"/>
      <point x="-13.5" y="0" type="line"/>
      <point x="386.5" y="715" type="line"/>
      <point x="540.5" y="0" type="line"/>
      <point x="528.5" y="0" type="line"/>
      <point x="472" y="273" type="line"/>
      <point x="471.5" y="276" type="line"/>
    </contour>
    <contour>
      <point x="290.5" y="932" type="line"/>
      <point x="299.5" y="939.5" type="line"/>
      <point x="438.5" y="780" type="line"/>
      <point x="434" y="775.5" type="line"/>
    </contour>
  </outline>
</glyph>
<glyph name="Adieresis" format="1">
  <advance width="582"/>
  <unicode hex="00C4"/>
  <outline>
    <contour>
      <point x="142.5" y="272" type="line"/>
      <point x="144" y="282" type="line"/>
      <point x="479" y="282" type="line"/>
      <point x="477.5" y="272" type="line"/>
    </contour>
    <contour>
      <point x="382.5" y="688" type="line"/>
      <point x="152.5" y="277" type="line"/>
      <point x="151" y="273" type="line"/>
      <point x="-1.5" y="0" type="line"/>
      <point x="-13.5" y="0" type="line"/>
      <point x="386.5" y="715" type="line"/>
      <point x="540.5" y="0" type="line"/>
      <point x="528.5" y="0" type="line"/>
      <point x="472" y="273" type="line"/>
      <point x="471.5" y="276" type="line"/>
    </contour>
    <contour>
      <point x="488" y="806" type="curve" smooth="yes"/>
      <point x="488.5" y="811.5"/>
      <point x="495" y="817"/>
      <point x="500.5" y="817" type="curve" smooth="yes"/>
      <point x="506" y="817"/>
      <point x="510" y="812"/>
      <point x="509.5" y="806" type="curve" smooth="yes"/>
      <point x="509" y="800.5"/>
      <point x="502.5" y="795"/>
      <point x="497" y="795" type="curve" smooth="yes"/>
      <point x="491.5" y="795"/>
      <point x="487.5" y="800"/>
    </contour>
    <contour>
      <point x="293.5" y="806" type="curve" smooth="yes"/>
      <point x="294" y="811.5"/>
      <point x="300.5" y="817"/>
      <point x="306" y="817" type="curve" smooth="yes"/>
      <point x="311.5" y="817"/>
      <point x="316" y="812"/>
      <point x="315.5" y="806" type="curve" smooth="yes"/>
      <point x="315" y="800.5"/>
      <point x="308.5" y="795"/>
      <point x="303" y="795" type="curve" smooth="yes"/>
      <point x="297.5" y="795"/>
      <point x="293" y="800"/>
    </contour>
  </outline>
</glyph>
<glyph name="Ecircumflex" format="1">
  <advance width="494"/>
  <unicode hex="00CA"/>
  <outline>
    <contour>
      <point x="62" y="0" type="line"/>
      <point x="63.5" y="10" type="line"/>
      <point x="392" y="10" type="line"/>
      <point x="390.5" y="0" type="line"/>
    </contour>
    <contour>
      <point x="180" y="690" type="line"/>
      <point x="181.5" y="700" type="line"/>
      <point x="509.5" y="700" type="line"/>
      <point x="508" y="690" type="line"/>
    </contour>
    <contour>
      <point x="127.5" y="384" type="line"/>
      <point x="129.5" y="394" type="line"/>
      <point x="438" y="394" type="line"/>
      <point x="436.5" y="384" type="line"/>
    </contour>
    <contour>
      <point x="180" y="699.5" type="line"/>
      <point x="191" y="699.5" type="line"/>
      <point x="70.5" y="0" type="line"/>
      <point x="59.5" y="0" type="line"/>
    </contour>
    <contour>
      <point x="380" y="902.5" type="line"/>
      <point x="207.5" y="769" type="line"/>
      <point x="201.5" y="776" type="line"/>
      <point x="381" y="914.5" type="line"/>
      <point x="513" y="775" type="line"/>
      <point x="505.5" y="768" type="line"/>
    </contour>
  </outline>
</glyph>
<glyph name="Igrave" format="1">
  <advance width="174"/>
  <unicode hex="00CC"/>
  <outline>
    <contour>
      <point x="175.5" y="699.5" type="line"/>
      <point x="185.5" y="699.5" type="line"/>
      <point x="64.5" y="0" type="line"/>
      <point x="54.5" y="0" type="line"/>
    </contour>
    <contour>
      <point x="66.5" y="925" type="line"/>
      <point x="75" y="932.5" type="line"/>
      <point x="214" y="773" type="line"/>
      <point x="209.5" y="768.5" type="line"/>
    </contour>
  </outline>
</glyph>
<glyph name="Iacute" format="1">
  <advance width="174"/>
  <unicode hex="00CD"/>
  <outline>
    <contour>
      <point x="175.5" y="699.5" type="line"/>
      <point x="185.5" y="699.5" type="line"/>
      <point x="64.5" y="0" type="line"/>
      <point x="54.5" y="0" type="line"/>
    </contour>
    <contour>
      <point x="370" y="924" type="line"/>
      <point x="173.5" y="769" type="line"/>
      <point x="170" y="774" type="line"/>
      <point x="363.5" y="932" type="line"/>
    </contour>
  </outline>
</glyph>
<glyph name="Icircumflex" format="1">
  <advance width="174"/>
  <unicode hex="00CE"/>
  <outline>
    <contour>
      <point x="175.5" y="699.5" type="line"/>
      <point x="185.5" y="699.5" type="line"/>
      <point x="64.5" y="0" type="line"/>
      <point x="54.5" y="0" type="line"/>
    </contour>
    <contour>
      <point x="215" y="902.5" type="line"/>
      <point x="42.5" y="769" type="line"/>
      <point x="36.5" y="776" type="line"/>
      <point x="216" y="914.5" type="line"/>
      <point x="348" y="775" type="line"/>
      <point x="340.5" y="768" type="line"/>
    </contour>
  </outline>
</glyph>
<glyph name="Ntilde" format="1">
  <advance width="645"/>
  <unicode hex="00D1"/>
  <outline>
    <contour>
      <point x="659.5" y="699.5" type="line"/>
      <point x="670.5" y="699.5" type="line"/>
      <point x="547.5" y="-15" type="line"/>
      <point x="148.5" y="678" type="line"/>
      <point x="31.5" y="0" type="line"/>
      <point x="20.5" y="0" type="line"/>
      <point x="143.5" y="715" type="line"/>
      <point x="542" y="17" type="line"/>
    </contour>
    <contour>
      <point x="299.75" y="756.5" type="line"/>
      <point x="309.25" y="784.5"/>
      <point x="328.75" y="813.5"/>
      <point x="369.75" y="813.5" type="curve" smooth="yes"/>
      <point x="417.25" y="813.5"/>
      <point x="435.25" y="766.5"/>
      <point x="482.25" y="767.5" type="curve" smooth="yes"/>
      <point x="511.25" y="768"/>
      <point x="528.25" y="789"/>
      <point x="545.25" y="814.5" type="curve"/>
      <point x="554.25" y="811.5" type="line"/>
      <point x="535.75" y="782"/>
      <point x="512.75" y="759.5"/>
      <point x="480.75" y="759.5" type="curve" smooth="yes"/>
      <point x="433.75" y="759.5"/>
      <point x="413.25" y="805"/>
      <point x="371.25" y="805.5" type="curve" smooth="yes"/>
      <point x="334.25" y="806"/>
      <point x="317.25" y="780"/>
      <point x="308.75" y="755.5" type="curve"/>
    </contour>
  </outline>
</glyph>
<glyph name="Oacute" format="1">
  <advance width="751"/>
  <unicode hex="00D3"/>
  <outline>
    <contour>
      <point x="92" y="350" type="curve" smooth="yes"/>
      <point x="65.5" y="171.5"/>
      <point x="156.5" y="3.5"/>
      <point x="348.5" y="3" type="curve" smooth="yes"/>
      <point x="542.5" y="2.5"/>
      <point x="694.5" y="161.5"/>
      <point x="724.5" y="350" type="curve" smooth="yes"/>
      <point x="751" y="528.5"/>
      <point x="660" y="696.5"/>
      <point x="468" y="697" type="curve" smooth="yes"/>
      <point x="274" y="697.5"/>
      <point x="122" y="538.5"/>
    </contour>
    <contour>
      <point x="81" y="350" type="curve" smooth="yes"/>
      <point x="111.5" y="545.5"/>
      <point x="270.5" y="708.5"/>
      <point x="468.5" y="708" type="curve" smooth="yes"/>
      <point x="664.5" y="707.5"/>
      <point x="762.5" y="535.5"/>
      <point x="735.5" y="350" type="curve" smooth="yes"/>
      <point x="705" y="154.5"/>
      <point x="546" y="-8.5"/>
      <point x="348" y="-8" type="curve" smooth="yes"/>
      <point x="152" y="-7.5"/>
      <point x="54" y="164.5"/>
    </contour>
    <contour>
      <point x="638" y="924" type="line"/>
      <point x="443.5" y="769" type="line"/>
      <point x="438" y="774" type="line"/>
      <point x="631" y="932" type="line"/>
    </contour>
  </outline>
</glyph>
<glyph name="Otilde" format="1">
  <advance width="751"/>
  <unicode hex="00D5"/>
  <outline>
    <contour>
      <point x="92" y="350" type="curve" smooth="yes"/>
      <point x="65.5" y="171.5"/>
      <point x="156.5" y="3.5"/>
      <point x="348.5" y="3" type="curve" smooth="yes"/>
      <point x="542.5" y="2.5"/>
      <point x="694.5" y="161.5"/>
      <point x="724.5" y="350" type="curve" smooth="yes"/>
      <point x="751" y="528.5"/>
      <point x="660" y="696.5"/>
      <point x="468" y="697" type="curve" smooth="yes"/>
      <point x="274" y="697.5"/>
      <point x="122" y="538.5"/>
    </contour>
    <contour>
      <point x="81" y="350" type="curve" smooth="yes"/>
      <point x="111.5" y="545.5"/>
      <point x="270.5" y="708.5"/>
      <point x="468.5" y="708" type="curve" smooth="yes"/>
      <point x="664.5" y="707.5"/>
      <point x="762.5" y="535.5"/>
      <point x="735.5" y="350" type="curve" smooth="yes"/>
      <point x="705" y="154.5"/>
      <point x="546" y="-8.5"/>
      <point x="348" y="-8" type="curve" smooth="yes"/>
      <point x="152" y="-7.5"/>
      <point x="54" y="164.5"/>
    </contour>
    <contour>
      <point x="361" y="789.5" type="line"/>
      <point x="370" y="817"/>
      <point x="390" y="846.5"/>
      <point x="431.5" y="846.5" type="curve" smooth="yes"/>
      <point x="479.006" y="846.5"/>
      <point x="496.5" y="799.5"/>
      <point x="543.5" y="800.5" type="curve" smooth="yes"/>
      <point x="572.5" y="801"/>
      <point x="590" y="822"/>
      <point x="607" y="847.5" type="curve"/>
      <point x="614.5" y="844.5" type="line"/>
      <point x="596" y="815"/>
      <point x="573.5" y="792.5"/>
      <point x="541.5" y="792.5" type="curve" smooth="yes"/>
      <point x="494.5" y="792.5"/>
      <point x="474.5" y="838"/>
      <point x="433" y="838.5" type="curve" smooth="yes"/>
      <point x="395.5" y="839"/>
      <point x="378" y="813"/>
      <point x="369" y="788.5" type="curve"/>
    </contour>
  </outline>
</glyph>
<glyph name="Odieresis" format="1">
  <advance width="751"/>
  <unicode hex="00D6"/>
  <outline>
    <contour>
      <point x="92" y="350" type="curve" smooth="yes"/>
      <point x="65.5" y="171.5"/>
      <point x="156.5" y="3.5"/>
      <point x="348.5" y="3" type="curve" smooth="yes"/>
      <point x="542.5" y="2.5"/>
      <point x="694.5" y="161.5"/>
      <point x="724.5" y="350" type="curve" smooth="yes"/>
      <point x="751" y="528.5"/>
      <point x="660" y="696.5"/>
      <point x="468" y="697" type="curve" smooth="yes"/>
      <point x="274" y="697.5"/>
      <point x="122" y="538.5"/>
    </contour>
    <contour>
      <point x="81" y="350" type="curve" smooth="yes"/>
      <point x="111.5" y="545.5"/>
      <point x="270.5" y="708.5"/>
      <point x="468.5" y="708" type="curve" smooth="yes"/>
      <point x="664.5" y="707.5"/>
      <point x="762.5" y="535.5"/>
      <point x="735.5" y="350" type="curve" smooth="yes"/>
      <point x="705" y="154.5"/>
      <point x="546" y="-8.5"/>
      <point x="348" y="-8" type="curve" smooth="yes"/>
      <point x="152" y="-7.5"/>
      <point x="54" y="164.5"/>
    </contour>
    <contour>
      <point x="582.5" y="809" type="curve" smooth="yes"/>
      <point x="583" y="814.5"/>
      <point x="589.5" y="820"/>
      <point x="595" y="820" type="curve" smooth="yes"/>
      <point x="600.5" y="820"/>
      <point x="604.5" y="815"/>
      <point x="604" y="809" type="curve" smooth="yes"/>
      <point x="603.5" y="803.5"/>
      <point x="597" y="798"/>
      <point x="591.5" y="798" type="curve" smooth="yes"/>
      <point x="586" y="798"/>
      <point x="582" y="803"/>
    </contour>
    <contour>
      <point x="369" y="809" type="curve" smooth="yes"/>
      <point x="369.5" y="814.5"/>
      <point x="376" y="820"/>
      <point x="381.5" y="820" type="curve" smooth="yes"/>
      <point x="387" y="820"/>
      <point x="391" y="815"/>
      <point x="390.5" y="809" type="curve" smooth="yes"/>
      <point x="390" y="803.5"/>
      <point x="383.5" y="798"/>
      <point x="378" y="798" type="curve" smooth="yes"/>
      <point x="372.5" y="798"/>
      <point x="368.5" y="803"/>
    </contour>
  </outline>
</glyph>
<glyph name="Udieresis" format="1">
  <advance width="558"/>
  <unicode hex="00DC"/>
  <outline>
    <contour>
      <point x="175.5" y="699.5" type="line"/>
      <point x="186" y="699.5" type="line"/>
      <point x="103.5" y="220" type="line" smooth="yes"/>
      <point x="88.5" y="104"/>
      <point x="129" y="2"/>
      <point x="252" y="1.5" type="curve" smooth="yes"/>
      <point x="375" y="1"/>
      <point x="456" y="98"/>
      <point x="476" y="220" type="curve" smooth="yes"/>
      <point x="558.5" y="699.5" type="line"/>
      <point x="569.5" y="699.5" type="line"/>
      <point x="487.5" y="220" type="line" smooth="yes"/>
      <point x="466.5" y="92.5"/>
      <point x="386" y="-10"/>
      <point x="251.5" y="-9.5" type="curve" smooth="yes"/>
      <point x="117" y="-9"/>
      <point x="77" y="98.5"/>
      <point x="93" y="220" type="curve" smooth="yes"/>
    </contour>
    <contour>
      <point x="462" y="779" type="curve" smooth="yes"/>
      <point x="462.5" y="784.5"/>
      <point x="469" y="790"/>
      <point x="474.5" y="790" type="curve" smooth="yes"/>
      <point x="480" y="790"/>
      <point x="484" y="785"/>
      <point x="483.5" y="779" type="curve" smooth="yes"/>
      <point x="483" y="773.5"/>
      <point x="476.5" y="768"/>
      <point x="471" y="768" type="curve" smooth="yes"/>
      <point x="465.5" y="768"/>
      <point x="461.5" y="773"/>
    </contour>
    <contour>
      <point x="287" y="779" type="curve" smooth="yes"/>
      <point x="287.5" y="784.5"/>
      <point x="294" y="790"/>
      <point x="299.5" y="790" type="curve" smooth="yes"/>
      <point x="305" y="790"/>
      <point x="309.5" y="785"/>
      <point x="309" y="779" type="curve" smooth="yes"/>
      <point x="308.5" y="773.5"/>
      <point x="302" y="768"/>
      <point x="296.5" y="768" type="curve" smooth="yes"/>
      <point x="291" y="768"/>
      <point x="286.5" y="773"/>
    </contour>
  </outline>
</glyph>
<glyph name="germandbls" format="1">
  <advance width="530"/>
  <unicode hex="00DF"/>
  <outline>
    <contour>
      <point x="285" y="-10" type="curve" smooth="yes"/>
      <point x="229" y="-10"/>
      <point x="167" y="12"/>
      <point x="135" y="46" type="curve"/>
      <point x="142" y="52" type="line"/>
      <point x="174" y="20"/>
      <point x="231" y="0"/>
      <point x="285" y="0" type="curve" smooth="yes"/>
      <point x="396" y="0"/>
      <point x="481" y="106"/>
      <point x="481" y="230" type="curve" smooth="yes"/>
      <point x="481" y="394"/>
      <point x="325" y="342"/>
      <point x="325" y="430" type="curve" smooth="yes"/>
      <point x="325" y="499"/>
      <point x="486" y="513"/>
      <point x="486" y="653" type="curve" smooth="yes"/>
      <point x="486" y="730"/>
      <point x="429" y="784"/>
      <point x="353" y="784" type="curve" smooth="yes"/>
      <point x="257" y="784"/>
      <point x="177.875" y="689.836"/>
      <point x="160" y="580" type="curve" smooth="yes"/>
      <point x="60" y="0" type="line"/>
      <point x="50" y="0" type="line"/>
      <point x="149" y="577.5" type="line" smooth="yes"/>
      <point x="168.071" y="695.864"/>
      <point x="251" y="794"/>
      <point x="353" y="794" type="curve" smooth="yes"/>
      <point x="434" y="794"/>
      <point x="496" y="738"/>
      <point x="496" y="653" type="curve" smooth="yes"/>
      <point x="496" y="506"/>
      <point x="335" y="494"/>
      <point x="335" y="429" type="curve" smooth="yes"/>
      <point x="335" y="353"/>
      <point x="491" y="400"/>
      <point x="491" y="232" type="curve" smooth="yes"/>
      <point x="491" y="98"/>
      <point x="401" y="-10"/>
    </contour>
  </outline>
</glyph>
<glyph name="adieresis" format="1">
  <advance width="422"/>
  <unicode hex="00E4"/>
  <outline>
    <contour>
      <point x="44.5" y="135" type="curve" smooth="yes"/>
      <point x="32" y="51"/>
      <point x="86" y="0.5"/>
      <point x="159.5" y="0.5" type="curve" smooth="yes"/>
      <point x="253" y="0.5"/>
      <point x="324.5" y="76.5"/>
      <point x="345.5" y="159" type="curve"/>
      <point x="350.5" y="159" type="line"/>
      <point x="330" y="72.5"/>
      <point x="261" y="-9.5"/>
      <point x="159" y="-9.5" type="curve" smooth="yes"/>
      <point x="80" y="-9.5"/>
      <point x="21.5" y="45.5"/>
      <point x="34.5" y="135.5" type="curve" smooth="yes"/>
      <point x="50" y="228.5"/>
      <point x="144" y="280.5"/>
      <point x="235" y="280.5" type="curve" smooth="yes"/>
      <point x="297" y="280.5"/>
      <point x="334" y="259"/>
      <point x="361" y="235" type="curve"/>
      <point x="359" y="225.5" type="line"/>
      <point x="331" y="251.5"/>
      <point x="290.5" y="270.5"/>
      <point x="234" y="270.5" type="curve" smooth="yes"/>
      <point x="150" y="270.5"/>
      <point x="59.5" y="222.5"/>
    </contour>
    <contour>
      <point x="121.5" y="395.5" type="curve"/>
      <point x="116" y="404" type="line"/>
      <point x="157.5" y="435.5"/>
      <point x="211" y="470.5"/>
      <point x="278.5" y="469.5" type="curve" smooth="yes"/>
      <point x="367" y="468"/>
      <point x="392" y="399"/>
      <point x="382" y="320" type="curve" smooth="yes"/>
      <point x="326.5" y="0" type="line"/>
      <point x="316.5" y="0" type="line"/>
      <point x="372.5" y="320" type="line" smooth="yes"/>
      <point x="382" y="395"/>
      <point x="360" y="458"/>
      <point x="278" y="459.5" type="curve" smooth="yes"/>
      <point x="215" y="461"/>
      <point x="164" y="428.5"/>
    </contour>
    <contour>
      <point x="352" y="561" type="curve" smooth="yes"/>
      <point x="352.5" y="566.5"/>
      <point x="359" y="572"/>
      <point x="364.5" y="572" type="curve" smooth="yes"/>
      <point x="370" y="572"/>
      <point x="374" y="567"/>
      <point x="373.5" y="561" type="curve" smooth="yes"/>
      <point x="373" y="555.5"/>
      <point x="366.5" y="550"/>
      <point x="361" y="550" type="curve" smooth="yes"/>
      <point x="355.5" y="550"/>
      <point x="351.5" y="555"/>
    </contour>
    <contour>
      <point x="196.5" y="561" type="curve" smooth="yes"/>
      <point x="197" y="566.5"/>
      <point x="203.5" y="572"/>
      <point x="209" y="572" type="curve" smooth="yes"/>
      <point x="214.5" y="572"/>
      <point x="218.5" y="567"/>
      <point x="218" y="561" type="curve" smooth="yes"/>
      <point x="217.5" y="555.5"/>
      <point x="211" y="550"/>
      <point x="205.5" y="550" type="curve" smooth="yes"/>
      <point x="200" y="550"/>
      <point x="196" y="555"/>
    </contour>
  </outline>
</glyph>
<glyph name="ae" format="1">
  <advance width="825"/>
  <unicode hex="00E6"/>
  <outline>
    <contour>
      <point x="157.5" y="-10" type="curve" smooth="yes"/>
      <point x="67.5" y="-10"/>
      <point x="13.5" y="50"/>
      <point x="27" y="132" type="curve" smooth="yes"/>
      <point x="42" y="222"/>
      <point x="126" y="281"/>
      <point x="237" y="281" type="curve" smooth="yes"/>
      <point x="294" y="281"/>
      <point x="341" y="263"/>
      <point x="364" y="234" type="curve"/>
      <point x="359" y="233" type="line"/>
      <point x="373.5" y="320" type="line" smooth="yes"/>
      <point x="388.5" y="411"/>
      <point x="358" y="460"/>
      <point x="280" y="460" type="curve" smooth="yes"/>
      <point x="226" y="460"/>
      <point x="164" y="437"/>
      <point x="115" y="395" type="curve"/>
      <point x="109.5" y="403" type="line"/>
      <point x="160.5" y="445"/>
      <point x="223.5" y="470"/>
      <point x="281.5" y="470" type="curve" smooth="yes"/>
      <point x="373.5" y="470"/>
      <point x="404" y="408"/>
      <point x="376" y="282" type="curve"/>
      <point x="372" y="282" type="line"/>
      <point x="410" y="391"/>
      <point x="515" y="470"/>
      <point x="624" y="470" type="curve" smooth="yes"/>
      <point x="738" y="470"/>
      <point x="814.5" y="374"/>
      <point x="794.5" y="253" type="curve" smooth="yes"/>
      <point x="793" y="243"/>
      <point x="791" y="241"/>
      <point x="787" y="228" type="curve"/>
      <point x="364" y="228" type="line"/>
      <point x="369.5" y="230" type="line"/>
      <point x="345" y="90"/>
      <point x="408" y="0"/>
      <point x="528" y="0" type="curve" smooth="yes"/>
      <point x="612" y="0"/>
      <point x="696" y="41"/>
      <point x="755" y="113" type="curve"/>
      <point x="762" y="107" type="line"/>
      <point x="704.5" y="33"/>
      <point x="619" y="-10"/>
      <point x="529" y="-10" type="curve" smooth="yes"/>
      <point x="417" y="-10"/>
      <point x="353" y="58"/>
      <point x="356" y="178" type="curve"/>
      <point x="361" y="178" type="line"/>
      <point x="329" y="59"/>
      <point x="253.5" y="-10"/>
    </contour>
    <contour>
      <point x="157.5" y="0" type="curve" smooth="yes"/>
      <point x="251.5" y="0"/>
      <point x="327" y="73"/>
      <point x="358" y="198" type="curve"/>
      <point x="354" y="179" type="line"/>
      <point x="358.5" y="230" type="line"/>
      <point x="360.5" y="224" type="line"/>
      <point x="338.5" y="253"/>
      <point x="292.5" y="271"/>
      <point x="236.5" y="271" type="curve" smooth="yes"/>
      <point x="132.5" y="271"/>
      <point x="50.5" y="214"/>
      <point x="37" y="132" type="curve" smooth="yes"/>
      <point x="24.5" y="56"/>
      <point x="74.5" y="0"/>
    </contour>
    <contour>
      <point x="369.5" y="236" type="curve"/>
      <point x="366" y="238" type="line"/>
      <point x="786" y="238" type="line"/>
      <point x="778" y="234" type="line"/>
      <point x="780.5" y="238"/>
      <point x="781.5" y="244"/>
      <point x="783" y="252" type="curve" smooth="yes"/>
      <point x="802.5" y="368"/>
      <point x="731" y="460"/>
      <point x="621" y="460" type="curve" smooth="yes"/>
      <point x="503" y="460"/>
      <point x="390" y="360"/>
    </contour>
  </outline>
</glyph>
<glyph name="ccedilla" format="1">
  <advance width="473"/>
  <unicode hex="00E7"/>
  <outline>
    <contour>
      <point x="60.5" y="230" type="curve" smooth="yes"/>
      <point x="42.5" y="110.5"/>
      <point x="111.5" y="1"/>
      <point x="237.5" y="0.5" type="curve" smooth="yes"/>
      <point x="305" y="0.5"/>
      <point x="363" y="32"/>
      <point x="399" y="60" type="curve"/>
      <point x="397" y="47.5" type="line"/>
      <point x="361" y="19"/>
      <point x="303" y="-9.5"/>
      <point x="236.5" y="-9.5" type="curve" smooth="yes"/>
      <point x="104" y="-9.5"/>
      <point x="32" y="105"/>
      <point x="50.5" y="230" type="curve" smooth="yes"/>
      <point x="71" y="361.5"/>
      <point x="183.5" y="470"/>
      <point x="317.5" y="469.5" type="curve" smooth="yes"/>
      <point x="379.5" y="469.5"/>
      <point x="431" y="443"/>
      <point x="459" y="412" type="curve"/>
      <point x="457" y="399.5" type="line"/>
      <point x="430.5" y="431"/>
      <point x="379.5" y="459.5"/>
      <point x="317" y="459.5" type="curve" smooth="yes"/>
      <point x="189.5" y="459.5"/>
      <point x="81" y="356"/>
    </contour>
    <contour>
      <point x="231.5" y="-3.5" type="line"/>
      <point x="244" y="-3.5" type="line"/>
      <point x="175.5" y="-78.5" type="line"/>
      <point x="199.5" y="-65.5"/>
      <point x="218.5" y="-54"/>
      <point x="247.5" y="-55.5" type="curve" smooth="yes"/>
      <point x="283.5" y="-57.5"/>
      <point x="311.5" y="-87"/>
      <point x="306.5" y="-129.5" type="curve" smooth="yes"/>
      <point x="299.5" y="-186.5"/>
      <point x="240.5" y="-223"/>
      <point x="186.5" y="-222.5" type="curve" smooth="yes"/>
      <point x="152" y="-222.5"/>
      <point x="130.5" y="-209.5"/>
      <point x="106" y="-185" type="curve"/>
      <point x="113.5" y="-179" type="line"/>
      <point x="137" y="-200"/>
      <point x="157" y="-212.5"/>
      <point x="187.5" y="-212.5" type="curve" smooth="yes"/>
      <point x="235" y="-212.5"/>
      <point x="289.5" y="-181"/>
      <point x="296.5" y="-129" type="curve" smooth="yes"/>
      <point x="301" y="-92"/>
      <point x="277.5" y="-67.5"/>
      <point x="246.5" y="-65.5" type="curve" smooth="yes"/>
      <point x="217" y="-63.5"/>
      <point x="187.5" y="-77"/>
      <point x="163" y="-90.5" type="curve"/>
    </contour>
  </outline>
</glyph>
<glyph name="ecircumflex" format="1">
  <advance width="487"/>
  <unicode hex="00EA"/>
  <outline>
    <contour>
      <point x="68.5" y="228" type="line"/>
      <point x="70" y="238" type="line"/>
      <point x="451.5" y="238" type="line"/>
      <point x="474" y="343.5"/>
      <point x="416" y="458"/>
      <point x="302" y="459" type="curve" smooth="yes"/>
      <point x="187" y="460"/>
      <point x="90" y="357"/>
      <point x="71.5" y="233" type="curve"/>
      <point x="72" y="232.5" type="line"/>
      <point x="60.5" y="118.5"/>
      <point x="108.501" y="1.54834"/>
      <point x="225" y="0.5" type="curve" smooth="yes"/>
      <point x="325.497" y="-0.20166"/>
      <point x="384" y="59"/>
      <point x="428.5" y="112.5" type="curve"/>
      <point x="436" y="106" type="line"/>
      <point x="390.5" y="51.5"/>
      <point x="332.01" y="-9.85156"/>
      <point x="224.5" y="-9.5" type="curve" smooth="yes"/>
      <point x="103" y="-9"/>
      <point x="47.5" y="112.5"/>
      <point x="62" y="232" type="curve" smooth="yes"/>
      <point x="66" y="258.5"/>
      <point x="73" y="284"/>
      <point x="83.5" y="308" type="curve" smooth="yes"/>
      <point x="121" y="396.5"/>
      <point x="202.5" y="470"/>
      <point x="302" y="469.5" type="curve" smooth="yes"/>
      <point x="412" y="468.5"/>
      <point x="479.5" y="364.5"/>
      <point x="465.5" y="254" type="curve" smooth="yes"/>
      <point x="464" y="245.5"/>
      <point x="461.5" y="236"/>
      <point x="459.5" y="228" type="curve"/>
    </contour>
    <contour>
      <point x="330.365" y="664.005" type="line"/>
      <point x="157.865" y="530.505" type="line"/>
      <point x="151.865" y="537.505" type="line"/>
      <point x="331.365" y="676.005" type="line"/>
      <point x="463.365" y="536.505" type="line"/>
      <point x="455.865" y="529.505" type="line"/>
    </contour>
  </outline>
</glyph>
<glyph name="edieresis" format="1">
  <advance width="487"/>
  <unicode hex="00EB"/>
  <outline>
    <contour>
      <point x="68.5" y="228" type="line"/>
      <point x="70" y="238" type="line"/>
      <point x="451.5" y="238" type="line"/>
      <point x="474" y="343.5"/>
      <point x="416" y="458"/>
      <point x="302" y="459" type="curve" smooth="yes"/>
      <point x="187" y="460"/>
      <point x="90" y="357"/>
      <point x="71.5" y="233" type="curve"/>
      <point x="72" y="232.5" type="line"/>
      <point x="60.5" y="118.5"/>
      <point x="108.501" y="1.54834"/>
      <point x="225" y="0.5" type="curve" smooth="yes"/>
      <point x="325.497" y="-0.20166"/>
      <point x="384" y="59"/>
      <point x="428.5" y="112.5" type="curve"/>
      <point x="436" y="106" type="line"/>
      <point x="390.5" y="51.5"/>
      <point x="332.01" y="-9.85156"/>
      <point x="224.5" y="-9.5" type="curve" smooth="yes"/>
      <point x="103" y="-9"/>
      <point x="47.5" y="112.5"/>
      <point x="62" y="232" type="curve" smooth="yes"/>
      <point x="66" y="258.5"/>
      <point x="73" y="284"/>
      <point x="83.5" y="308" type="curve" smooth="yes"/>
      <point x="121" y="396.5"/>
      <point x="202.5" y="470"/>
      <point x="302" y="469.5" type="curve" smooth="yes"/>
      <point x="412" y="468.5"/>
      <point x="479.5" y="364.5"/>
      <point x="465.5" y="254" type="curve" smooth="yes"/>
      <point x="464" y="245.5"/>
      <point x="461.5" y="236"/>
      <point x="459.5" y="228" type="curve"/>
    </contour>
    <contour>
      <point x="394.129" y="540.505" type="curve" smooth="yes"/>
      <point x="394.629" y="546.005"/>
      <point x="400.629" y="551.505"/>
      <point x="406.129" y="551.505" type="curve" smooth="yes"/>
      <point x="411.629" y="551.505"/>
      <point x="416.129" y="546.505"/>
      <point x="415.629" y="540.505" type="curve" smooth="yes"/>
      <point x="415.129" y="535.005"/>
      <point x="408.629" y="529.505"/>
      <point x="403.129" y="529.505" type="curve" smooth="yes"/>
      <point x="397.629" y="529.505"/>
      <point x="393.629" y="534.505"/>
    </contour>
    <contour>
      <point x="200.129" y="540.505" type="curve" smooth="yes"/>
      <point x="200.629" y="546.005"/>
      <point x="206.629" y="551.505"/>
      <point x="212.129" y="551.505" type="curve" smooth="yes"/>
      <point x="217.629" y="551.505"/>
      <point x="222.129" y="546.505"/>
      <point x="221.629" y="540.505" type="curve" smooth="yes"/>
      <point x="221.129" y="535.005"/>
      <point x="214.629" y="529.505"/>
      <point x="209.129" y="529.505" type="curve" smooth="yes"/>
      <point x="203.629" y="529.505"/>
      <point x="199.629" y="534.505"/>
    </contour>
  </outline>
</glyph>
<glyph name="igrave" format="1">
  <advance width="184"/>
  <unicode hex="00EC"/>
  <outline>
    <contour>
      <point x="139.5" y="459.5" type="line"/>
      <point x="149" y="459.5" type="line"/>
      <point x="69.5" y="0" type="line"/>
      <point x="59.5" y="0" type="line"/>
    </contour>
    <contour>
      <point x="31.5" y="687" type="line"/>
      <point x="40.5" y="694.5" type="line"/>
      <point x="179" y="535" type="line"/>
      <point x="172.5" y="530.5" type="line"/>
    </contour>
  </outline>
</glyph>
<glyph name="icircumflex" format="1">
  <advance width="184"/>
  <unicode hex="00EE"/>
  <outline>
    <contour>
      <point x="139.5" y="459.5" type="line"/>
      <point x="149" y="459.5" type="line"/>
      <point x="69.5" y="0" type="line"/>
      <point x="59.5" y="0" type="line"/>
    </contour>
    <contour>
      <point x="179" y="664.5" type="line"/>
      <point x="7" y="531" type="line"/>
      <point x="1" y="538" type="line"/>
      <point x="180.5" y="676.5" type="line"/>
      <point x="312.5" y="537" type="line"/>
      <point x="304.5" y="530" type="line"/>
    </contour>
  </outline>
</glyph>
<glyph name="eth" format="1">
  <advance width="536"/>
  <unicode hex="00F0"/>
  <outline>
    <contour>
      <point x="236.5" y="-10" type="curve" smooth="yes"/>
      <point x="120.5" y="-10"/>
      <point x="52" y="62"/>
      <point x="52" y="180" type="curve" smooth="yes"/>
      <point x="52" y="313"/>
      <point x="176" y="437"/>
      <point x="300" y="437" type="curve" smooth="yes"/>
      <point x="374" y="437"/>
      <point x="431.5" y="409"/>
      <point x="465.5" y="355" type="curve"/>
      <point x="465" y="354" type="line"/>
      <point x="412" y="468"/>
      <point x="390" y="510"/>
      <point x="285" y="694" type="curve"/>
      <point x="293" y="700" type="line"/>
      <point x="477" y="370"/>
      <point x="498.5" y="329.5"/>
      <point x="499" y="255.5" type="curve" smooth="yes"/>
      <point x="500.5" y="114"/>
      <point x="367.5" y="-10"/>
    </contour>
    <contour>
      <point x="238" y="0" type="curve" smooth="yes"/>
      <point x="360" y="0"/>
      <point x="488.5" y="123.5"/>
      <point x="488.5" y="255" type="curve" smooth="yes"/>
      <point x="488.5" y="344"/>
      <point x="424.5" y="427"/>
      <point x="298.5" y="427" type="curve" smooth="yes"/>
      <point x="181.5" y="427"/>
      <point x="62" y="305"/>
      <point x="62" y="180" type="curve" smooth="yes"/>
      <point x="62" y="71"/>
      <point x="131" y="0"/>
    </contour>
    <contour>
      <point x="235" y="520" type="line"/>
      <point x="232.5" y="530" type="line"/>
      <point x="499" y="640" type="line"/>
      <point x="501.5" y="630" type="line"/>
    </contour>
  </outline>
</glyph>
<glyph name="ntilde" format="1">
  <advance width="460"/>
  <unicode hex="00F1"/>
  <outline>
    <contour>
      <point x="144.5" y="459.5" type="line"/>
      <point x="64.5" y="0" type="line"/>
      <point x="54.5" y="0" type="line"/>
      <point x="134.5" y="459.5" type="line"/>
    </contour>
    <contour>
      <point x="396.5" y="320" type="line" smooth="yes"/>
      <point x="406" y="392.5"/>
      <point x="388" y="458.5"/>
      <point x="301.5" y="459.5" type="curve" smooth="yes"/>
      <point x="205" y="460.5"/>
      <point x="132.5" y="369"/>
      <point x="112" y="281" type="curve"/>
      <point x="107" y="281" type="line"/>
      <point x="127.5" y="379"/>
      <point x="200.5" y="470"/>
      <point x="302" y="469.5" type="curve" smooth="yes"/>
      <point x="394" y="469"/>
      <point x="417" y="399"/>
      <point x="406.5" y="320" type="curve" smooth="yes"/>
      <point x="350.5" y="0" type="line"/>
      <point x="341" y="0" type="line"/>
    </contour>
    <contour>
      <point x="175" y="551.5" type="line"/>
      <point x="184.5" y="579.5"/>
      <point x="204" y="608.5"/>
      <point x="245" y="608.5" type="curve" smooth="yes"/>
      <point x="292.5" y="608.5"/>
      <point x="310.5" y="561.5"/>
      <point x="357.5" y="562.5" type="curve" smooth="yes"/>
      <point x="386.5" y="563"/>
      <point x="403.5" y="584"/>
      <point x="420.5" y="609.5" type="curve"/>
      <point x="429.5" y="606.5" type="line"/>
      <point x="411" y="577"/>
      <point x="388" y="554.5"/>
      <point x="356" y="554.5" type="curve" smooth="yes"/>
      <point x="309" y="554.5"/>
      <point x="288.5" y="600"/>
      <point x="246.5" y="600.5" type="curve" smooth="yes"/>
      <point x="209.5" y="601"/>
      <point x="192.5" y="575"/>
      <point x="184" y="550.5" type="curve"/>
    </contour>
  </outline>
</glyph>
<glyph name="ograve" format="1">
  <advance width="539"/>
  <unicode hex="00F2"/>
  <outline>
    <contour>
      <point x="55.5" y="230" type="curve" smooth="yes"/>
      <point x="76" y="361"/>
      <point x="188" y="470"/>
      <point x="322" y="469.5" type="curve" smooth="yes"/>
      <point x="454.5" y="469"/>
      <point x="527" y="355"/>
      <point x="508.5" y="230" type="curve" smooth="yes"/>
      <point x="488" y="99"/>
      <point x="375.5" y="-10"/>
      <point x="241.5" y="-9.5" type="curve" smooth="yes"/>
      <point x="109" y="-9"/>
      <point x="37" y="105"/>
    </contour>
    <contour>
      <point x="65.5" y="230" type="curve" smooth="yes"/>
      <point x="47.5" y="110"/>
      <point x="116" y="1"/>
      <point x="242" y="0.5" type="curve" smooth="yes"/>
      <point x="369.5" y="0"/>
      <point x="478.5" y="104"/>
      <point x="498.5" y="230" type="curve" smooth="yes"/>
      <point x="516.5" y="350"/>
      <point x="448" y="459"/>
      <point x="322" y="459.5" type="curve" smooth="yes"/>
      <point x="194.5" y="460"/>
      <point x="85.5" y="356"/>
    </contour>
    <contour>
      <point x="227.5" y="687" type="line"/>
      <point x="236.5" y="694.5" type="line"/>
      <point x="375" y="535" type="line"/>
      <point x="370.5" y="530.5" type="line"/>
    </contour>
  </outline>
</glyph>
<glyph name="oacute" format="1">
  <advance width="539"/>
  <unicode hex="00F3"/>
  <outline>
    <contour>
      <point x="55.5" y="230" type="curve" smooth="yes"/>
      <point x="76" y="361"/>
      <point x="188" y="470"/>
      <point x="322" y="469.5" type="curve" smooth="yes"/>
      <point x="454.5" y="469"/>
      <point x="527" y="355"/>
      <point x="508.5" y="230" type="curve" smooth="yes"/>
      <point x="488" y="99"/>
      <point x="375.5" y="-10"/>
      <point x="241.5" y="-9.5" type="curve" smooth="yes"/>
      <point x="109" y="-9"/>
      <point x="37" y="105"/>
    </contour>
    <contour>
      <point x="65.5" y="230" type="curve" smooth="yes"/>
      <point x="47.5" y="110"/>
      <point x="116" y="1"/>
      <point x="242" y="0.5" type="curve" smooth="yes"/>
      <point x="369.5" y="0"/>
      <point x="478.5" y="104"/>
      <point x="498.5" y="230" type="curve" smooth="yes"/>
      <point x="516.5" y="350"/>
      <point x="448" y="459"/>
      <point x="322" y="459.5" type="curve" smooth="yes"/>
      <point x="194.5" y="460"/>
      <point x="85.5" y="356"/>
    </contour>
    <contour>
      <point x="492.5" y="686" type="line"/>
      <point x="296" y="531" type="line"/>
      <point x="292.5" y="536" type="line"/>
      <point x="486" y="694" type="line"/>
    </contour>
  </outline>
</glyph>
<glyph name="divide" format="1">
  <advance width="604"/>
  <unicode hex="00F7"/>
  <outline>
    <contour>
      <point x="340" y="451" type="curve" smooth="yes"/>
      <point x="340.5" y="456.5"/>
      <point x="347" y="462"/>
      <point x="352.5" y="462" type="curve" smooth="yes"/>
      <point x="358" y="462"/>
      <point x="362" y="457"/>
      <point x="361.5" y="451" type="curve" smooth="yes"/>
      <point x="361" y="445.5"/>
      <point x="354.5" y="440"/>
      <point x="349" y="440" type="curve" smooth="yes"/>
      <point x="343.5" y="440"/>
      <point x="339.5" y="445"/>
    </contour>
    <contour>
      <point x="268" y="31" type="curve" smooth="yes"/>
      <point x="268.5" y="36.5"/>
      <point x="275" y="42"/>
      <point x="280.5" y="42" type="curve" smooth="yes"/>
      <point x="286" y="42"/>
      <point x="290.5" y="37"/>
      <point x="290" y="31" type="curve" smooth="yes"/>
      <point x="289.5" y="25.5"/>
      <point x="283" y="20"/>
      <point x="277.5" y="20" type="curve" smooth="yes"/>
      <point x="272" y="20"/>
      <point x="267.5" y="25"/>
    </contour>
    <contour>
      <point x="71" y="235" type="line"/>
      <point x="73" y="245" type="line"/>
      <point x="558" y="245" type="line"/>
      <point x="556.5" y="235" type="line"/>
    </contour>
  </outline>
</glyph>
<glyph name="udieresis" format="1">
  <advance width="460"/>
  <unicode hex="00FC"/>
  <outline>
    <contour>
      <point x="341" y="0" type="line"/>
      <point x="420.5" y="459.5" type="line"/>
      <point x="430.5" y="459.5" type="line"/>
      <point x="351" y="0" type="line"/>
    </contour>
    <contour>
      <point x="90.5" y="150" type="line" smooth="yes"/>
      <point x="80.5" y="72.5"/>
      <point x="95" y="1"/>
      <point x="184" y="0.5" type="curve" smooth="yes"/>
      <point x="280.5" y="-0.5"/>
      <point x="352.5" y="90.5"/>
      <point x="373" y="179" type="curve"/>
      <point x="378.5" y="179" type="line"/>
      <point x="358" y="81"/>
      <point x="284.5" y="-10.5"/>
      <point x="183" y="-9.5" type="curve" smooth="yes"/>
      <point x="88" y="-9"/>
      <point x="69.5" y="65.5"/>
      <point x="80.5" y="150" type="curve" smooth="yes"/>
      <point x="134.5" y="459.5" type="line"/>
      <point x="144.5" y="459.5" type="line"/>
    </contour>
    <contour>
      <point x="365.5" y="561.5" type="curve" smooth="yes"/>
      <point x="366" y="567"/>
      <point x="373.5" y="572"/>
      <point x="379" y="572" type="curve" smooth="yes"/>
      <point x="384.5" y="571.5"/>
      <point x="387.5" y="567"/>
      <point x="387" y="561" type="curve" smooth="yes"/>
      <point x="386.5" y="555.5"/>
      <point x="381" y="550"/>
      <point x="375.5" y="550" type="curve" smooth="yes"/>
      <point x="370" y="550"/>
      <point x="365" y="555.5"/>
    </contour>
    <contour>
      <point x="210" y="561.5" type="curve" smooth="yes"/>
      <point x="210.5" y="567"/>
      <point x="218" y="572"/>
      <point x="223.5" y="572" type="curve" smooth="yes"/>
      <point x="229" y="571.5"/>
      <point x="232.5" y="567"/>
      <point x="232" y="561" type="curve" smooth="yes"/>
      <point x="231.5" y="555.5"/>
      <point x="226" y="550"/>
      <point x="220.5" y="550" type="curve" smooth="yes"/>
      <point x="215" y="550"/>
      <point x="209.5" y="555.5"/>
    </contour>
  </outline>
</glyph>
<glyph name="Abreve" format="1">
  <advance width="582"/>
  <unicode hex="0102"/>
  <outline>
    <contour>
      <point x="142.5" y="272" type="line"/>
      <point x="144" y="282" type="line"/>
      <point x="479" y="282" type="line"/>
      <point x="477.5" y="272" type="line"/>
    </contour>
    <contour>
      <point x="382.5" y="688" type="line"/>
      <point x="152.5" y="277" type="line"/>
      <point x="151" y="273" type="line"/>
      <point x="-1.5" y="0" type="line"/>
      <point x="-13.5" y="0" type="line"/>
      <point x="386.5" y="715" type="line"/>
      <point x="540.5" y="0" type="line"/>
      <point x="528.5" y="0" type="line"/>
      <point x="472" y="273" type="line"/>
      <point x="471.5" y="276" type="line"/>
    </contour>
    <contour>
      <point x="268.5" y="925" type="curve"/>
      <point x="278.5" y="925" type="line"/>
      <point x="272.5" y="857"/>
      <point x="313.5" y="796"/>
      <point x="399" y="795.5" type="curve" smooth="yes"/>
      <point x="487" y="795"/>
      <point x="546.5" y="857"/>
      <point x="566" y="924" type="curve"/>
      <point x="576" y="924" type="line"/>
      <point x="556" y="852"/>
      <point x="496" y="785"/>
      <point x="398.5" y="785.5" type="curve" smooth="yes"/>
      <point x="303" y="786"/>
      <point x="261.5" y="852"/>
    </contour>
  </outline>
</glyph>
<glyph name="Ccircumflex" format="1">
  <advance width="664"/>
  <unicode hex="0108"/>
  <outline>
    <contour>
      <point x="93" y="350" type="curve" smooth="yes"/>
      <point x="67" y="173.5"/>
      <point x="153" y="6"/>
      <point x="342" y="4.5" type="curve" smooth="yes"/>
      <point x="436" y="4"/>
      <point x="510" y="35"/>
      <point x="575.5" y="87" type="curve"/>
      <point x="572.5" y="71.5" type="line"/>
      <point x="506.5" y="23"/>
      <point x="435.5" y="-8"/>
      <point x="341" y="-7.5" type="curve" smooth="yes"/>
      <point x="145" y="-6"/>
      <point x="54" y="165.5"/>
      <point x="81" y="350" type="curve" smooth="yes"/>
      <point x="111.5" y="545.5"/>
      <point x="264" y="707"/>
      <point x="462" y="708" type="curve" smooth="yes"/>
      <point x="550.5" y="708.5"/>
      <point x="612.5" y="681.5"/>
      <point x="667.5" y="628.5" type="curve"/>
      <point x="665" y="613.5" type="line"/>
      <point x="613.5" y="670.5"/>
      <point x="545" y="696.5"/>
      <point x="461" y="696" type="curve" smooth="yes"/>
      <point x="270" y="695"/>
      <point x="123" y="539"/>
    </contour>
    <contour>
      <point x="496.5" y="902.5" type="line"/>
      <point x="324" y="769" type="line"/>
      <point x="318" y="776" type="line"/>
      <point x="497.5" y="914.5" type="line"/>
      <point x="629.5" y="775" type="line"/>
      <point x="622" y="768" type="line"/>
    </contour>
  </outline>
</glyph>
<glyph name="Dcroat" format="1">
  <advance width="659"/>
  <unicode hex="0110"/>
  <outline>
    <contour>
      <point x="36.5" y="345" type="line"/>
      <point x="38" y="355" type="line"/>
      <point x="329.5" y="355" type="line"/>
      <point x="328" y="345" type="line"/>
    </contour>
    <contour>
      <point x="180" y="699.5" type="line"/>
      <point x="191" y="699.5" type="line"/>
      <point x="70.5" y="0" type="line"/>
      <point x="59.5" y="0" type="line"/>
    </contour>
    <contour>
      <point x="216" y="0" type="curve"/>
      <point x="65" y="0" type="line"/>
      <point x="67" y="11" type="line"/>
      <point x="217" y="11" type="line"/>
      <point x="414.5" y="14.5"/>
      <point x="558.5" y="158"/>
      <point x="589.5" y="350" type="curve" smooth="yes"/>
      <point x="617.5" y="532.5"/>
      <point x="528.5" y="685"/>
      <point x="333.5" y="689" type="curve"/>
      <point x="182.5" y="689" type="line"/>
      <point x="184.5" y="700" type="line"/>
      <point x="334.5" y="700" type="line"/>
      <point x="535.5" y="696.5"/>
      <point x="629" y="538.5"/>
      <point x="600.5" y="350" type="curve" smooth="yes"/>
      <point x="569" y="152"/>
      <point x="420" y="3"/>
    </contour>
  </outline>
</glyph>
<glyph name="Ebreve" format="1">
  <advance width="494"/>
  <unicode hex="0114"/>
  <outline>
    <contour>
      <point x="62" y="0" type="line"/>
      <point x="63.5" y="10" type="line"/>
      <point x="392" y="10" type="line"/>
      <point x="390.5" y="0" type="line"/>
    </contour>
    <contour>
      <point x="180" y="690" type="line"/>
      <point x="181.5" y="700" type="line"/>
      <point x="509.5" y="700" type="line"/>
      <point x="508" y="690" type="line"/>
    </contour>
    <contour>
      <point x="127.5" y="384" type="line"/>
      <point x="129.5" y="394" type="line"/>
      <point x="438" y="394" type="line"/>
      <point x="436.5" y="384" type="line"/>
    </contour>
    <contour>
      <point x="180" y="699.5" type="line"/>
      <point x="191" y="699.5" type="line"/>
      <point x="70.5" y="0" type="line"/>
      <point x="59.5" y="0" type="line"/>
    </contour>
    <contour>
      <point x="236.5" y="908" type="curve"/>
      <point x="246.5" y="908" type="line"/>
      <point x="240.5" y="840"/>
      <point x="281.5" y="779"/>
      <point x="367" y="778.5" type="curve" smooth="yes"/>
      <point x="455" y="778"/>
      <point x="514.5" y="840"/>
      <point x="534" y="907" type="curve"/>
      <point x="544" y="907" type="line"/>
      <point x="524" y="835"/>
      <point x="464" y="768"/>
      <point x="366.5" y="768.5" type="curve" smooth="yes"/>
      <point x="271" y="769"/>
      <point x="229.5" y="835"/>
    </contour>
  </outline>
</glyph>
<glyph name="ebreve" format="1">
  <advance width="487"/>
  <unicode hex="0115"/>
  <outline>
    <contour>
      <point x="68.5" y="228" type="line"/>
      <point x="70" y="238" type="line"/>
      <point x="451.5" y="238" type="line"/>
      <point x="474" y="343.5"/>
      <point x="416" y="458"/>
      <point x="302" y="459" type="curve" smooth="yes"/>
      <point x="187" y="460"/>
      <point x="90" y="357"/>
      <point x="71.5" y="233" type="curve"/>
      <point x="72" y="232.5" type="line"/>
      <point x="60.5" y="118.5"/>
      <point x="108.501" y="1.54834"/>
      <point x="225" y="0.5" type="curve" smooth="yes"/>
      <point x="325.497" y="-0.20166"/>
      <point x="384" y="59"/>
      <point x="428.5" y="112.5" type="curve"/>
      <point x="436" y="106" type="line"/>
      <point x="390.5" y="51.5"/>
      <point x="332.01" y="-9.85156"/>
      <point x="224.5" y="-9.5" type="curve" smooth="yes"/>
      <point x="103" y="-9"/>
      <point x="47.5" y="112.5"/>
      <point x="62" y="232" type="curve" smooth="yes"/>
      <point x="66" y="258.5"/>
      <point x="73" y="284"/>
      <point x="83.5" y="308" type="curve" smooth="yes"/>
      <point x="121" y="396.5"/>
      <point x="202.5" y="470"/>
      <point x="302" y="469.5" type="curve" smooth="yes"/>
      <point x="412" y="468.5"/>
      <point x="479.5" y="364.5"/>
      <point x="465.5" y="254" type="curve" smooth="yes"/>
      <point x="464" y="245.5"/>
      <point x="461.5" y="236"/>
      <point x="459.5" y="228" type="curve"/>
    </contour>
    <contour>
      <point x="165.326" y="669.005" type="curve"/>
      <point x="174.826" y="669.005" type="line"/>
      <point x="170.326" y="600.505"/>
      <point x="212.326" y="540.005"/>
      <point x="297.826" y="539.505" type="curve" smooth="yes"/>
      <point x="385.826" y="539.005"/>
      <point x="444.326" y="601.005"/>
      <point x="462.825" y="668.505" type="curve"/>
      <point x="472.825" y="668.005" type="line"/>
      <point x="453.826" y="595.505"/>
      <point x="394.826" y="529.505"/>
      <point x="297.326" y="529.505" type="curve" smooth="yes"/>
      <point x="201.826" y="529.505"/>
      <point x="159.826" y="596.005"/>
    </contour>
  </outline>
</glyph>
<glyph name="Edotaccent" format="1">
  <advance width="494"/>
  <unicode hex="0116"/>
  <outline>
    <contour>
      <point x="62" y="0" type="line"/>
      <point x="63.5" y="10" type="line"/>
      <point x="392" y="10" type="line"/>
      <point x="390.5" y="0" type="line"/>
    </contour>
    <contour>
      <point x="180" y="690" type="line"/>
      <point x="181.5" y="700" type="line"/>
      <point x="509.5" y="700" type="line"/>
      <point x="508" y="690" type="line"/>
    </contour>
    <contour>
      <point x="127.5" y="384" type="line"/>
      <point x="129.5" y="394" type="line"/>
      <point x="438" y="394" type="line"/>
      <point x="436.5" y="384" type="line"/>
    </contour>
    <contour>
      <point x="180" y="699.5" type="line"/>
      <point x="191" y="699.5" type="line"/>
      <point x="70.5" y="0" type="line"/>
      <point x="59.5" y="0" type="line"/>
    </contour>
    <contour>
      <point x="347.5" y="779" type="curve" smooth="yes"/>
      <point x="348" y="784.5"/>
      <point x="354.5" y="790"/>
      <point x="360" y="790" type="curve" smooth="yes"/>
      <point x="365.5" y="790"/>
      <point x="369.5" y="785"/>
      <point x="369" y="779" type="curve" smooth="yes"/>
      <point x="368.5" y="773.5"/>
      <point x="362" y="768"/>
      <point x="356.5" y="768" type="curve" smooth="yes"/>
      <point x="351" y="768"/>
      <point x="347" y="773"/>
    </contour>
  </outline>
</glyph>
<glyph name="edotaccent" format="1">
  <advance width="487"/>
  <unicode hex="0117"/>
  <outline>
    <contour>
      <point x="68.5" y="228" type="line"/>
      <point x="70" y="238" type="line"/>
      <point x="451.5" y="238" type="line"/>
      <point x="474" y="343.5"/>
      <point x="416" y="458"/>
      <point x="302" y="459" type="curve" smooth="yes"/>
      <point x="187" y="460"/>
      <point x="90" y="357"/>
      <point x="71.5" y="233" type="curve"/>
      <point x="72" y="232.5" type="line"/>
      <point x="60.5" y="118.5"/>
      <point x="108.501" y="1.54834"/>
      <point x="225" y="0.5" type="curve" smooth="yes"/>
      <point x="325.497" y="-0.20166"/>
      <point x="384" y="59"/>
      <point x="428.5" y="112.5" type="curve"/>
      <point x="436" y="106" type="line"/>
      <point x="390.5" y="51.5"/>
      <point x="332.01" y="-9.85156"/>
      <point x="224.5" y="-9.5" type="curve" smooth="yes"/>
      <point x="103" y="-9"/>
      <point x="47.5" y="112.5"/>
      <point x="62" y="232" type="curve" smooth="yes"/>
      <point x="66" y="258.5"/>
      <point x="73" y="284"/>
      <point x="83.5" y="308" type="curve" smooth="yes"/>
      <point x="121" y="396.5"/>
      <point x="202.5" y="470"/>
      <point x="302" y="469.5" type="curve" smooth="yes"/>
      <point x="412" y="468.5"/>
      <point x="479.5" y="364.5"/>
      <point x="465.5" y="254" type="curve" smooth="yes"/>
      <point x="464" y="245.5"/>
      <point x="461.5" y="236"/>
      <point x="459.5" y="228" type="curve"/>
    </contour>
    <contour>
      <point x="297.129" y="540.505" type="curve" smooth="yes"/>
      <point x="297.629" y="546.005"/>
      <point x="304.129" y="551.505"/>
      <point x="309.629" y="551.505" type="curve" smooth="yes"/>
      <point x="315.129" y="551.505"/>
      <point x="319.129" y="546.505"/>
      <point x="318.629" y="540.505" type="curve" smooth="yes"/>
      <point x="318.129" y="535.005"/>
      <point x="312.129" y="529.505"/>
      <point x="306.629" y="529.505" type="curve" smooth="yes"/>
      <point x="301.129" y="529.505"/>
      <point x="296.629" y="534.505"/>
    </contour>
  </outline>
</glyph>
<glyph name="Ecaron" format="1">
  <advance width="494"/>
  <unicode hex="011A"/>
  <outline>
    <contour>
      <point x="62" y="0" type="line"/>
      <point x="63.5" y="10" type="line"/>
      <point x="392" y="10" type="line"/>
      <point x="390.5" y="0" type="line"/>
    </contour>
    <contour>
      <point x="180" y="690" type="line"/>
      <point x="181.5" y="700" type="line"/>
      <point x="509.5" y="700" type="line"/>
      <point x="508" y="690" type="line"/>
    </contour>
    <contour>
      <point x="127.5" y="384" type="line"/>
      <point x="129.5" y="394" type="line"/>
      <point x="438" y="394" type="line"/>
      <point x="436.5" y="384" type="line"/>
    </contour>
    <contour>
      <point x="180" y="699.5" type="line"/>
      <point x="191" y="699.5" type="line"/>
      <point x="70.5" y="0" type="line"/>
      <point x="59.5" y="0" type="line"/>
    </contour>
    <contour>
      <point x="357.5" y="780.5" type="line"/>
      <point x="529" y="915" type="line"/>
      <point x="536" y="907" type="line"/>
      <point x="356.5" y="768.5" type="line"/>
      <point x="224.5" y="908" type="line"/>
      <point x="233.5" y="916" type="line"/>
    </contour>
  </outline>
</glyph>
<glyph name="Gcircumflex" format="1">
  <advance width="742"/>
  <unicode hex="011C"/>
  <outline>
    <contour>
      <point x="437" y="330" type="line"/>
      <point x="438.5" y="340" type="line"/>
      <point x="720" y="339.5" type="line"/>
      <point x="685" y="162.5"/>
      <point x="547.5" y="-7.5"/>
      <point x="350.5" y="-7.5" type="curve" smooth="yes"/>
      <point x="154.5" y="-7.5"/>
      <point x="54" y="164.5"/>
      <point x="81" y="350" type="curve" smooth="yes"/>
      <point x="111.5" y="546"/>
      <point x="273" y="708.5"/>
      <point x="471.5" y="708" type="curve" smooth="yes"/>
      <point x="587.5" y="708"/>
      <point x="667.5" y="646"/>
      <point x="716.5" y="556" type="curve"/>
      <point x="706" y="550" type="line"/>
      <point x="665.5" y="637.5"/>
      <point x="581" y="697"/>
      <point x="471" y="697" type="curve" smooth="yes"/>
      <point x="276.5" y="697.5"/>
      <point x="122.5" y="540.5"/>
      <point x="92" y="350" type="curve" smooth="yes"/>
      <point x="65.5" y="172"/>
      <point x="159" y="3.5"/>
      <point x="351.5" y="3.5" type="curve" smooth="yes"/>
      <point x="539" y="3.5"/>
      <point x="670.5" y="162"/>
      <point x="708" y="329.5" type="curve"/>
    </contour>
    <contour>
      <point x="506" y="902.5" type="line"/>
      <point x="333.5" y="769" type="line"/>
      <point x="327.5" y="776" type="line"/>
      <point x="507" y="914.5" type="line"/>
      <point x="639.5" y="775" type="line"/>
      <point x="631.5" y="768" type="line"/>
    </contour>
  </outline>
</glyph>
<glyph name="gcircumflex" format="1">
  <advance width="525"/>
  <unicode hex="011D"/>
  <outline>
    <contour>
      <point x="26.5" y="-30" type="curve"/>
      <point x="36.5" y="-30" type="line"/>
      <point x="25" y="-133"/>
      <point x="69.5" y="-218.5"/>
      <point x="179.5" y="-219.5" type="curve" smooth="yes"/>
      <point x="298" y="-220.5"/>
      <point x="391.5" y="-123"/>
      <point x="412" y="10" type="curve" smooth="yes"/>
      <point x="489.5" y="459.5" type="line"/>
      <point x="499.5" y="459.5" type="line"/>
      <point x="422.5" y="10" type="line" smooth="yes"/>
      <point x="401" y="-128"/>
      <point x="304.5" y="-230"/>
      <point x="179" y="-229.5" type="curve" smooth="yes"/>
      <point x="62.5" y="-229"/>
      <point x="14.5" y="-137"/>
    </contour>
    <contour>
      <point x="55.5" y="230" type="curve" smooth="yes"/>
      <point x="75" y="361.5"/>
      <point x="176.5" y="471"/>
      <point x="303" y="469.5" type="curve" smooth="yes"/>
      <point x="427.5" y="468"/>
      <point x="470.5" y="336.5"/>
      <point x="455" y="230" type="curve" smooth="yes"/>
      <point x="436.5" y="115.5"/>
      <point x="347" y="-9"/>
      <point x="222" y="-9.5" type="curve" smooth="yes"/>
      <point x="95.5" y="-10"/>
      <point x="38.5" y="105.5"/>
    </contour>
    <contour>
      <point x="65.5" y="230" type="curve" smooth="yes"/>
      <point x="48.5" y="110.5"/>
      <point x="103.5" y="0"/>
      <point x="225.5" y="0.5" type="curve" smooth="yes"/>
      <point x="341.5" y="1"/>
      <point x="433" y="121.5"/>
      <point x="450.5" y="235" type="curve" smooth="yes"/>
      <point x="465" y="331.5"/>
      <point x="417.5" y="457.5"/>
      <point x="305" y="459.5" type="curve" smooth="yes"/>
      <point x="183.5" y="462"/>
      <point x="84.5" y="356"/>
    </contour>
    <contour>
      <point x="337.5" y="664.5" type="line"/>
      <point x="165" y="531" type="line"/>
      <point x="159" y="538" type="line"/>
      <point x="338.5" y="676.5" type="line"/>
      <point x="470.5" y="537" type="line"/>
      <point x="463" y="530" type="line"/>
    </contour>
  </outline>
</glyph>
<glyph name="gbreve" format="1">
  <advance width="525"/>
  <unicode hex="011F"/>
  <outline>
    <contour>
      <point x="26.5" y="-30" type="curve"/>
      <point x="36.5" y="-30" type="line"/>
      <point x="25" y="-133"/>
      <point x="69.5" y="-218.5"/>
      <point x="179.5" y="-219.5" type="curve" smooth="yes"/>
      <point x="298" y="-220.5"/>
      <point x="391.5" y="-123"/>
      <point x="412" y="10" type="curve" smooth="yes"/>
      <point x="489.5" y="459.5" type="line"/>
      <point x="499.5" y="459.5" type="line"/>
      <point x="422.5" y="10" type="line" smooth="yes"/>
      <point x="401" y="-128"/>
      <point x="304.5" y="-230"/>
      <point x="179" y="-229.5" type="curve" smooth="yes"/>
      <point x="62.5" y="-229"/>
      <point x="14.5" y="-137"/>
    </contour>
    <contour>
      <point x="55.5" y="230" type="curve" smooth="yes"/>
      <point x="75" y="361.5"/>
      <point x="176.5" y="471"/>
      <point x="303" y="469.5" type="curve" smooth="yes"/>
      <point x="427.5" y="468"/>
      <point x="470.5" y="336.5"/>
      <point x="455" y="230" type="curve" smooth="yes"/>
      <point x="436.5" y="115.5"/>
      <point x="347" y="-9"/>
      <point x="222" y="-9.5" type="curve" smooth="yes"/>
      <point x="95.5" y="-10"/>
      <point x="38.5" y="105.5"/>
    </contour>
    <contour>
      <point x="65.5" y="230" type="curve" smooth="yes"/>
      <point x="48.5" y="110.5"/>
      <point x="103.5" y="0"/>
      <point x="225.5" y="0.5" type="curve" smooth="yes"/>
      <point x="341.5" y="1"/>
      <point x="433" y="121.5"/>
      <point x="450.5" y="235" type="curve" smooth="yes"/>
      <point x="465" y="331.5"/>
      <point x="417.5" y="457.5"/>
      <point x="305" y="459.5" type="curve" smooth="yes"/>
      <point x="183.5" y="462"/>
      <point x="84.5" y="356"/>
    </contour>
    <contour>
      <point x="184.5" y="670" type="curve"/>
      <point x="194" y="670" type="line"/>
      <point x="188" y="602"/>
      <point x="229" y="541"/>
      <point x="314.5" y="540.5" type="curve" smooth="yes"/>
      <point x="402.5" y="540"/>
      <point x="462.5" y="602"/>
      <point x="482" y="669" type="curve"/>
      <point x="492" y="669" type="line"/>
      <point x="472" y="597"/>
      <point x="411.5" y="530"/>
      <point x="314" y="530.5" type="curve" smooth="yes"/>
      <point x="218.5" y="531"/>
      <point x="177.5" y="597"/>
    </contour>
  </outline>
</glyph>
<glyph name="Gdotaccent" format="1">
  <advance width="742"/>
  <unicode hex="0120"/>
  <outline>
    <contour>
      <point x="437" y="330" type="line"/>
      <point x="438.5" y="340" type="line"/>
      <point x="720" y="339.5" type="line"/>
      <point x="685" y="162.5"/>
      <point x="547.5" y="-7.5"/>
      <point x="350.5" y="-7.5" type="curve" smooth="yes"/>
      <point x="154.5" y="-7.5"/>
      <point x="54" y="164.5"/>
      <point x="81" y="350" type="curve" smooth="yes"/>
      <point x="111.5" y="546"/>
      <point x="273" y="708.5"/>
      <point x="471.5" y="708" type="curve" smooth="yes"/>
      <point x="587.5" y="708"/>
      <point x="667.5" y="646"/>
      <point x="716.5" y="556" type="curve"/>
      <point x="706" y="550" type="line"/>
      <point x="665.5" y="637.5"/>
      <point x="581" y="697"/>
      <point x="471" y="697" type="curve" smooth="yes"/>
      <point x="276.5" y="697.5"/>
      <point x="122.5" y="540.5"/>
      <point x="92" y="350" type="curve" smooth="yes"/>
      <point x="65.5" y="172"/>
      <point x="159" y="3.5"/>
      <point x="351.5" y="3.5" type="curve" smooth="yes"/>
      <point x="539" y="3.5"/>
      <point x="670.5" y="162"/>
      <point x="708" y="329.5" type="curve"/>
    </contour>
    <contour>
      <point x="473.5" y="779" type="curve" smooth="yes"/>
      <point x="474" y="784.5"/>
      <point x="480.5" y="790"/>
      <point x="486" y="790" type="curve" smooth="yes"/>
      <point x="491.5" y="790"/>
      <point x="495.5" y="785"/>
      <point x="495" y="779" type="curve" smooth="yes"/>
      <point x="494.5" y="773.5"/>
      <point x="488" y="768"/>
      <point x="482.5" y="768" type="curve" smooth="yes"/>
      <point x="477" y="768"/>
      <point x="473" y="773"/>
    </contour>
  </outline>
</glyph>
<glyph name="Hcircumflex" format="1">
  <advance width="627"/>
  <unicode hex="0124"/>
  <outline>
    <contour>
      <point x="127.5" y="377" type="line"/>
      <point x="129" y="387" type="line"/>
      <point x="575.5" y="387" type="line"/>
      <point x="574" y="377" type="line"/>
    </contour>
    <contour>
      <point x="622.5" y="699.5" type="line"/>
      <point x="633.5" y="699.5" type="line"/>
      <point x="513" y="0" type="line"/>
      <point x="502" y="0" type="line"/>
    </contour>
    <contour>
      <point x="180" y="699.5" type="line"/>
      <point x="191" y="699.5" type="line"/>
      <point x="70.5" y="0" type="line"/>
      <point x="59.5" y="0" type="line"/>
    </contour>
    <contour>
      <point x="442" y="902.5" type="line"/>
      <point x="268.5" y="769" type="line"/>
      <point x="263.5" y="776" type="line"/>
      <point x="443" y="914.5" type="line"/>
      <point x="575.5" y="775" type="line"/>
      <point x="566.5" y="768" type="line"/>
    </contour>
  </outline>
</glyph>
<glyph name="itilde" format="1">
  <advance width="184"/>
  <unicode hex="0129"/>
  <outline>
    <contour>
      <point x="139.5" y="459.5" type="line"/>
      <point x="149" y="459.5" type="line"/>
      <point x="69.5" y="0" type="line"/>
      <point x="59.5" y="0" type="line"/>
    </contour>
    <contour>
      <point x="55.5" y="591.5" type="line"/>
      <point x="65" y="619.5"/>
      <point x="85" y="648.5"/>
      <point x="126" y="648.5" type="curve" smooth="yes"/>
      <point x="173.5" y="648.5"/>
      <point x="191" y="601.5"/>
      <point x="238" y="602.5" type="curve" smooth="yes"/>
      <point x="267" y="603"/>
      <point x="284.5" y="624"/>
      <point x="301.5" y="649.5" type="curve"/>
      <point x="310" y="646.5" type="line"/>
      <point x="291.5" y="617"/>
      <point x="269" y="594.5"/>
      <point x="237" y="594.5" type="curve" smooth="yes"/>
      <point x="190" y="594.5"/>
      <point x="169.5" y="640"/>
      <point x="127.5" y="640.5" type="curve" smooth="yes"/>
      <point x="90.5" y="641"/>
      <point x="73" y="615"/>
      <point x="64.5" y="590.5" type="curve"/>
    </contour>
  </outline>
</glyph>
<glyph name="imacron" format="1">
  <advance width="184"/>
  <unicode hex="012B"/>
  <outline>
    <contour>
      <point x="139.5" y="459.5" type="line"/>
      <point x="149" y="459.5" type="line"/>
      <point x="69.5" y="0" type="line"/>
      <point x="59.5" y="0" type="line"/>
    </contour>
    <contour>
      <point x="30.5" y="595" type="line"/>
      <point x="32.5" y="605" type="line"/>
      <point x="372" y="605" type="line"/>
      <point x="370.5" y="595" type="line"/>
    </contour>
  </outline>
</glyph>
<glyph name="Ibreve" format="1">
  <advance width="174"/>
  <unicode hex="012C"/>
  <outline>
    <contour>
      <point x="175.5" y="699.5" type="line"/>
      <point x="185.5" y="699.5" type="line"/>
      <point x="64.5" y="0" type="line"/>
      <point x="54.5" y="0" type="line"/>
    </contour>
    <contour>
      <point x="60.5" y="910" type="curve"/>
      <point x="70" y="910" type="line"/>
      <point x="64" y="842"/>
      <point x="105" y="781"/>
      <point x="190.5" y="780.5" type="curve" smooth="yes"/>
      <point x="278.5" y="780"/>
      <point x="338.5" y="842"/>
      <point x="358" y="909" type="curve"/>
      <point x="368" y="909" type="line"/>
      <point x="348" y="837"/>
      <point x="287.5" y="770"/>
      <point x="190" y="770.5" type="curve" smooth="yes"/>
      <point x="94.5" y="771"/>
      <point x="53.5" y="837"/>
    </contour>
  </outline>
</glyph>
<glyph name="Iogonek" format="1">
  <advance width="174"/>
  <unicode hex="012E"/>
  <outline>
    <contour>
      <point x="175.5" y="699.5" type="line"/>
      <point x="185.5" y="699.5" type="line"/>
      <point x="64.5" y="0" type="line"/>
      <point x="54.5" y="0" type="line"/>
    </contour>
    <contour>
      <point x="68.5" y="-173.5" type="curve"/>
      <point x="74.5" y="-181" type="line"/>
      <point x="51" y="-201"/>
      <point x="13.5" y="-220"/>
      <point x="-27.5" y="-219.5" type="curve" smooth="yes"/>
      <point x="-83" y="-219"/>
      <point x="-121.5" y="-189.5"/>
      <point x="-114.5" y="-139.5" type="curve" smooth="yes"/>
      <point x="-103.5" y="-65"/>
      <point x="-8.5" y="-23.5"/>
      <point x="60" y="9.5" type="curve"/>
      <point x="65.5" y="0" type="line"/>
      <point x="0.5" y="-31"/>
      <point x="-95" y="-73.5"/>
      <point x="-105" y="-140" type="curve" smooth="yes"/>
      <point x="-111" y="-185"/>
      <point x="-71.5" y="-209"/>
      <point x="-26.5" y="-209.5" type="curve" smooth="yes"/>
      <point x="11.5" y="-210"/>
      <point x="46" y="-191"/>
    </contour>
  </outline>
</glyph>
<glyph name="Jcircumflex" format="1">
  <advance width="191"/>
  <unicode hex="0134"/>
  <outline>
    <contour>
      <point x="-178" y="-158.5" type="line"/>
      <point x="-154.5" y="-184"/>
      <point x="-122" y="-208"/>
      <point x="-80" y="-208.5" type="curve" smooth="yes"/>
      <point x="10" y="-210"/>
      <point x="44" y="-145"/>
      <point x="57.5" y="-50" type="curve" smooth="yes"/>
      <point x="186" y="699.5" type="line"/>
      <point x="197" y="699.5" type="line"/>
      <point x="67" y="-60" type="line" smooth="yes"/>
      <point x="53" y="-153"/>
      <point x="14" y="-221"/>
      <point x="-79.5" y="-219.5" type="curve" smooth="yes"/>
      <point x="-127" y="-219"/>
      <point x="-166" y="-190.5"/>
      <point x="-185.5" y="-165" type="curve"/>
    </contour>
    <contour>
      <point x="226.5" y="902.5" type="line"/>
      <point x="53" y="769" type="line"/>
      <point x="48.5" y="776" type="line"/>
      <point x="228" y="914.5" type="line"/>
      <point x="360" y="775" type="line"/>
      <point x="351" y="768" type="line"/>
    </contour>
  </outline>
</glyph>
<glyph name="jcircumflex" format="1">
  <advance width="174"/>
  <unicode hex="0135"/>
  <outline>
    <contour>
      <point x="-149" y="-165" type="line"/>
      <point x="-134" y="-186"/>
      <point x="-114" y="-208.5"/>
      <point x="-81" y="-209.5" type="curve" smooth="yes"/>
      <point x="-6" y="-211.5"/>
      <point x="25.5" y="-138"/>
      <point x="36.5" y="-82" type="curve" smooth="yes"/>
      <point x="129.5" y="459.5" type="line"/>
      <point x="139.5" y="459.5" type="line"/>
      <point x="46.5" y="-82" type="line" smooth="yes"/>
      <point x="35" y="-147"/>
      <point x="-2" y="-222"/>
      <point x="-82" y="-219.5" type="curve" smooth="yes"/>
      <point x="-119.5" y="-218.5"/>
      <point x="-141.5" y="-194.5"/>
      <point x="-157" y="-172" type="curve"/>
    </contour>
    <contour>
      <point x="169.5" y="664.5" type="line"/>
      <point x="-3" y="531" type="line"/>
      <point x="-9" y="538" type="line"/>
      <point x="170.5" y="676.5" type="line"/>
      <point x="302.5" y="537" type="line"/>
      <point x="295" y="530" type="line"/>
    </contour>
  </outline>
</glyph>
<glyph name="uni0136" format="1">
  <advance width="440"/>
  <unicode hex="0136"/>
  <outline>
    <contour>
      <point x="175.5" y="699.5" type="line"/>
      <point x="186" y="699.5" type="line"/>
      <point x="65.5" y="0" type="line"/>
      <point x="54.5" y="0" type="line"/>
    </contour>
    <contour>
      <point x="488.5" y="699" type="line"/>
      <point x="504.5" y="699" type="line"/>
      <point x="142" y="371.5" type="line"/>
      <point x="399" y="0" type="line"/>
      <point x="383" y="0" type="line"/>
      <point x="127.5" y="372.5" type="line"/>
    </contour>
    <contour>
      <point x="263" y="-61" type="line"/>
      <point x="273.5" y="-66" type="line"/>
      <point x="122.5" y="-314" type="line"/>
      <point x="116.5" y="-312" type="line"/>
    </contour>
  </outline>
</glyph>
<glyph name="kgreenlandic" format="1">
  <advance width="361"/>
  <unicode hex="0138"/>
  <outline>
    <contour>
      <point x="129.5" y="459.5" type="line"/>
      <point x="139.5" y="459.5" type="line"/>
      <point x="59.5" y="0" type="line"/>
      <point x="49.5" y="0" type="line"/>
    </contour>
    <contour>
      <point x="369.5" y="459" type="line"/>
      <point x="385.5" y="459" type="line"/>
      <point x="117.5" y="270" type="line"/>
      <point x="324.5" y="0" type="line"/>
      <point x="311" y="0" type="line"/>
      <point x="104" y="270.5" type="line"/>
    </contour>
  </outline>
</glyph>
<glyph name="uni013C" format="1">
  <advance width="174"/>
  <unicode hex="013C"/>
  <outline>
    <contour>
      <point x="189" y="779.5" type="line"/>
      <point x="199" y="779.5" type="line"/>
      <point x="64.5" y="0" type="line"/>
      <point x="54.5" y="0" type="line"/>
    </contour>
    <contour>
      <point x="77" y="-61" type="line"/>
      <point x="87" y="-66" type="line"/>
      <point x="-64" y="-314" type="line"/>
      <point x="-70" y="-312" type="line"/>
    </contour>
  </outline>
</glyph>
<glyph name="Lcaron" format="1">
  <advance width="417"/>
  <unicode hex="013D"/>
  <outline>
    <contour>
      <point x="180" y="699.5" type="line"/>
      <point x="190" y="699.5" type="line"/>
      <point x="71.5" y="10" type="line"/>
      <point x="372.5" y="10" type="line"/>
      <point x="371" y="0" type="line"/>
      <point x="60" y="0" type="line"/>
    </contour>
    <contour>
      <point x="429" y="707" type="line"/>
      <point x="439.5" y="702" type="line"/>
      <point x="288.5" y="454" type="line"/>
      <point x="282.5" y="456" type="line"/>
    </contour>
  </outline>
</glyph>
<glyph name="Ldot" format="1">
  <advance width="417"/>
  <unicode hex="013F"/>
  <outline>
    <contour>
      <point x="180" y="699.5" type="line"/>
      <point x="190" y="699.5" type="line"/>
      <point x="71.5" y="10" type="line"/>
      <point x="372.5" y="10" type="line"/>
      <point x="371" y="0" type="line"/>
      <point x="60" y="0" type="line"/>
    </contour>
    <contour>
      <point x="304.5" y="414" type="curve" smooth="yes"/>
      <point x="305" y="419.5"/>
      <point x="311.5" y="425"/>
      <point x="317" y="425" type="curve" smooth="yes"/>
      <point x="322.5" y="425"/>
      <point x="326.5" y="420"/>
      <point x="326" y="414" type="curve" smooth="yes"/>
      <point x="325.5" y="408.5"/>
      <point x="319" y="403"/>
      <point x="313.5" y="403" type="curve" smooth="yes"/>
      <point x="308" y="403"/>
      <point x="304" y="408"/>
    </contour>
  </outline>
</glyph>
<glyph name="ldot" format="1">
  <advance width="359"/>
  <unicode hex="0140"/>
  <outline>
    <contour>
      <point x="189" y="779.5" type="line"/>
      <point x="199" y="779.5" type="line"/>
      <point x="64.5" y="0" type="line"/>
      <point x="54.5" y="0" type="line"/>
    </contour>
    <contour>
      <point x="263.5" y="396" type="curve" smooth="yes"/>
      <point x="264" y="401.5"/>
      <point x="270.5" y="407"/>
      <point x="276" y="407" type="curve" smooth="yes"/>
      <point x="281.5" y="407"/>
      <point x="285.5" y="402"/>
      <point x="285" y="396" type="curve" smooth="yes"/>
      <point x="284.5" y="390.5"/>
      <point x="278" y="385"/>
      <point x="272.5" y="385" type="curve" smooth="yes"/>
      <point x="267" y="385"/>
      <point x="263" y="390"/>
    </contour>
  </outline>
</glyph>
<glyph name="Lslash" format="1">
  <advance width="363"/>
  <unicode hex="0141"/>
  <outline>
    <contour>
      <point x="30" y="387.5" type="line"/>
      <point x="25.5" y="396" type="line"/>
      <point x="317" y="564.5" type="line"/>
      <point x="321.5" y="556" type="line"/>
    </contour>
    <contour>
      <point x="170.5" y="699.5" type="line"/>
      <point x="181.5" y="699.5" type="line"/>
      <point x="63" y="10" type="line"/>
      <point x="329" y="10" type="line"/>
      <point x="327" y="0" type="line"/>
      <point x="50" y="0" type="line"/>
    </contour>
  </outline>
</glyph>
<glyph name="Ncaron" format="1">
  <advance width="645"/>
  <unicode hex="0147"/>
  <outline>
    <contour>
      <point x="435" y="777.5" type="line"/>
      <point x="606.5" y="912" type="line"/>
      <point x="613" y="904" type="line"/>
      <point x="433.5" y="765.5" type="line"/>
      <point x="301.5" y="905" type="line"/>
      <point x="310.5" y="913" type="line"/>
    </contour>
    <contour>
      <point x="659.5" y="699.5" type="line"/>
      <point x="670.5" y="699.5" type="line"/>
      <point x="547.5" y="-15" type="line"/>
      <point x="148.5" y="678" type="line"/>
      <point x="31.5" y="0" type="line"/>
      <point x="20.5" y="0" type="line"/>
      <point x="143.5" y="715" type="line"/>
      <point x="542" y="17" type="line"/>
    </contour>
  </outline>
</glyph>
<glyph name="Eng" format="1">
  <advance width="725"/>
  <unicode hex="014A"/>
  <outline>
    <contour>
      <point x="455" y="-220" type="curve" smooth="yes"/>
      <point x="412" y="-220"/>
      <point x="389.5" y="-192"/>
      <point x="378" y="-172" type="curve"/>
      <point x="386.5" y="-165" type="line"/>
      <point x="399" y="-185"/>
      <point x="420" y="-210"/>
      <point x="457" y="-210" type="curve" smooth="yes"/>
      <point x="537" y="-210"/>
      <point x="567" y="-138"/>
      <point x="576.5" y="-82" type="curve" smooth="yes"/>
      <point x="589.5" y="-2" type="line"/>
      <point x="179.5" y="678" type="line"/>
      <point x="66" y="0" type="line"/>
      <point x="55" y="0" type="line"/>
      <point x="174.5" y="715" type="line"/>
      <point x="592" y="17" type="line"/>
      <point x="706" y="700" type="line"/>
      <point x="717" y="700" type="line"/>
      <point x="586.5" y="-82" type="line" smooth="yes"/>
      <point x="575" y="-151"/>
      <point x="539" y="-220"/>
    </contour>
  </outline>
</glyph>
<glyph name="eng" format="1">
  <advance width="475"/>
  <unicode hex="014B"/>
  <outline>
    <contour>
      <point x="210" y="-220" type="curve" smooth="yes"/>
      <point x="178" y="-220"/>
      <point x="152" y="-203"/>
      <point x="133" y="-172" type="curve"/>
      <point x="141.5" y="-165" type="line"/>
      <point x="160.5" y="-195"/>
      <point x="184" y="-210"/>
      <point x="212" y="-210" type="curve" smooth="yes"/>
      <point x="274" y="-210"/>
      <point x="318" y="-162"/>
      <point x="331.5" y="-82" type="curve" smooth="yes"/>
      <point x="398.5" y="320" type="line" smooth="yes"/>
      <point x="414" y="412"/>
      <point x="380" y="460"/>
      <point x="299" y="460" type="curve" smooth="yes"/>
      <point x="211" y="460"/>
      <point x="123.5" y="378"/>
      <point x="107" y="280" type="curve" smooth="yes"/>
      <point x="60" y="0" type="line"/>
      <point x="50" y="0" type="line"/>
      <point x="127" y="460" type="line"/>
      <point x="137" y="460" type="line"/>
      <point x="115" y="328" type="line"/>
      <point x="147" y="413"/>
      <point x="221.5" y="470"/>
      <point x="300.5" y="470" type="curve" smooth="yes"/>
      <point x="387.5" y="470"/>
      <point x="425" y="418"/>
      <point x="408.5" y="320" type="curve" smooth="yes"/>
      <point x="341.5" y="-82" type="line" smooth="yes"/>
      <point x="327" y="-170"/>
      <point x="279" y="-220"/>
    </contour>
  </outline>
</glyph>
<glyph name="OE" format="1">
  <advance width="922"/>
  <unicode hex="0152"/>
  <outline>
    <contour>
      <point x="540" y="385" type="line"/>
      <point x="542" y="395" type="line"/>
      <point x="865" y="395" type="line"/>
      <point x="863.5" y="385" type="line"/>
    </contour>
    <contour>
      <point x="592" y="694.5" type="line"/>
      <point x="602.5" y="694.5" type="line"/>
      <point x="483.5" y="5.5" type="line"/>
      <point x="473" y="5.5" type="line"/>
    </contour>
    <contour>
      <point x="820" y="10" type="line"/>
      <point x="818.5" y="0" type="line"/>
      <point x="352" y="0" type="line"/>
      <point x="152.5" y="3.5"/>
      <point x="42" y="159"/>
      <point x="71" y="350" type="curve" smooth="yes"/>
      <point x="103" y="550"/>
      <point x="265.5" y="697"/>
      <point x="470" y="700" type="curve"/>
      <point x="936.5" y="700" type="line"/>
      <point x="935" y="690" type="line"/>
      <point x="599" y="690" type="line"/>
      <point x="582.5" y="690" type="line"/>
      <point x="469.5" y="690" type="line"/>
      <point x="274.5" y="687"/>
      <point x="112.5" y="540.5"/>
      <point x="81" y="350" type="curve" smooth="yes"/>
      <point x="53" y="168.5"/>
      <point x="162.5" y="13.5"/>
      <point x="352.5" y="10" type="curve"/>
      <point x="462" y="10" type="line"/>
      <point x="485.5" y="10" type="line"/>
    </contour>
  </outline>
</glyph>
<glyph name="scircumflex" format="1">
  <advance width="391"/>
  <unicode hex="015D"/>
  <outline>
    <contour>
      <point x="46.5" y="147" type="line"/>
      <point x="50.5" y="78"/>
      <point x="73.5" y="0.5"/>
      <point x="164.5" y="0" type="curve" smooth="yes"/>
      <point x="234" y="-0.5"/>
      <point x="295.5" y="49"/>
      <point x="305.5" y="117" type="curve" smooth="yes"/>
      <point x="315.5" y="181.5"/>
      <point x="263.5" y="210.5"/>
      <point x="204" y="231" type="curve" smooth="yes"/>
      <point x="138" y="254"/>
      <point x="86.5" y="280"/>
      <point x="99" y="359" type="curve" smooth="yes"/>
      <point x="110.5" y="426.5"/>
      <point x="174" y="468"/>
      <point x="243.5" y="467.5" type="curve" smooth="yes"/>
      <point x="315" y="467"/>
      <point x="344.5" y="421.5"/>
      <point x="357" y="368" type="curve"/>
      <point x="347" y="365" type="line"/>
      <point x="335" y="414.5"/>
      <point x="308" y="457"/>
      <point x="243" y="457.5" type="curve" smooth="yes"/>
      <point x="180" y="458"/>
      <point x="119" y="420.5"/>
      <point x="108.5" y="359" type="curve" smooth="yes"/>
      <point x="96" y="284.5"/>
      <point x="148" y="261.5"/>
      <point x="210.5" y="240" type="curve" smooth="yes"/>
      <point x="271" y="219"/>
      <point x="325.5" y="186"/>
      <point x="315.5" y="117" type="curve" smooth="yes"/>
      <point x="305" y="42.5"/>
      <point x="240" y="-10"/>
      <point x="164" y="-9.5" type="curve" smooth="yes"/>
      <point x="66" y="-9"/>
      <point x="40" y="69.5"/>
      <point x="36.5" y="144" type="curve"/>
    </contour>
    <contour>
      <point x="278" y="664.5" type="line"/>
      <point x="106" y="531" type="line"/>
      <point x="100" y="538" type="line"/>
      <point x="279.5" y="676.5" type="line"/>
      <point x="411.5" y="537" type="line"/>
      <point x="403.5" y="530" type="line"/>
    </contour>
  </outline>
</glyph>
<glyph name="Scedilla" format="1">
  <advance width="473"/>
  <unicode hex="015E"/>
  <outline>
    <contour>
      <point x="55" y="197" type="line"/>
      <point x="68" y="109.5"/>
      <point x="105.5" y="4.5"/>
      <point x="220" y="3.5" type="curve" smooth="yes"/>
      <point x="337" y="2.5"/>
      <point x="406.5" y="77.5"/>
      <point x="422" y="175" type="curve" smooth="yes"/>
      <point x="435.5" y="269.5"/>
      <point x="368" y="325.5"/>
      <point x="293.5" y="359" type="curve" smooth="yes"/>
      <point x="215.5" y="393.5"/>
      <point x="128.5" y="448.5"/>
      <point x="144" y="550" type="curve" smooth="yes"/>
      <point x="158.5" y="641.5"/>
      <point x="245.5" y="708"/>
      <point x="338.5" y="707.5" type="curve" smooth="yes"/>
      <point x="441.5" y="707"/>
      <point x="483.5" y="626"/>
      <point x="492.5" y="550" type="curve"/>
      <point x="482.5" y="548" type="line"/>
      <point x="473" y="619"/>
      <point x="434.5" y="696"/>
      <point x="338" y="696.5" type="curve" smooth="yes"/>
      <point x="250" y="697"/>
      <point x="169" y="633.5"/>
      <point x="155" y="550" type="curve" smooth="yes"/>
      <point x="139" y="454.5"/>
      <point x="221.5" y="402.5"/>
      <point x="300" y="368" type="curve" smooth="yes"/>
      <point x="380" y="333"/>
      <point x="447" y="274"/>
      <point x="433" y="175" type="curve" smooth="yes"/>
      <point x="417" y="74.5"/>
      <point x="344" y="-8.5"/>
      <point x="219.5" y="-7.5" type="curve" smooth="yes"/>
      <point x="100.5" y="-6.5"/>
      <point x="59" y="98"/>
      <point x="45" y="193" type="curve"/>
    </contour>
    <contour>
      <point x="214.5" y="-1.5" type="line"/>
      <point x="226.5" y="-1.5" type="line"/>
      <point x="158" y="-76.5" type="line"/>
      <point x="182" y="-63.5"/>
      <point x="201.5" y="-52"/>
      <point x="230.5" y="-53.5" type="curve" smooth="yes"/>
      <point x="266.5" y="-55.5"/>
      <point x="294.5" y="-85"/>
      <point x="289.5" y="-127.5" type="curve" smooth="yes"/>
      <point x="282.5" y="-184.5"/>
      <point x="223.5" y="-221"/>
      <point x="169.5" y="-220.5" type="curve" smooth="yes"/>
      <point x="135" y="-220.5"/>
      <point x="113" y="-207.5"/>
      <point x="88.5" y="-183" type="curve"/>
      <point x="96" y="-177" type="line"/>
      <point x="119.5" y="-198"/>
      <point x="139.5" y="-210.5"/>
      <point x="170" y="-210.5" type="curve" smooth="yes"/>
      <point x="217.5" y="-210.5"/>
      <point x="272.5" y="-179"/>
      <point x="279.5" y="-127" type="curve" smooth="yes"/>
      <point x="284" y="-90"/>
      <point x="260.5" y="-65.5"/>
      <point x="229.5" y="-63.5" type="curve" smooth="yes"/>
      <point x="200" y="-61.5"/>
      <point x="170" y="-75"/>
      <point x="145.5" y="-88.5" type="curve"/>
    </contour>
  </outline>
</glyph>
<glyph name="scaron" format="1">
  <advance width="391"/>
  <unicode hex="0161"/>
  <outline>
    <contour>
      <point x="46.5" y="147" type="line"/>
      <point x="50.5" y="78"/>
      <point x="73.5" y="0.5"/>
      <point x="164.5" y="0" type="curve" smooth="yes"/>
      <point x="234" y="-0.5"/>
      <point x="295.5" y="49"/>
      <point x="305.5" y="117" type="curve" smooth="yes"/>
      <point x="315.5" y="181.5"/>
      <point x="263.5" y="210.5"/>
      <point x="204" y="231" type="curve" smooth="yes"/>
      <point x="138" y="254"/>
      <point x="86.5" y="280"/>
      <point x="99" y="359" type="curve" smooth="yes"/>
      <point x="110.5" y="426.5"/>
      <point x="174" y="468"/>
      <point x="243.5" y="467.5" type="curve" smooth="yes"/>
      <point x="315" y="467"/>
      <point x="344.5" y="421.5"/>
      <point x="357" y="368" type="curve"/>
      <point x="347" y="365" type="line"/>
      <point x="335" y="414.5"/>
      <point x="308" y="457"/>
      <point x="243" y="457.5" type="curve" smooth="yes"/>
      <point x="180" y="458"/>
      <point x="119" y="420.5"/>
      <point x="108.5" y="359" type="curve" smooth="yes"/>
      <point x="96" y="284.5"/>
      <point x="148" y="261.5"/>
      <point x="210.5" y="240" type="curve" smooth="yes"/>
      <point x="271" y="219"/>
      <point x="325.5" y="186"/>
      <point x="315.5" y="117" type="curve" smooth="yes"/>
      <point x="305" y="42.5"/>
      <point x="240" y="-10"/>
      <point x="164" y="-9.5" type="curve" smooth="yes"/>
      <point x="66" y="-9"/>
      <point x="40" y="69.5"/>
      <point x="36.5" y="144" type="curve"/>
    </contour>
    <contour>
      <point x="256" y="542.5" type="line"/>
      <point x="427.5" y="677" type="line"/>
      <point x="434.5" y="669" type="line"/>
      <point x="255" y="530.5" type="line"/>
      <point x="122.5" y="670" type="line"/>
      <point x="131.5" y="678" type="line"/>
    </contour>
  </outline>
</glyph>
<glyph name="tcaron" format="1">
  <advance width="271"/>
  <unicode hex="0165"/>
  <outline>
    <contour>
      <point x="66" y="460" type="line"/>
      <point x="221.5" y="460" type="line"/>
      <point x="219.5" y="450" type="line"/>
      <point x="64" y="450" type="line"/>
    </contour>
    <contour>
      <point x="166.5" y="619.5" type="line"/>
      <point x="176.5" y="619.5" type="line"/>
      <point x="69.5" y="0" type="line"/>
      <point x="59.5" y="0" type="line"/>
    </contour>
    <contour>
      <point x="371.5" y="774" type="line"/>
      <point x="382" y="769" type="line"/>
      <point x="231" y="521" type="line"/>
      <point x="225" y="523" type="line"/>
    </contour>
  </outline>
</glyph>
<glyph name="utilde" format="1">
  <advance width="460"/>
  <unicode hex="0169"/>
  <outline>
    <contour>
      <point x="341" y="0" type="line"/>
      <point x="420.5" y="459.5" type="line"/>
      <point x="430.5" y="459.5" type="line"/>
      <point x="351" y="0" type="line"/>
    </contour>
    <contour>
      <point x="90.5" y="150" type="line" smooth="yes"/>
      <point x="80.5" y="72.5"/>
      <point x="95" y="1"/>
      <point x="184" y="0.5" type="curve" smooth="yes"/>
      <point x="280.5" y="-0.5"/>
      <point x="352.5" y="90.5"/>
      <point x="373" y="179" type="curve"/>
      <point x="378.5" y="179" type="line"/>
      <point x="358" y="81"/>
      <point x="284.5" y="-10.5"/>
      <point x="183" y="-9.5" type="curve" smooth="yes"/>
      <point x="88" y="-9"/>
      <point x="69.5" y="65.5"/>
      <point x="80.5" y="150" type="curve" smooth="yes"/>
      <point x="134.5" y="459.5" type="line"/>
      <point x="144.5" y="459.5" type="line"/>
    </contour>
    <contour>
      <point x="171.5" y="531.5" type="line"/>
      <point x="181" y="559.5"/>
      <point x="201" y="588.5"/>
      <point x="242" y="588.5" type="curve" smooth="yes"/>
      <point x="289.5" y="588.5"/>
      <point x="307" y="541.5"/>
      <point x="354" y="542.5" type="curve" smooth="yes"/>
      <point x="383" y="543"/>
      <point x="400.5" y="564"/>
      <point x="417.5" y="589.5" type="curve"/>
      <point x="426" y="586.5" type="line"/>
      <point x="407.5" y="557"/>
      <point x="385" y="534.5"/>
      <point x="353" y="534.5" type="curve" smooth="yes"/>
      <point x="306" y="534.5"/>
      <point x="285.5" y="580"/>
      <point x="243.5" y="580.5" type="curve" smooth="yes"/>
      <point x="206.5" y="581"/>
      <point x="189" y="555"/>
      <point x="180.5" y="530.5" type="curve"/>
    </contour>
  </outline>
</glyph>
<glyph name="Umacron" format="1">
  <advance width="558"/>
  <unicode hex="016A"/>
  <outline>
    <contour>
      <point x="175.5" y="699.5" type="line"/>
      <point x="186" y="699.5" type="line"/>
      <point x="103.5" y="220" type="line" smooth="yes"/>
      <point x="88.5" y="104"/>
      <point x="129" y="2"/>
      <point x="252" y="1.5" type="curve" smooth="yes"/>
      <point x="375" y="1"/>
      <point x="456" y="98"/>
      <point x="476" y="220" type="curve" smooth="yes"/>
      <point x="558.5" y="699.5" type="line"/>
      <point x="569.5" y="699.5" type="line"/>
      <point x="487.5" y="220" type="line" smooth="yes"/>
      <point x="466.5" y="92.5"/>
      <point x="386" y="-10"/>
      <point x="251.5" y="-9.5" type="curve" smooth="yes"/>
      <point x="117" y="-9"/>
      <point x="77" y="98.5"/>
      <point x="93" y="220" type="curve" smooth="yes"/>
    </contour>
    <contour>
      <point x="213.5" y="768" type="line"/>
      <point x="215" y="778" type="line"/>
      <point x="555" y="778" type="line"/>
      <point x="553.5" y="768" type="line"/>
    </contour>
  </outline>
</glyph>
<glyph name="Uring" format="1">
  <advance width="558"/>
  <unicode hex="016E"/>
  <outline>
    <contour>
      <point x="175.5" y="699.5" type="line"/>
      <point x="186" y="699.5" type="line"/>
      <point x="103.5" y="220" type="line" smooth="yes"/>
      <point x="88.5" y="104"/>
      <point x="129" y="2"/>
      <point x="252" y="1.5" type="curve" smooth="yes"/>
      <point x="375" y="1"/>
      <point x="456" y="98"/>
      <point x="476" y="220" type="curve" smooth="yes"/>
      <point x="558.5" y="699.5" type="line"/>
      <point x="569.5" y="699.5" type="line"/>
      <point x="487.5" y="220" type="line" smooth="yes"/>
      <point x="466.5" y="92.5"/>
      <point x="386" y="-10"/>
      <point x="251.5" y="-9.5" type="curve" smooth="yes"/>
      <point x="117" y="-9"/>
      <point x="77" y="98.5"/>
      <point x="93" y="220" type="curve" smooth="yes"/>
    </contour>
    <contour>
      <point x="301" y="868.5" type="curve" smooth="yes"/>
      <point x="309.5" y="924"/>
      <point x="364" y="968"/>
      <point x="417.5" y="967.5" type="curve" smooth="yes"/>
      <point x="470.5" y="967"/>
      <point x="508" y="921.5"/>
      <point x="500" y="867.5" type="curve" smooth="yes"/>
      <point x="491.5" y="812"/>
      <point x="437" y="768"/>
      <point x="383.5" y="768.5" type="curve" smooth="yes"/>
      <point x="330.5" y="769"/>
      <point x="293" y="814.5"/>
    </contour>
    <contour>
      <point x="311" y="868" type="curve" smooth="yes"/>
      <point x="304" y="820.5"/>
      <point x="336.5" y="779.5"/>
      <point x="384.5" y="778.5" type="curve" smooth="yes"/>
      <point x="433" y="777.5"/>
      <point x="482.5" y="819"/>
      <point x="490" y="868" type="curve" smooth="yes"/>
      <point x="497" y="915.5"/>
      <point x="464.5" y="956.5"/>
      <point x="416.5" y="957.5" type="curve" smooth="yes"/>
      <point x="368" y="958.5"/>
      <point x="318.5" y="917"/>
    </contour>
  </outline>
</glyph>
<glyph name="uring" format="1">
  <advance width="460"/>
  <unicode hex="016F"/>
  <outline>
    <contour>
      <point x="341" y="0" type="line"/>
      <point x="420.5" y="459.5" type="line"/>
      <point x="430.5" y="459.5" type="line"/>
      <point x="351" y="0" type="line"/>
    </contour>
    <contour>
      <point x="90.5" y="150" type="line" smooth="yes"/>
      <point x="80.5" y="72.5"/>
      <point x="95" y="1"/>
      <point x="184" y="0.5" type="curve" smooth="yes"/>
      <point x="280.5" y="-0.5"/>
      <point x="352.5" y="90.5"/>
      <point x="373" y="179" type="curve"/>
      <point x="378.5" y="179" type="line"/>
      <point x="358" y="81"/>
      <point x="284.5" y="-10.5"/>
      <point x="183" y="-9.5" type="curve" smooth="yes"/>
      <point x="88" y="-9"/>
      <point x="69.5" y="65.5"/>
      <point x="80.5" y="150" type="curve" smooth="yes"/>
      <point x="134.5" y="459.5" type="line"/>
      <point x="144.5" y="459.5" type="line"/>
    </contour>
    <contour>
      <point x="211.25" y="630.5" type="curve" smooth="yes"/>
      <point x="219.75" y="686"/>
      <point x="274.25" y="730"/>
      <point x="327.75" y="729.5" type="curve" smooth="yes"/>
      <point x="380.75" y="729"/>
      <point x="418.25" y="683.5"/>
      <point x="410.25" y="629.5" type="curve" smooth="yes"/>
      <point x="401.75" y="574"/>
      <point x="347.25" y="530"/>
      <point x="293.75" y="530.5" type="curve" smooth="yes"/>
      <point x="240.75" y="531"/>
      <point x="203.25" y="576.5"/>
    </contour>
    <contour>
      <point x="221.25" y="630" type="curve" smooth="yes"/>
      <point x="214.25" y="582.5"/>
      <point x="246.75" y="541.5"/>
      <point x="294.75" y="540.5" type="curve" smooth="yes"/>
      <point x="343.25" y="539.5"/>
      <point x="392.75" y="581"/>
      <point x="400.25" y="630" type="curve" smooth="yes"/>
      <point x="407.25" y="677.5"/>
      <point x="375.25" y="718.5"/>
      <point x="327.25" y="719.5" type="curve" smooth="yes"/>
      <point x="278.75" y="720.5"/>
      <point x="228.75" y="679"/>
    </contour>
  </outline>
</glyph>
<glyph name="wcircumflex" format="1">
  <advance width="601"/>
  <unicode hex="0175"/>
  <outline>
    <contour>
      <point x="66.5" y="460" type="line"/>
      <point x="76" y="460" type="line"/>
      <point x="132.5" y="19" type="line"/>
      <point x="350.5" y="475.5" type="line"/>
      <point x="419.5" y="18.5" type="line"/>
      <point x="629.5" y="459.5" type="line"/>
      <point x="639.5" y="459.5" type="line"/>
      <point x="414" y="-15.5" type="line"/>
      <point x="345" y="440.5" type="line"/>
      <point x="126.5" y="-15.5" type="line"/>
    </contour>
    <contour>
      <point x="385.194" y="670" type="line"/>
      <point x="212.694" y="536.5" type="line"/>
      <point x="206.694" y="543.5" type="line"/>
      <point x="386.194" y="682" type="line"/>
      <point x="518.194" y="542.5" type="line"/>
      <point x="510.694" y="535.5" type="line"/>
    </contour>
  </outline>
</glyph>
<glyph name="Ycircumflex" format="1">
  <advance width="492"/>
  <unicode hex="0176"/>
  <outline>
    <contour>
      <point x="557.5" y="699" type="line"/>
      <point x="570.5" y="699" type="line"/>
      <point x="265" y="266.5" type="line"/>
      <point x="219" y="0" type="line"/>
      <point x="208" y="0" type="line"/>
      <point x="254.5" y="266.5" type="line"/>
      <point x="107" y="700" type="line"/>
      <point x="119.5" y="700" type="line"/>
      <point x="261" y="281.5" type="line"/>
    </contour>
    <contour>
      <point x="365.329" y="902.5" type="line"/>
      <point x="192.829" y="769" type="line"/>
      <point x="186.829" y="776" type="line"/>
      <point x="366.329" y="914.5" type="line"/>
      <point x="498.329" y="775" type="line"/>
      <point x="490.829" y="768" type="line"/>
    </contour>
  </outline>
</glyph>
<glyph name="ycircumflex" format="1">
  <advance width="412"/>
  <unicode hex="0177"/>
  <outline>
    <contour>
      <point x="455" y="459.5" type="line"/>
      <point x="46.5" y="-219.5" type="line"/>
      <point x="35.5" y="-219" type="line"/>
      <point x="180.5" y="20.5" type="line"/>
      <point x="61" y="460" type="line"/>
      <point x="72" y="460" type="line"/>
      <point x="191" y="20" type="line"/>
      <point x="179.5" y="20.5" type="line"/>
      <point x="444" y="459.5" type="line"/>
    </contour>
    <contour>
      <point x="286.002" y="664" type="line"/>
      <point x="113.502" y="530.5" type="line"/>
      <point x="107.502" y="537.5" type="line"/>
      <point x="287.002" y="676" type="line"/>
      <point x="419.002" y="536.5" type="line"/>
      <point x="411.502" y="529.5" type="line"/>
    </contour>
  </outline>
</glyph>
<glyph name="zacute" format="1">
  <advance width="417"/>
  <unicode hex="017A"/>
  <outline>
    <contour>
      <point x="417" y="449.5" type="line"/>
      <point x="88.5" y="450" type="line"/>
      <point x="90" y="460" type="line"/>
      <point x="440" y="459.5" type="line"/>
      <point x="14.5" y="10.5" type="line"/>
      <point x="372.5" y="10" type="line"/>
      <point x="371" y="0" type="line"/>
      <point x="-8.5" y="0" type="line"/>
    </contour>
    <contour>
      <point x="446" y="686" type="line"/>
      <point x="249.5" y="531" type="line"/>
      <point x="246" y="536" type="line"/>
      <point x="439" y="694" type="line"/>
    </contour>
  </outline>
</glyph>
<glyph name="zdotaccent" format="1">
  <advance width="417"/>
  <unicode hex="017C"/>
  <outline>
    <contour>
      <point x="417" y="449.5" type="line"/>
      <point x="88.5" y="450" type="line"/>
      <point x="90" y="460" type="line"/>
      <point x="440" y="459.5" type="line"/>
      <point x="14.5" y="10.5" type="line"/>
      <point x="372.5" y="10" type="line"/>
      <point x="371" y="0" type="line"/>
      <point x="-8.5" y="0" type="line"/>
    </contour>
    <contour>
      <point x="273" y="571" type="curve" smooth="yes"/>
      <point x="273.5" y="576.5"/>
      <point x="280" y="582"/>
      <point x="285.5" y="582" type="curve" smooth="yes"/>
      <point x="291" y="582"/>
      <point x="295" y="577"/>
      <point x="294.5" y="571" type="curve" smooth="yes"/>
      <point x="294" y="565.5"/>
      <point x="287.5" y="560"/>
      <point x="282" y="560" type="curve" smooth="yes"/>
      <point x="276.5" y="560"/>
      <point x="272.5" y="565"/>
    </contour>
  </outline>
</glyph>
<glyph name="Zcaron" format="1">
  <advance width="519"/>
  <unicode hex="017D"/>
  <outline>
    <contour>
      <point x="129" y="689" type="line"/>
      <point x="131" y="700" type="line"/>
      <point x="597.5" y="699.5" type="line"/>
      <point x="16" y="11.5" type="line"/>
      <point x="470" y="11" type="line"/>
      <point x="468" y="0" type="line"/>
      <point x="-8.5" y="0" type="line"/>
      <point x="573.5" y="688.5" type="line"/>
    </contour>
    <contour>
      <point x="377" y="780.5" type="line"/>
      <point x="548.5" y="915" type="line"/>
      <point x="555.5" y="907" type="line"/>
      <point x="376" y="768.5" type="line"/>
      <point x="244" y="908" type="line"/>
      <point x="252.5" y="916" type="line"/>
    </contour>
  </outline>
</glyph>
<glyph name="uni0212" format="1">
  <advance width="454"/>
  <unicode hex="0212"/>
  <outline>
    <contour>
      <point x="220" y="317" type="line"/>
      <point x="231.5" y="317" type="line"/>
      <point x="393" y="0" type="line"/>
      <point x="380" y="0" type="line"/>
    </contour>
    <contour>
      <point x="180" y="699.5" type="line"/>
      <point x="191" y="699.5" type="line"/>
      <point x="70.5" y="0" type="line"/>
      <point x="59.5" y="0" type="line"/>
    </contour>
    <contour>
      <point x="179.5" y="689" type="line"/>
      <point x="181.5" y="700" type="line"/>
      <point x="291" y="700" type="line"/>
      <point x="415" y="698"/>
      <point x="507.5" y="631"/>
      <point x="487.5" y="507" type="curve" smooth="yes"/>
      <point x="467" y="381"/>
      <point x="355.5" y="316"/>
      <point x="226" y="314" type="curve"/>
      <point x="115.5" y="314" type="line"/>
      <point x="117.5" y="324" type="line"/>
      <point x="226.5" y="324" type="line"/>
      <point x="351.5" y="326"/>
      <point x="457" y="387"/>
      <point x="477" y="507" type="curve" smooth="yes"/>
      <point x="496.5" y="625.5"/>
      <point x="409.5" y="686.5"/>
      <point x="290" y="689" type="curve"/>
    </contour>
    <contour>
      <point x="200" y="768.5" type="curve"/>
      <point x="209.5" y="768.5" type="line"/>
      <point x="229" y="836"/>
      <point x="288" y="897.5"/>
      <point x="376" y="897.5" type="curve" smooth="yes"/>
      <point x="462" y="897.5"/>
      <point x="503" y="836.5"/>
      <point x="497.5" y="768" type="curve"/>
      <point x="507" y="768" type="line"/>
      <point x="514.5" y="840.5"/>
      <point x="474.5" y="907"/>
      <point x="379" y="907.5" type="curve" smooth="yes"/>
      <point x="281" y="908"/>
      <point x="220.5" y="840.5"/>
    </contour>
  </outline>
</glyph>
<glyph name="uni021B" format="1">
  <advance width="184"/>
  <unicode hex="021B"/>
  <outline>
    <contour>
      <point x="68" y="460" type="line"/>
      <point x="223.5" y="460" type="line"/>
      <point x="221.5" y="450" type="line"/>
      <point x="66" y="450" type="line"/>
    </contour>
    <contour>
      <point x="166.5" y="619.5" type="line"/>
      <point x="176.5" y="619.5" type="line"/>
      <point x="69.5" y="0" type="line"/>
      <point x="59.5" y="0" type="line"/>
    </contour>
    <contour>
      <point x="100.803" y="-60" type="line"/>
      <point x="110.803" y="-65" type="line"/>
      <point x="-40.1973" y="-313" type="line"/>
      <point x="-46.1973" y="-311" type="line"/>
    </contour>
  </outline>
</glyph>
<glyph name="circumflex" format="1">
  <advance width="465"/>
  <unicode hex="02C6"/>
  <outline>
    <contour>
      <point x="329" y="717.5" type="line"/>
      <point x="156.5" y="584" type="line"/>
      <point x="150.5" y="591" type="line"/>
      <point x="330" y="729.5" type="line"/>
      <point x="462" y="590" type="line"/>
      <point x="454.5" y="583" type="line"/>
    </contour>
  </outline>
</glyph>
<glyph name="tilde" format="1">
  <advance width="514"/>
  <unicode hex="02DC"/>
  <outline>
    <contour>
      <point x="220" y="649.5" type="line"/>
      <point x="229" y="677.5"/>
      <point x="248" y="706.5"/>
      <point x="289" y="706.5" type="curve" smooth="yes"/>
      <point x="336.5" y="706.5"/>
      <point x="355" y="659.5"/>
      <point x="402.5" y="660.5" type="curve" smooth="yes"/>
      <point x="431.5" y="661"/>
      <point x="448" y="682"/>
      <point x="464.5" y="707.5" type="curve"/>
      <point x="473.5" y="704.5" type="line"/>
      <point x="455" y="675"/>
      <point x="432.5" y="652.5"/>
      <point x="401" y="652.5" type="curve" smooth="yes"/>
      <point x="354" y="652.5"/>
      <point x="333" y="698"/>
      <point x="291" y="698.5" type="curve" smooth="yes"/>
      <point x="254" y="699"/>
      <point x="237.5" y="673"/>
      <point x="229" y="648.5" type="curve"/>
    </contour>
  </outline>
</glyph>
<glyph name="hungarumlaut" format="1">
  <advance width="0"/>
  <unicode hex="02DD"/>
  <outline>
    <contour>
      <point x="59.5" y="529" type="line"/>
      <point x="54" y="532" type="line"/>
      <point x="194" y="740" type="line"/>
      <point x="203" y="735" type="line"/>
    </contour>
    <contour>
      <point x="159.5" y="529" type="line"/>
      <point x="154" y="532" type="line"/>
      <point x="294" y="740" type="line"/>
      <point x="303" y="735" type="line"/>
    </contour>
  </outline>
</glyph>
<glyph name="gravecomb" format="1">
  <advance width="0"/>
  <unicode hex="0300"/>
  <outline>
    <contour>
      <point x="227.5" y="535" type="line"/>
      <point x="81" y="692" type="line"/>
      <point x="91.5" y="700" type="line"/>
      <point x="235" y="540" type="line"/>
    </contour>
  </outline>
</glyph>
<glyph name="acutecomb" format="1">
  <advance width="0"/>
  <unicode hex="0301"/>
  <outline>
    <contour>
      <point x="77" y="534.5" type="line"/>
      <point x="70.5" y="540" type="line"/>
      <point x="267" y="700" type="line"/>
      <point x="276.5" y="691.5" type="line"/>
    </contour>
  </outline>
</glyph>
<glyph name="uni0302" format="1">
  <advance width="0"/>
  <unicode hex="0302"/>
  <outline>
    <contour>
      <point x="71" y="583" type="line"/>
      <point x="63.5" y="590" type="line"/>
      <point x="247" y="730" type="line"/>
      <point x="383.5" y="590" type="line"/>
      <point x="375.5" y="583" type="line"/>
      <point x="243.5" y="719" type="line"/>
      <point x="247.5" y="719" type="line"/>
    </contour>
  </outline>
</glyph>
<glyph name="tildecomb" format="1">
  <advance width="0"/>
  <unicode hex="0303"/>
  <outline>
    <contour>
      <point x="82.5" y="648" type="curve"/>
      <point x="73.5" y="649" type="line"/>
      <point x="78.5" y="678"/>
      <point x="101.5" y="707"/>
      <point x="145.5" y="707" type="curve" smooth="yes"/>
      <point x="201.5" y="707"/>
      <point x="208" y="660"/>
      <point x="260" y="660" type="curve" smooth="yes"/>
      <point x="290" y="660"/>
      <point x="305" y="676"/>
      <point x="325.5" y="708" type="curve"/>
      <point x="334" y="705" type="line"/>
      <point x="312" y="668"/>
      <point x="291" y="652"/>
      <point x="259" y="652" type="curve" smooth="yes"/>
      <point x="205" y="652"/>
      <point x="194.5" y="699"/>
      <point x="146.5" y="699" type="curve" smooth="yes"/>
      <point x="114.5" y="699"/>
      <point x="87.5" y="678"/>
    </contour>
  </outline>
</glyph>
<glyph name="uni0304" format="1">
  <advance width="0"/>
  <unicode hex="0304"/>
  <outline>
    <contour>
      <point x="76.5" y="665" type="line"/>
      <point x="78" y="675" type="line"/>
      <point x="428" y="675" type="line"/>
      <point x="426.5" y="665" type="line"/>
    </contour>
  </outline>
</glyph>
<glyph name="uni0306" format="1">
  <advance width="0"/>
  <unicode hex="0306"/>
  <outline>
    <contour>
      <point x="221" y="585" type="curve" smooth="yes"/>
      <point x="129" y="585"/>
      <point x="71.5" y="635"/>
      <point x="83" y="705" type="curve"/>
      <point x="93" y="705" type="line"/>
      <point x="82.5" y="643"/>
      <point x="137.5" y="596"/>
      <point x="221.5" y="596" type="curve" smooth="yes"/>
      <point x="305.5" y="596"/>
      <point x="378.5" y="643"/>
      <point x="389" y="705" type="curve"/>
      <point x="399" y="705" type="line"/>
      <point x="387.5" y="635"/>
      <point x="313" y="585"/>
    </contour>
  </outline>
</glyph>
<glyph name="uni0307" format="1">
  <advance width="0"/>
  <unicode hex="0307"/>
  <outline>
    <contour>
      <point x="87.5" y="654" type="curve" smooth="yes"/>
      <point x="81.5" y="654"/>
      <point x="76.5" y="659"/>
      <point x="76.5" y="665" type="curve" smooth="yes"/>
      <point x="76.5" y="671"/>
      <point x="81.5" y="676"/>
      <point x="87.5" y="676" type="curve" smooth="yes"/>
      <point x="93.5" y="676"/>
      <point x="98.5" y="671"/>
      <point x="98.5" y="665" type="curve" smooth="yes"/>
      <point x="98.5" y="659"/>
      <point x="93.5" y="654"/>
    </contour>
  </outline>
</glyph>
<glyph name="uni030A" format="1">
  <advance width="0"/>
  <unicode hex="030A"/>
  <outline>
    <contour>
      <point x="155.5" y="530" type="curve" smooth="yes"/>
      <point x="99.5" y="530"/>
      <point x="61" y="574"/>
      <point x="70.5" y="630" type="curve" smooth="yes"/>
      <point x="80" y="686"/>
      <point x="133" y="730"/>
      <point x="189" y="730" type="curve" smooth="yes"/>
      <point x="245" y="730"/>
      <point x="284" y="686"/>
      <point x="274.5" y="630" type="curve" smooth="yes"/>
      <point x="265" y="574"/>
      <point x="211.5" y="530"/>
    </contour>
    <contour>
      <point x="155.5" y="539.5" type="curve" smooth="yes"/>
      <point x="206.5" y="539.5"/>
      <point x="256" y="580"/>
      <point x="264.5" y="630" type="curve" smooth="yes"/>
      <point x="273" y="680"/>
      <point x="239.5" y="720"/>
      <point x="188.5" y="720" type="curve" smooth="yes"/>
      <point x="137.5" y="720"/>
      <point x="89" y="680"/>
      <point x="80.5" y="630" type="curve" smooth="yes"/>
      <point x="72" y="580"/>
      <point x="104.5" y="539.5"/>
    </contour>
  </outline>
</glyph>
<glyph name="uni030B" format="1">
  <advance width="0"/>
  <unicode hex="030B"/>
  <outline>
    <contour>
      <point x="59.5" y="529" type="line"/>
      <point x="54" y="532" type="line"/>
      <point x="194" y="740" type="line"/>
      <point x="203" y="735" type="line"/>
    </contour>
    <contour>
      <point x="159.5" y="529" type="line"/>
      <point x="154" y="532" type="line"/>
      <point x="294" y="740" type="line"/>
      <point x="303" y="735" type="line"/>
    </contour>
  </outline>
</glyph>
<glyph name="uni030C" format="1">
  <advance width="0"/>
  <unicode hex="030C"/>
  <outline>
    <contour>
      <point x="222.5" y="583" type="line"/>
      <point x="86" y="723" type="line"/>
      <point x="94" y="730" type="line"/>
      <point x="226" y="593" type="line"/>
      <point x="221" y="593.5" type="line"/>
      <point x="399" y="730.5" type="line"/>
      <point x="406" y="723" type="line"/>
    </contour>
  </outline>
</glyph>
<glyph name="uni0312" format="1">
  <advance width="0"/>
  <unicode hex="0312"/>
  <outline>
    <contour>
      <point x="63" y="519" type="line"/>
      <point x="52.5" y="524" type="line"/>
      <point x="204.5" y="774" type="line"/>
      <point x="210" y="772" type="line"/>
    </contour>
  </outline>
</glyph>
<glyph name="uni0327" format="1">
  <advance width="0"/>
  <unicode hex="0327"/>
  <outline>
    <contour>
      <point x="17" y="-220" type="curve" smooth="yes"/>
      <point x="-17" y="-220"/>
      <point x="-44" y="-208"/>
      <point x="-65.5" y="-182" type="curve"/>
      <point x="-56.5" y="-174.5" type="line"/>
      <point x="-38.5" y="-198.5"/>
      <point x="-16" y="-210"/>
      <point x="17" y="-210" type="curve" smooth="yes"/>
      <point x="74" y="-210"/>
      <point x="121.5" y="-176"/>
      <point x="130" y="-126" type="curve" smooth="yes"/>
      <point x="136.5" y="-86"/>
      <point x="115.5" y="-62"/>
      <point x="77.5" y="-62" type="curve" smooth="yes"/>
      <point x="51.5" y="-62"/>
      <point x="17" y="-72"/>
      <point x="-7.5" y="-88" type="curve"/>
      <point x="62" y="0" type="line"/>
      <point x="72.5" y="0" type="line"/>
      <point x="15" y="-74" type="line"/>
      <point x="4" y="-77" type="line"/>
      <point x="19.5" y="-63"/>
      <point x="53.5" y="-52"/>
      <point x="79.5" y="-52" type="curve" smooth="yes"/>
      <point x="123.5" y="-52"/>
      <point x="149" y="-84"/>
      <point x="142" y="-126" type="curve" smooth="yes"/>
      <point x="133" y="-180"/>
      <point x="79" y="-220"/>
    </contour>
  </outline>
</glyph>
<glyph name="uni0328" format="1">
  <advance width="0"/>
  <unicode hex="0328"/>
  <outline>
    <contour>
      <point x="31" y="-220" type="curve" smooth="yes"/>
      <point x="-33" y="-220"/>
      <point x="-66.5" y="-189"/>
      <point x="-58.5" y="-140" type="curve" smooth="yes"/>
      <point x="-47" y="-71"/>
      <point x="43.5" y="-26"/>
      <point x="119.5" y="10" type="curve"/>
      <point x="125" y="0" type="line"/>
      <point x="51.5" y="-32"/>
      <point x="-39" y="-83"/>
      <point x="-48.5" y="-140" type="curve" smooth="yes"/>
      <point x="-56" y="-186"/>
      <point x="-19" y="-210"/>
      <point x="31" y="-210" type="curve" smooth="yes"/>
      <point x="71" y="-210"/>
      <point x="111.5" y="-191"/>
      <point x="129.5" y="-173" type="curve"/>
      <point x="136" y="-180" type="line"/>
      <point x="117.5" y="-200"/>
      <point x="74" y="-220"/>
    </contour>
  </outline>
</glyph>
<glyph name="uni0394" format="1">
  <advance width="600"/>
  <unicode hex="0394"/>
  <outline>
    <contour>
      <point x="1" y="0" type="line"/>
      <point x="525" y="0" type="line"/>
      <point x="384.5" y="726" type="line"/>
    </contour>
    <contour>
      <point x="18.5" y="9" type="line"/>
      <point x="379.5" y="693.5" type="line"/>
      <point x="512.5" y="9" type="line"/>
    </contour>
  </outline>
</glyph>
<glyph name="uni03A9" format="1">
  <advance width="600"/>
  <unicode hex="03A9"/>
  <outline>
    <contour>
      <point x="31" y="0" type="line"/>
      <point x="227" y="0" type="line"/>
      <point x="227.5" y="2" type="line"/>
      <point x="133.5" y="55"/>
      <point x="75" y="192"/>
      <point x="95" y="312" type="curve" smooth="yes"/>
      <point x="118" y="448"/>
      <point x="231" y="550"/>
      <point x="357" y="550" type="curve" smooth="yes"/>
      <point x="483" y="550"/>
      <point x="561.42" y="447.857"/>
      <point x="538" y="312" type="curve" smooth="yes"/>
      <point x="518.5" y="195.5"/>
      <point x="415" y="54"/>
      <point x="303.5" y="2" type="curve"/>
      <point x="303" y="0" type="line"/>
      <point x="499" y="0" type="line"/>
      <point x="500.5" y="8" type="line"/>
      <point x="332.5" y="8" type="line"/>
      <point x="437" y="72"/>
      <point x="528.5" y="200"/>
      <point x="547" y="312" type="curve" smooth="yes"/>
      <point x="570.5" y="453"/>
      <point x="489" y="558"/>
      <point x="357" y="558" type="curve" smooth="yes"/>
      <point x="226" y="558"/>
      <point x="109.5" y="453"/>
      <point x="86" y="312" type="curve" smooth="yes"/>
      <point x="67.5" y="200"/>
      <point x="117" y="72"/>
      <point x="200.5" y="8" type="curve"/>
      <point x="32.5" y="8" type="line"/>
    </contour>
  </outline>
</glyph>
<glyph name="pi" format="1">
  <advance width="456"/>
  <unicode hex="03C0"/>
  <outline>
    <contour>
      <point x="137.5" y="449.5" type="line"/>
      <point x="147.5" y="449.5" type="line"/>
      <point x="69.5" y="0" type="line"/>
      <point x="59.5" y="0" type="line"/>
    </contour>
    <contour>
      <point x="80.5" y="460" type="line"/>
      <point x="468.5" y="460" type="line"/>
      <point x="467" y="450" type="line"/>
      <point x="78.5" y="450" type="line"/>
    </contour>
    <contour>
      <point x="380" y="449.5" type="line"/>
      <point x="390" y="449.5" type="line"/>
      <point x="333" y="121" type="line" smooth="yes"/>
      <point x="324.5" y="49"/>
      <point x="313" y="15"/>
      <point x="364" y="1" type="curve"/>
      <point x="362.5" y="-8.5" type="line"/>
      <point x="304" y="3.5"/>
      <point x="314.5" y="41"/>
      <point x="323.5" y="121" type="curve" smooth="yes"/>
    </contour>
  </outline>
</glyph>
<glyph name="uni0411" format="1">
  <advance width="492"/>
  <unicode hex="0411"/>
  <outline>
    <contour>
      <point x="127" y="410" type="line"/>
      <point x="129" y="420" type="line"/>
      <point x="265.5" y="420" type="line" smooth="yes"/>
      <point x="392.5" y="420"/>
      <point x="483.5" y="333.5"/>
      <point x="463.5" y="210" type="curve" smooth="yes"/>
      <point x="442.5" y="83.5"/>
      <point x="329" y="0"/>
      <point x="197.5" y="0" type="curve" smooth="yes"/>
      <point x="57" y="0" type="line"/>
      <point x="59" y="10" type="line"/>
      <point x="197" y="10" type="line" smooth="yes"/>
      <point x="323" y="10"/>
      <point x="433.5" y="90.5"/>
      <point x="453.5" y="210" type="curve" smooth="yes"/>
      <point x="472.5" y="326.5"/>
      <point x="388" y="410"/>
      <point x="266.5" y="410" type="curve" smooth="yes"/>
    </contour>
    <contour>
      <point x="170" y="700" type="line"/>
      <point x="495" y="700" type="line"/>
      <point x="493.5" y="690" type="line"/>
      <point x="178.5" y="690" type="line"/>
      <point x="59.5" y="0" type="line"/>
      <point x="50" y="0" type="line"/>
    </contour>
  </outline>
</glyph>
<glyph name="uni0413" format="1">
  <advance width="422"/>
  <unicode hex="0413"/>
  <outline>
    <contour>
      <point x="170" y="700" type="line"/>
      <point x="505" y="700" type="line"/>
      <point x="503" y="690" type="line"/>
      <point x="178.5" y="690" type="line"/>
      <point x="59.5" y="0" type="line"/>
      <point x="50" y="0" type="line"/>
    </contour>
  </outline>
</glyph>
<glyph name="uni0414" format="1">
  <advance width="771"/>
  <unicode hex="0414"/>
  <outline>
    <contour>
      <point x="477.5" y="705" type="line"/>
      <point x="92.5" y="9" type="line"/>
      <point x="80.5" y="9" type="line"/>
      <point x="482" y="735" type="line"/>
      <point x="634.5" y="8.5" type="line"/>
      <point x="622.5" y="8.5" type="line"/>
    </contour>
    <contour>
      <point x="691" y="0" type="line"/>
      <point x="22" y="0" type="line"/>
      <point x="2" y="-109.5" type="line"/>
      <point x="-8" y="-109.5" type="line"/>
      <point x="13.5" y="10" type="line"/>
      <point x="703" y="10" type="line"/>
      <point x="681.5" y="-109.5" type="line"/>
      <point x="671" y="-109.5" type="line"/>
    </contour>
  </outline>
</glyph>
<glyph name="uni0417" format="1">
  <advance width="588"/>
  <unicode hex="0417"/>
  <outline>
    <contour>
      <point x="309" y="360" type="curve"/>
      <point x="310" y="367" type="line"/>
      <point x="435.5" y="370.5"/>
      <point x="557" y="418"/>
      <point x="577.5" y="524" type="curve" smooth="yes"/>
      <point x="595.5" y="623"/>
      <point x="515" y="699"/>
      <point x="400.5" y="699.5" type="curve" smooth="yes"/>
      <point x="275.5" y="700.5"/>
      <point x="185.5" y="628"/>
      <point x="159" y="527" type="curve"/>
      <point x="149" y="527" type="line"/>
      <point x="176" y="635"/>
      <point x="271.5" y="710"/>
      <point x="401" y="709.5" type="curve" smooth="yes"/>
      <point x="523" y="709"/>
      <point x="606" y="626.5"/>
      <point x="587.5" y="523.5" type="curve" smooth="yes"/>
      <point x="566" y="412.5"/>
      <point x="444" y="363.5"/>
    </contour>
    <contour>
      <point x="275.5" y="-9.5" type="curve" smooth="yes"/>
      <point x="131.5" y="-9.5"/>
      <point x="49" y="68.5"/>
      <point x="63" y="185" type="curve"/>
      <point x="73" y="185" type="line"/>
      <point x="60" y="72.5"/>
      <point x="139.5" y="0.5"/>
      <point x="275.5" y="0.5" type="curve" smooth="yes"/>
      <point x="410" y="0.5"/>
      <point x="519.5" y="71.5"/>
      <point x="539.5" y="185" type="curve" smooth="yes"/>
      <point x="562.5" y="320.5"/>
      <point x="432" y="354.5"/>
      <point x="308.5" y="357" type="curve"/>
      <point x="309.5" y="364" type="line"/>
      <point x="442.5" y="361.5"/>
      <point x="572.5" y="325.5"/>
      <point x="549" y="185" type="curve" smooth="yes"/>
      <point x="528.5" y="63.5"/>
      <point x="415.5" y="-9.5"/>
    </contour>
  </outline>
</glyph>
<glyph name="uni0418" format="1">
  <advance width="703"/>
  <unicode hex="0418"/>
  <outline>
    <contour>
      <point x="707" y="710.5" type="line"/>
      <point x="53.5" y="-34.5" type="line"/>
      <point x="62" y="-10.5" type="line"/>
      <point x="715.5" y="734.5" type="line"/>
    </contour>
    <contour>
      <point x="190" y="699.5" type="line"/>
      <point x="67" y="-13" type="line"/>
      <point x="53.5" y="-34.5" type="line"/>
      <point x="180" y="699.5" type="line"/>
    </contour>
    <contour>
      <point x="715.5" y="734.5" type="line"/>
      <point x="588.5" y="0" type="line"/>
      <point x="578.5" y="0" type="line"/>
      <point x="702" y="715" type="line"/>
    </contour>
  </outline>
</glyph>
<glyph name="uni0419" format="1">
  <advance width="703"/>
  <unicode hex="0419"/>
  <outline>
    <contour>
      <point x="707" y="710.5" type="line"/>
      <point x="53.5" y="-34.5" type="line"/>
      <point x="62" y="-10.5" type="line"/>
      <point x="715.5" y="734.5" type="line"/>
    </contour>
    <contour>
      <point x="190" y="699.5" type="line"/>
      <point x="67" y="-13" type="line"/>
      <point x="53.5" y="-34.5" type="line"/>
      <point x="180" y="699.5" type="line"/>
    </contour>
    <contour>
      <point x="715.5" y="734.5" type="line"/>
      <point x="588.5" y="0" type="line"/>
      <point x="578.5" y="0" type="line"/>
      <point x="702" y="715" type="line"/>
    </contour>
    <contour>
      <point x="310.198" y="906.5" type="curve"/>
      <point x="319.698" y="906.5" type="line"/>
      <point x="315.198" y="838"/>
      <point x="357.198" y="777.5"/>
      <point x="442.698" y="777" type="curve" smooth="yes"/>
      <point x="530.698" y="776.5"/>
      <point x="589.198" y="838.5"/>
      <point x="607.698" y="906" type="curve"/>
      <point x="617.698" y="905.5" type="line"/>
      <point x="598.698" y="833"/>
      <point x="539.698" y="767"/>
      <point x="442.198" y="767" type="curve" smooth="yes"/>
      <point x="346.698" y="767"/>
      <point x="304.698" y="833.5"/>
    </contour>
  </outline>
</glyph>
<glyph name="uni041F" format="1">
  <advance width="621"/>
  <unicode hex="041F"/>
  <outline>
    <contour>
      <point x="625" y="690" type="line"/>
      <point x="178.5" y="690" type="line"/>
      <point x="59.5" y="0" type="line"/>
      <point x="50" y="0" type="line"/>
      <point x="170" y="700" type="line"/>
      <point x="636" y="700" type="line"/>
      <point x="516" y="0" type="line"/>
      <point x="506" y="0" type="line"/>
    </contour>
  </outline>
</glyph>
<glyph name="uni0423" format="1">
  <advance width="465"/>
  <unicode hex="0423"/>
  <outline>
    <contour>
      <point x="559" y="699.5" type="line"/>
      <point x="119" y="0" type="line"/>
      <point x="109" y="0" type="line"/>
      <point x="250.5" y="224.5" type="line"/>
      <point x="92.5" y="700" type="line"/>
      <point x="102" y="700" type="line"/>
      <point x="257.5" y="230" type="line"/>
      <point x="253" y="230.5" type="line"/>
      <point x="549" y="699.5" type="line"/>
    </contour>
  </outline>
</glyph>
<glyph name="uni0424" format="1">
  <advance width="708"/>
  <unicode hex="0424"/>
  <outline>
    <contour>
      <point x="442" y="699.5" type="line"/>
      <point x="452" y="699.5" type="line"/>
      <point x="331.5" y="0" type="line"/>
      <point x="321.5" y="0" type="line"/>
    </contour>
    <contour>
      <point x="692.5" y="350" type="curve" smooth="yes"/>
      <point x="719" y="508"/>
      <point x="600.5" y="606.5"/>
      <point x="436.5" y="609" type="curve" smooth="yes"/>
      <point x="427" y="609" type="line" smooth="yes"/>
      <point x="256.5" y="607"/>
      <point x="108.5" y="511"/>
      <point x="81" y="350" type="curve" smooth="yes"/>
      <point x="54.5" y="192"/>
      <point x="173" y="91.5"/>
      <point x="337" y="89" type="curve" smooth="yes"/>
      <point x="346.5" y="89" type="line" smooth="yes"/>
      <point x="517.5" y="91"/>
      <point x="665" y="189"/>
    </contour>
    <contour>
      <point x="702.5" y="350" type="curve" smooth="yes"/>
      <point x="674.5" y="183"/>
      <point x="522.5" y="82"/>
      <point x="346" y="80" type="curve" smooth="yes"/>
      <point x="336.5" y="80" type="line" smooth="yes"/>
      <point x="167" y="82.5"/>
      <point x="44" y="186"/>
      <point x="71" y="350" type="curve" smooth="yes"/>
      <point x="99" y="517"/>
      <point x="251" y="618"/>
      <point x="427.5" y="620" type="curve" smooth="yes"/>
      <point x="437" y="620" type="line" smooth="yes"/>
      <point x="606.5" y="617.5"/>
      <point x="729.5" y="514"/>
    </contour>
  </outline>
</glyph>
<glyph name="uni0425" format="1">
  <advance width="538"/>
  <unicode hex="0425"/>
  <outline>
    <contour>
      <point x="530.5" y="699" type="line"/>
      <point x="544.5" y="699" type="line"/>
      <point x="286.5" y="366.5" type="line"/>
      <point x="439" y="0" type="line"/>
      <point x="425" y="0" type="line"/>
      <point x="279" y="355.5" type="line"/>
      <point x="5.5" y="0" type="line"/>
      <point x="-8.5" y="0" type="line"/>
      <point x="274.5" y="367.5" type="line"/>
      <point x="136" y="700" type="line"/>
      <point x="149.5" y="700" type="line"/>
      <point x="282" y="377.5" type="line"/>
    </contour>
  </outline>
</glyph>
<glyph name="uni0427" format="1">
  <advance width="524"/>
  <unicode hex="0427"/>
  <outline>
    <contour>
      <point x="302" y="280" type="line"/>
      <point x="303.5" y="290" type="line"/>
      <point x="466" y="290" type="line"/>
      <point x="464.5" y="280" type="line"/>
    </contour>
    <contour>
      <point x="529.5" y="699.5" type="line"/>
      <point x="539.5" y="699.5" type="line"/>
      <point x="419" y="0" type="line"/>
      <point x="409" y="0" type="line"/>
    </contour>
    <contour>
      <point x="180.5" y="699.5" type="line"/>
      <point x="148.5" y="518" type="line" smooth="yes"/>
      <point x="128.64" y="396.834"/>
      <point x="180.5" y="290"/>
      <point x="303.5" y="290" type="curve"/>
      <point x="302" y="280" type="line"/>
      <point x="171.5" y="280"/>
      <point x="118.5" y="393.5"/>
      <point x="138.5" y="518" type="curve" smooth="yes"/>
      <point x="170.5" y="699.5" type="line"/>
    </contour>
  </outline>
</glyph>
<glyph name="uni042D" format="1">
  <advance width="664"/>
  <unicode hex="042D"/>
  <outline>
    <contour>
      <point x="189" y="345" type="line"/>
      <point x="190.5" y="355" type="line"/>
      <point x="638" y="355" type="line"/>
      <point x="636.5" y="345" type="line"/>
    </contour>
    <contour>
      <point x="637" y="350" type="curve" smooth="yes"/>
      <point x="663" y="528"/>
      <point x="577" y="694"/>
      <point x="388" y="695.5" type="curve" smooth="yes"/>
      <point x="297" y="696"/>
      <point x="219.5" y="665"/>
      <point x="155" y="614" type="curve"/>
      <point x="157.5" y="628.5" type="line"/>
      <point x="223.5" y="677"/>
      <point x="294.5" y="708"/>
      <point x="389" y="707.5" type="curve" smooth="yes"/>
      <point x="585" y="706"/>
      <point x="676" y="534.5"/>
      <point x="649" y="350" type="curve" smooth="yes"/>
      <point x="618.5" y="154.5"/>
      <point x="466" y="-7"/>
      <point x="268" y="-8" type="curve" smooth="yes"/>
      <point x="179.5" y="-8.5"/>
      <point x="117.5" y="18.5"/>
      <point x="62.5" y="71.5" type="curve"/>
      <point x="65" y="87.5" type="line"/>
      <point x="117.5" y="30"/>
      <point x="182" y="3.5"/>
      <point x="269" y="4" type="curve" smooth="yes"/>
      <point x="460" y="5"/>
      <point x="607" y="162.5"/>
    </contour>
  </outline>
</glyph>
<glyph name="uni042F" format="1">
  <advance width="454"/>
  <unicode hex="042F"/>
  <outline>
    <contour>
      <point x="289" y="316" type="line"/>
      <point x="20" y="0" type="line"/>
      <point x="6" y="0" type="line"/>
      <point x="276.5" y="316" type="line"/>
    </contour>
    <contour>
      <point x="460" y="700" type="line"/>
      <point x="339" y="0" type="line"/>
      <point x="328.5" y="0" type="line"/>
      <point x="449" y="700" type="line"/>
    </contour>
    <contour>
      <point x="455.5" y="689" type="line"/>
      <point x="346" y="689" type="line" smooth="yes"/>
      <point x="221.5" y="687"/>
      <point x="116" y="627"/>
      <point x="96" y="507" type="curve" smooth="yes"/>
      <point x="76.5" y="388"/>
      <point x="163" y="324"/>
      <point x="283" y="324" type="curve" smooth="yes"/>
      <point x="393" y="324" type="line"/>
      <point x="391.5" y="314" type="line"/>
      <point x="282" y="314" type="line" smooth="yes"/>
      <point x="158" y="314"/>
      <point x="65.5" y="383"/>
      <point x="85.5" y="507" type="curve" smooth="yes"/>
      <point x="106" y="633"/>
      <point x="217.5" y="698"/>
      <point x="347" y="700" type="curve" smooth="yes"/>
      <point x="457.5" y="700" type="line"/>
    </contour>
  </outline>
</glyph>
<glyph name="uni0432" format="1">
  <advance width="398"/>
  <unicode hex="0432"/>
  <outline>
    <contour>
      <point x="90" y="231" type="line"/>
      <point x="218.5" y="231" type="line" smooth="yes"/>
      <point x="300" y="230"/>
      <point x="378" y="212.5"/>
      <point x="364.5" y="124.5" type="curve" smooth="yes"/>
      <point x="352.5" y="50.5"/>
      <point x="290.5" y="1"/>
      <point x="199.5" y="0.5" type="curve" smooth="yes"/>
      <point x="50.5" y="0" type="line"/>
      <point x="52" y="10" type="line"/>
      <point x="200" y="10" type="line" smooth="yes"/>
      <point x="285.5" y="10"/>
      <point x="343.5" y="57.5"/>
      <point x="354.5" y="125" type="curve" smooth="yes"/>
      <point x="366.5" y="213.5"/>
      <point x="280.5" y="224"/>
      <point x="218.5" y="225" type="curve" smooth="yes"/>
      <point x="89" y="225" type="line"/>
    </contour>
    <contour>
      <point x="89.5" y="229" type="line"/>
      <point x="90.5" y="235" type="line"/>
      <point x="209.5" y="235" type="line" smooth="yes"/>
      <point x="267.5" y="236.5"/>
      <point x="358" y="256.5"/>
      <point x="371" y="335" type="curve" smooth="yes"/>
      <point x="384.5" y="411"/>
      <point x="321" y="450"/>
      <point x="247" y="450" type="curve" smooth="yes"/>
      <point x="127" y="450" type="line"/>
      <point x="129" y="460" type="line"/>
      <point x="248" y="460" type="line" smooth="yes"/>
      <point x="327" y="460"/>
      <point x="395" y="419"/>
      <point x="380.5" y="334.5" type="curve" smooth="yes"/>
      <point x="367" y="256.5"/>
      <point x="289" y="230.5"/>
      <point x="209.5" y="229" type="curve" smooth="yes"/>
    </contour>
    <contour>
      <point x="124.5" y="460" type="line"/>
      <point x="134.5" y="460" type="line"/>
      <point x="55" y="0" type="line"/>
      <point x="45" y="0" type="line"/>
    </contour>
  </outline>
</glyph>
<glyph name="uni0434" format="1">
  <advance width="635"/>
  <unicode hex="0434"/>
  <outline>
    <contour>
      <point x="369.5" y="470" type="line"/>
      <point x="82" y="7.5" type="line"/>
      <point x="71" y="7.5" type="line"/>
      <point x="373" y="495" type="line"/>
      <point x="508" y="7.5" type="line"/>
      <point x="497.5" y="7.5" type="line"/>
    </contour>
    <contour>
      <point x="556" y="0" type="line"/>
      <point x="22" y="0" type="line"/>
      <point x="5.5" y="-89.5" type="line"/>
      <point x="-4.5" y="-89.5" type="line"/>
      <point x="13.5" y="10" type="line"/>
      <point x="567" y="10" type="line"/>
      <point x="549" y="-89.5" type="line"/>
      <point x="539" y="-89.5" type="line"/>
    </contour>
  </outline>
</glyph>
<glyph name="uni0436" format="1">
  <advance width="440"/>
  <unicode hex="0436"/>
  <outline>
    <contour>
      <point x="450.5" y="459" type="line"/>
      <point x="463.5" y="459" type="line"/>
      <point x="254" y="269" type="line"/>
      <point x="404" y="0" type="line"/>
      <point x="391.5" y="0" type="line"/>
      <point x="242" y="271" type="line"/>
    </contour>
    <contour>
      <point x="277.5" y="459.5" type="line"/>
      <point x="197.5" y="0" type="line"/>
      <point x="187.5" y="0" type="line"/>
      <point x="267.5" y="459.5" type="line"/>
    </contour>
    <contour>
      <point x="92.5" y="460" type="line"/>
      <point x="237" y="269.5" type="line"/>
      <point x="-5" y="0" type="line"/>
      <point x="-18" y="0" type="line"/>
      <point x="224" y="269.5" type="line"/>
      <point x="80" y="460" type="line"/>
    </contour>
  </outline>
</glyph>
<glyph name="uni0437" format="1">
  <advance width="461"/>
  <unicode hex="0437"/>
  <outline>
    <contour>
      <point x="255" y="244" type="curve"/>
      <point x="256.5" y="250.5" type="line"/>
      <point x="334.5" y="252"/>
      <point x="405" y="275.5"/>
      <point x="419" y="343.5" type="curve" smooth="yes"/>
      <point x="432.5" y="412"/>
      <point x="372.5" y="459.5"/>
      <point x="298" y="459.5" type="curve" smooth="yes"/>
      <point x="209.997" y="459.5"/>
      <point x="144.5" y="397.5"/>
      <point x="125" y="332" type="curve"/>
      <point x="115" y="332" type="line"/>
      <point x="135" y="405.5"/>
      <point x="208" y="469.5"/>
      <point x="299" y="469.5" type="curve" smooth="yes"/>
      <point x="378.5" y="469.5"/>
      <point x="443" y="417.5"/>
      <point x="429" y="343" type="curve" smooth="yes"/>
      <point x="415" y="271.5"/>
      <point x="343.5" y="245.5"/>
    </contour>
    <contour>
      <point x="216.5" y="-9.5" type="curve" smooth="yes"/>
      <point x="114.5" y="-9"/>
      <point x="58.5" y="57"/>
      <point x="57.5" y="145" type="curve"/>
      <point x="67.5" y="145" type="line"/>
      <point x="69.5" y="63.5"/>
      <point x="120" y="0.5"/>
      <point x="217" y="0.5" type="curve" smooth="yes"/>
      <point x="297" y="0.5"/>
      <point x="392.596" y="45.9709"/>
      <point x="405" y="130.5" type="curve" smooth="yes"/>
      <point x="418" y="215.5"/>
      <point x="329.5" y="239.5"/>
      <point x="254.5" y="241.5" type="curve"/>
      <point x="256" y="248" type="line"/>
      <point x="348" y="246"/>
      <point x="428.084" y="214.975"/>
      <point x="414.5" y="130.5" type="curve" smooth="yes"/>
      <point x="401.5" y="41"/>
      <point x="305" y="-10"/>
    </contour>
  </outline>
</glyph>
<glyph name="uni0439" format="1">
  <advance width="460"/>
  <unicode hex="0439"/>
  <outline>
    <contour>
      <point x="431.5" y="465.5" type="line"/>
      <point x="44" y="-34.5" type="line"/>
      <point x="53.5" y="-5.5" type="line"/>
      <point x="441.5" y="494.5" type="line"/>
    </contour>
    <contour>
      <point x="139.5" y="459.5" type="line"/>
      <point x="57" y="-15" type="line"/>
      <point x="44" y="-34.5" type="line"/>
      <point x="129.5" y="459.5" type="line"/>
    </contour>
    <contour>
      <point x="441.5" y="494.5" type="line"/>
      <point x="355.5" y="0" type="line"/>
      <point x="345.5" y="0" type="line"/>
      <point x="428" y="475" type="line"/>
    </contour>
    <contour>
      <point x="157.198" y="694" type="curve"/>
      <point x="166.698" y="694" type="line"/>
      <point x="162.198" y="625.5"/>
      <point x="204.198" y="565"/>
      <point x="289.698" y="564.5" type="curve" smooth="yes"/>
      <point x="377.698" y="564"/>
      <point x="436.198" y="626"/>
      <point x="454.698" y="693.5" type="curve"/>
      <point x="464.698" y="693" type="line"/>
      <point x="445.698" y="620.5"/>
      <point x="386.698" y="554.5"/>
      <point x="289.198" y="554.5" type="curve" smooth="yes"/>
      <point x="193.698" y="554.5"/>
      <point x="151.698" y="621"/>
    </contour>
  </outline>
</glyph>
<glyph name="uni043C" format="1">
  <advance width="589"/>
  <unicode hex="043C"/>
  <outline>
    <contour>
      <point x="545" y="0" type="line"/>
      <point x="517" y="454" type="line"/>
      <point x="526" y="495" type="line"/>
      <point x="556.5" y="0" type="line"/>
    </contour>
    <contour>
      <point x="266" y="8.5" type="line"/>
      <point x="526" y="494" type="line"/>
      <point x="517.5" y="453.5" type="line"/>
      <point x="259.5" y="-30" type="line"/>
    </contour>
    <contour>
      <point x="260" y="-31" type="line"/>
      <point x="174.5" y="455" type="line"/>
      <point x="179" y="495" type="line"/>
      <point x="266.5" y="8" type="line"/>
    </contour>
    <contour>
      <point x="-23" y="0" type="line"/>
      <point x="179.5" y="494.5" type="line"/>
      <point x="175" y="454.5" type="line"/>
      <point x="-9.5" y="0.5" type="line"/>
    </contour>
  </outline>
</glyph>
<glyph name="uni043D" format="1">
  <advance width="480"/>
  <unicode hex="043D"/>
  <outline>
    <contour>
      <point x="93.5" y="240" type="line"/>
      <point x="95" y="250" type="line"/>
      <point x="415.5" y="250" type="line"/>
      <point x="414" y="240" type="line"/>
    </contour>
    <contour>
      <point x="450" y="459.5" type="line"/>
      <point x="460" y="459.5" type="line"/>
      <point x="380" y="0" type="line"/>
      <point x="370" y="0" type="line"/>
    </contour>
    <contour>
      <point x="124.5" y="459.5" type="line"/>
      <point x="134.5" y="459.5" type="line"/>
      <point x="55" y="0" type="line"/>
      <point x="45" y="0" type="line"/>
    </contour>
  </outline>
</glyph>
<glyph name="uni043F" format="1">
  <advance width="441"/>
  <unicode hex="043F"/>
  <outline>
    <contour>
      <point x="420.5" y="460" type="line"/>
      <point x="341" y="0" type="line"/>
      <point x="331" y="0" type="line"/>
      <point x="409" y="450" type="line"/>
      <point x="132.5" y="450" type="line"/>
      <point x="55" y="0" type="line"/>
      <point x="45" y="0" type="line"/>
      <point x="124.5" y="460" type="line"/>
    </contour>
  </outline>
</glyph>
<glyph name="uni0443" format="1">
  <advance width="426"/>
  <unicode hex="0443"/>
  <outline>
    <contour>
      <point x="455" y="459.5" type="line"/>
      <point x="46.5" y="-219.5" type="line"/>
      <point x="34.5" y="-219" type="line"/>
      <point x="179.5" y="20.5" type="line"/>
      <point x="61" y="460" type="line"/>
      <point x="72.5" y="460" type="line"/>
      <point x="190.5" y="20" type="line"/>
      <point x="180" y="20.5" type="line"/>
      <point x="443.5" y="459.5" type="line"/>
    </contour>
  </outline>
</glyph>
<glyph name="uni0444" format="1">
  <advance width="568"/>
  <unicode hex="0444"/>
  <outline>
    <contour>
      <point x="348.5" y="559.5" type="line"/>
      <point x="358.5" y="559.5" type="line"/>
      <point x="244.5" y="-99.5" type="line"/>
      <point x="234.5" y="-99.5" type="line"/>
    </contour>
    <contour>
      <point x="46" y="230" type="curve" smooth="yes"/>
      <point x="68.5" y="366.5"/>
      <point x="188" y="470"/>
      <point x="337" y="469.5" type="curve" smooth="yes"/>
      <point x="483" y="469"/>
      <point x="568" y="362.5"/>
      <point x="547" y="230" type="curve" smooth="yes"/>
      <point x="524.5" y="93.5"/>
      <point x="405" y="-10"/>
      <point x="256" y="-9.5" type="curve" smooth="yes"/>
      <point x="110" y="-9"/>
      <point x="25" y="97.5"/>
    </contour>
    <contour>
      <point x="55.5" y="230" type="curve" smooth="yes"/>
      <point x="35" y="107.5"/>
      <point x="113.5" y="1"/>
      <point x="256.5" y="0.5" type="curve" smooth="yes"/>
      <point x="402.5" y="0"/>
      <point x="515" y="103"/>
      <point x="537" y="230" type="curve" smooth="yes"/>
      <point x="557.5" y="352.5"/>
      <point x="479.5" y="459"/>
      <point x="336.5" y="459.5" type="curve" smooth="yes"/>
      <point x="190.5" y="460"/>
      <point x="77.5" y="357"/>
    </contour>
  </outline>
</glyph>
<glyph name="uni0446" format="1">
  <advance width="480"/>
  <unicode hex="0446"/>
  <outline>
    <contour>
      <point x="343" y="10" type="line"/>
      <point x="421.5" y="10" type="line"/>
      <point x="403.5" y="-89.5" type="line"/>
      <point x="393.5" y="-89.5" type="line"/>
      <point x="410" y="0" type="line"/>
      <point x="45" y="0" type="line"/>
      <point x="124.5" y="459.5" type="line"/>
      <point x="134.5" y="459.5" type="line"/>
      <point x="57" y="10" type="line"/>
      <point x="333" y="10" type="line"/>
      <point x="411" y="459.5" type="line"/>
      <point x="421" y="459.5" type="line"/>
    </contour>
  </outline>
</glyph>
<glyph name="uni0448" format="1">
  <advance width="689"/>
  <unicode hex="0448"/>
  <outline>
    <contour>
      <point x="323.5" y="10" type="line"/>
      <point x="580.5" y="10" type="line"/>
      <point x="658.5" y="459.5" type="line"/>
      <point x="668.5" y="459.5" type="line"/>
      <point x="589" y="0" type="line"/>
      <point x="45" y="0" type="line"/>
      <point x="124.5" y="459.5" type="line"/>
      <point x="134.5" y="459.5" type="line"/>
      <point x="57" y="10" type="line"/>
      <point x="314" y="10" type="line"/>
      <point x="391.5" y="459.5" type="line"/>
      <point x="401.5" y="459.5" type="line"/>
    </contour>
  </outline>
</glyph>
<glyph name="uni0449" format="1">
  <advance width="727"/>
  <unicode hex="0449"/>
  <outline>
    <contour>
      <point x="323.5" y="10" type="line"/>
      <point x="580.5" y="10" type="line"/>
      <point x="658.5" y="459.5" type="line"/>
      <point x="668.5" y="459.5" type="line"/>
      <point x="591" y="10" type="line"/>
      <point x="669" y="10" type="line"/>
      <point x="651" y="-89.5" type="line"/>
      <point x="641" y="-89.5" type="line"/>
      <point x="657.5" y="0" type="line"/>
      <point x="45" y="0" type="line"/>
      <point x="124.5" y="459.5" type="line"/>
      <point x="134.5" y="459.5" type="line"/>
      <point x="57" y="10" type="line"/>
      <point x="314" y="10" type="line"/>
      <point x="391.5" y="459.5" type="line"/>
      <point x="401.5" y="459.5" type="line"/>
    </contour>
  </outline>
</glyph>
<glyph name="uni044B" format="1">
  <advance width="533"/>
  <unicode hex="044B"/>
  <outline>
    <contour>
      <point x="503" y="459.5" type="line"/>
      <point x="513" y="459.5" type="line"/>
      <point x="433.5" y="0" type="line"/>
      <point x="423.5" y="0" type="line"/>
    </contour>
    <contour>
      <point x="124.5" y="459.5" type="line"/>
      <point x="134.5" y="459.5" type="line"/>
      <point x="55" y="0" type="line"/>
      <point x="45" y="0" type="line"/>
    </contour>
    <contour>
      <point x="94.5" y="276" type="line"/>
      <point x="96.5" y="286" type="line"/>
      <point x="210.5" y="286" type="line" smooth="yes"/>
      <point x="300" y="286"/>
      <point x="364.5" y="235.5"/>
      <point x="350" y="142.5" type="curve" smooth="yes"/>
      <point x="335.5" y="48.5"/>
      <point x="252" y="0"/>
      <point x="159.5" y="0" type="curve" smooth="yes"/>
      <point x="47.5" y="0" type="line"/>
      <point x="49" y="10" type="line"/>
      <point x="163" y="10" type="line" smooth="yes"/>
      <point x="244.5" y="10"/>
      <point x="325.5" y="53"/>
      <point x="340" y="143" type="curve" smooth="yes"/>
      <point x="353.5" y="228.5"/>
      <point x="292" y="276"/>
      <point x="209.5" y="276" type="curve" smooth="yes"/>
    </contour>
  </outline>
</glyph>
